<?xml version="1.0" encoding="utf-8"?>
<!-- Generator: Adobe Illustrator 27.5.0, SVG Export Plug-In . SVG Version: 6.00 Build 0)  -->
<svg version="1.1" xmlns="http://www.w3.org/2000/svg" xmlns:xlink="http://www.w3.org/1999/xlink" x="0px" y="0px"
	 viewBox="0 0 800 800" style="enable-background:new 0 0 800 800;" xml:space="preserve">
<g id="_x31_06">
	<g>
		<rect x="20.017" y="20.001" style="fill-rule:evenodd;clip-rule:evenodd;fill:#F2F0E3;" width="759.962" height="759.998"/>
		<path style="fill-rule:evenodd;clip-rule:evenodd;fill:#D3CDBD;" d="M262.654,253.738V84.287c0-5.435-4.415-9.855-9.849-9.855
			H126.227c-5.428,0-9.816,4.421-9.816,9.855V253.77c0,5.395,4.389,9.817,9.816,9.817h126.578
			C258.239,263.561,262.654,259.165,262.654,253.738L262.654,253.738z M135.764,94.926c-0.032,0.096-0.064,0.159-0.096,0.223
			C135.7,95.085,135.732,95.021,135.764,94.926L135.764,94.926z"/>
		<path style="fill-rule:evenodd;clip-rule:evenodd;fill:#0F303F;" d="M251.951,253.171V73.769c0-5.746-4.669-10.416-10.416-10.416
			H107.536c-5.746,0-10.422,4.669-10.422,10.416v179.402c0,5.747,4.676,10.416,10.422,10.416h133.999
			C247.281,263.561,251.951,258.918,251.951,253.171L251.951,253.171z M231.839,105.093c0,2.873-2.338,5.211-5.211,5.211H122.437
			c-2.873,0-5.205-2.338-5.205-5.211V87.064c0-2.873,2.331-5.205,5.205-5.205h104.191c2.873,0,5.211,2.332,5.211,5.205V105.093z"/>
		<path style="fill-rule:evenodd;clip-rule:evenodd;fill:#D0D2D4;" d="M119.628,128.931h17.997c1.611,0,2.904,1.325,2.904,2.905
			v17.462c0,1.605-1.293,2.931-2.904,2.931h-17.997c-1.605,0-2.905-1.325-2.905-2.931v-17.462
			C116.723,130.256,118.022,128.931,119.628,128.931L119.628,128.931z"/>
		<path style="fill-rule:evenodd;clip-rule:evenodd;fill:#D0D2D4;" d="M150.098,128.931h17.997c1.58,0,2.905,1.325,2.905,2.905
			v17.462c0,1.605-1.325,2.931-2.905,2.931h-17.997c-1.612,0-2.905-1.325-2.905-2.931v-17.462
			C147.193,130.256,148.486,128.931,150.098,128.931L150.098,128.931z"/>
		<path style="fill-rule:evenodd;clip-rule:evenodd;fill:#D0D2D4;" d="M180.568,128.931h17.959c1.612,0,2.937,1.325,2.937,2.905
			v17.462c0,1.605-1.325,2.931-2.937,2.931h-17.959c-1.612,0-2.943-1.325-2.943-2.931v-17.462
			C177.625,130.256,178.956,128.931,180.568,128.931L180.568,128.931z"/>
		<path style="fill-rule:evenodd;clip-rule:evenodd;fill:#D0D2D4;" d="M211,128.931h17.997c1.612,0,2.905,1.325,2.905,2.905v17.462
			c0,1.605-1.293,2.931-2.905,2.931H211c-1.58,0-2.905-1.325-2.905-2.931v-17.462C208.096,130.256,209.421,128.931,211,128.931
			L211,128.931z"/>
		<path style="fill-rule:evenodd;clip-rule:evenodd;fill:#D0D2D4;" d="M119.379,160.154h17.997c1.574,0,2.905,1.325,2.905,2.943
			v17.455c0,1.605-1.332,2.905-2.905,2.905h-17.997c-1.611,0-2.911-1.3-2.911-2.905v-17.455
			C116.468,161.479,117.768,160.154,119.379,160.154L119.379,160.154z"/>
		<path style="fill-rule:evenodd;clip-rule:evenodd;fill:#D0D2D4;" d="M149.843,160.154h17.965c1.612,0,2.937,1.325,2.937,2.943
			v17.455c0,1.605-1.325,2.905-2.937,2.905h-17.965c-1.612,0-2.937-1.3-2.937-2.905v-17.455
			C146.906,161.479,148.231,160.154,149.843,160.154L149.843,160.154z"/>
		<path style="fill-rule:evenodd;clip-rule:evenodd;fill:#D0D2D4;" d="M180.282,160.154h17.997c1.611,0,2.905,1.325,2.905,2.943
			v17.455c0,1.605-1.294,2.905-2.905,2.905h-17.997c-1.58,0-2.905-1.3-2.905-2.905v-17.455
			C177.376,161.479,178.702,160.154,180.282,160.154L180.282,160.154z"/>
		<path style="fill-rule:evenodd;clip-rule:evenodd;fill:#D0D2D4;" d="M210.746,160.154h17.997c1.612,0,2.905,1.325,2.905,2.943
			v17.455c0,1.605-1.293,2.905-2.905,2.905h-17.997c-1.605,0-2.898-1.3-2.898-2.905v-17.455
			C207.847,161.479,209.141,160.154,210.746,160.154L210.746,160.154z"/>
		<path style="fill-rule:evenodd;clip-rule:evenodd;fill:#D0D2D4;" d="M119.124,191.415h17.965c1.611,0,2.936,1.293,2.936,2.905
			v17.462c0,1.605-1.325,2.93-2.936,2.93h-17.965c-1.611,0-2.937-1.325-2.937-2.93v-17.462
			C116.188,192.708,117.513,191.415,119.124,191.415L119.124,191.415z"/>
		<path style="fill-rule:evenodd;clip-rule:evenodd;fill:#D0D2D4;" d="M149.588,191.415h17.971c1.605,0,2.93,1.293,2.93,2.905
			v17.462c0,1.605-1.325,2.93-2.93,2.93h-17.971c-1.605,0-2.931-1.325-2.931-2.93v-17.462
			C146.658,192.708,147.983,191.415,149.588,191.415L149.588,191.415z"/>
		<path style="fill-rule:evenodd;clip-rule:evenodd;fill:#D0D2D4;" d="M180.027,191.415h17.997c1.611,0,2.905,1.293,2.905,2.905
			v17.462c0,1.605-1.293,2.93-2.905,2.93h-17.997c-1.612,0-2.905-1.325-2.905-2.93v-17.462
			C177.122,192.708,178.415,191.415,180.027,191.415L180.027,191.415z"/>
		<path style="fill-rule:evenodd;clip-rule:evenodd;fill:#E43A29;" d="M210.561,191.415h17.838c1.644,0,3.001,1.325,3.001,2.969
			v47.544c0,1.644-1.357,2.969-3.001,2.969h-17.838c-1.644,0-3.001-1.325-3.001-2.969v-47.544
			C207.561,192.74,208.917,191.415,210.561,191.415L210.561,191.415z"/>
		<path style="fill-rule:evenodd;clip-rule:evenodd;fill:#D0D2D4;" d="M118.869,222.637h17.965c1.611,0,2.936,1.325,2.936,2.943
			v17.456c0,1.611-1.325,2.905-2.936,2.905h-17.965c-1.611,0-2.937-1.293-2.937-2.905V225.58
			C115.933,223.961,117.258,222.637,118.869,222.637L118.869,222.637z"/>
		<path style="fill-rule:evenodd;clip-rule:evenodd;fill:#D0D2D4;" d="M149.308,222.637h17.997c1.612,0,2.905,1.325,2.905,2.943
			v17.456c0,1.611-1.293,2.905-2.905,2.905h-17.997c-1.612,0-2.905-1.293-2.905-2.905V225.58
			C146.403,223.961,147.696,222.637,149.308,222.637L149.308,222.637z"/>
		<path style="fill-rule:evenodd;clip-rule:evenodd;fill:#D0D2D4;" d="M179.778,222.637h17.991c1.58,0,2.905,1.325,2.905,2.943
			v17.456c0,1.611-1.325,2.905-2.905,2.905h-17.991c-1.612,0-2.905-1.293-2.905-2.905V225.58
			C176.873,223.961,178.166,222.637,179.778,222.637L179.778,222.637z"/>
		<path style="fill-rule:evenodd;clip-rule:evenodd;fill:#D0EAF9;" d="M231.839,105.093V87.064c0-2.873-2.338-5.205-5.211-5.205
			H122.437c-2.873,0-5.205,2.332-5.205,5.205v18.029c0,2.873,2.331,5.211,5.205,5.211h104.191
			C229.501,110.305,231.839,107.966,231.839,105.093L231.839,105.093z"/>
		<polygon style="fill:#E43A29;" points="130.489,208.653 127.935,208.653 127.935,199.811 125.724,199.811 125.724,197.855 
			130.489,197.473 		"/>
		<path style="fill:#E43A29;" d="M162.533,208.653h-7.638v-1.675l3.376-3.721c0.478-0.51,0.79-0.981,1.013-1.363
			c0.223-0.408,0.319-0.752,0.319-1.07c0-0.408-0.096-0.758-0.287-1.013c-0.191-0.249-0.503-0.376-0.917-0.376
			c-0.408,0-0.727,0.153-0.943,0.503c-0.223,0.313-0.318,0.727-0.318,1.229h-2.522v-0.025c-0.032-1.045,0.312-1.898,1.006-2.625
			c0.694-0.694,1.612-1.044,2.778-1.044c1.204,0,2.115,0.286,2.777,0.892c0.663,0.599,0.981,1.414,0.981,2.427
			c0,0.695-0.191,1.325-0.535,1.867c-0.383,0.535-1.045,1.325-1.988,2.395l-1.363,1.58l0.032,0.064h4.23V208.653z"/>
		<path style="fill:#E43A29;" d="M188.87,201.99c0.439,0,0.79-0.121,1.038-0.376c0.255-0.255,0.382-0.573,0.382-1.013
			c0-0.351-0.127-0.663-0.382-0.886c-0.249-0.255-0.599-0.344-1.007-0.344c-0.35,0-0.599,0.089-0.821,0.254
			c-0.255,0.216-0.351,0.44-0.351,0.751h-2.491v-0.025c-0.031-0.892,0.313-1.618,1.045-2.153c0.694-0.535,1.574-0.815,2.618-0.815
			c1.166,0,2.147,0.28,2.873,0.815c0.695,0.574,1.07,1.325,1.07,2.345c0,0.497-0.152,0.943-0.471,1.389
			c-0.287,0.408-0.694,0.727-1.229,0.975c0.599,0.223,1.07,0.535,1.389,0.975c0.311,0.446,0.471,0.981,0.471,1.618
			c0,0.975-0.376,1.797-1.166,2.364c-0.758,0.567-1.739,0.854-2.937,0.854c-1.044,0-1.956-0.254-2.714-0.79
			c-0.79-0.567-1.14-1.357-1.108-2.37v-0.058h2.498c0,0.376,0.127,0.663,0.375,0.911c0.223,0.223,0.535,0.351,0.949,0.351
			c0.44,0,0.822-0.127,1.103-0.382c0.318-0.255,0.446-0.567,0.446-0.943c0-0.542-0.127-0.917-0.414-1.172
			c-0.28-0.255-0.663-0.383-1.166-0.383h-1.23v-1.892H188.87z"/>
		<path style="fill:#E43A29;" d="M131.374,173.035h1.103v1.962h-1.103v2.331h-2.561v-2.331h-4.383l-0.159-1.58l4.542-7.071v-0.032
			h2.561V173.035z M126.45,173.035h2.364v-3.44h-0.058l-0.287,0.573L126.45,173.035z"/>
		<path style="fill:#E43A29;" d="M155.213,172.411l0.631-6.192h6.473v1.988h-4.39l-0.287,2.306c0.223-0.159,0.478-0.28,0.79-0.344
			c0.318-0.102,0.694-0.166,1.077-0.166c1.006-0.025,1.796,0.294,2.332,0.956c0.573,0.624,0.854,1.542,0.854,2.739
			c0,1.077-0.312,1.962-0.943,2.656c-0.605,0.694-1.58,1.039-2.905,1.039c-1.045,0-1.962-0.249-2.72-0.815
			c-0.784-0.535-1.166-1.261-1.134-2.179l0.031-0.064l2.497-0.127c0,0.382,0.121,0.694,0.376,0.917
			c0.223,0.217,0.567,0.313,0.949,0.313c0.471,0,0.816-0.121,1.006-0.439c0.191-0.287,0.287-0.701,0.287-1.3
			c0-0.599-0.128-1.07-0.351-1.414c-0.217-0.351-0.535-0.51-1.007-0.51c-0.35,0-0.631,0.064-0.821,0.223
			c-0.224,0.128-0.383,0.313-0.44,0.535L155.213,172.411z"/>
		<path style="fill:#E43A29;" d="M189.939,166.155c0.414,0,0.79,0.032,1.14,0.096c0.313,0.096,0.694,0.185,1.103,0.351l-0.408,1.86
			c-0.382-0.096-0.662-0.191-0.917-0.224c-0.287-0.057-0.567-0.095-0.917-0.095c-0.599,0-1.102,0.223-1.484,0.663
			c-0.376,0.472-0.567,1.14-0.567,2.025v0.09c0.287-0.28,0.631-0.504,1.013-0.663c0.408-0.127,0.854-0.216,1.389-0.216
			c0.917,0,1.669,0.344,2.179,1.039c0.503,0.694,0.758,1.58,0.758,2.682c0,1.077-0.351,1.962-1.077,2.689
			c-0.726,0.694-1.637,1.045-2.777,1.045c-1.198,0-2.179-0.414-2.937-1.204c-0.727-0.79-1.103-1.867-1.103-3.255v-2.205
			c0-1.452,0.439-2.593,1.294-3.439C187.48,166.563,188.582,166.155,189.939,166.155L189.939,166.155z M189.404,171.997
			c-0.344,0-0.663,0.064-0.917,0.159c-0.248,0.089-0.471,0.217-0.599,0.408v0.471c0,0.79,0.127,1.427,0.382,1.834
			c0.28,0.446,0.63,0.663,1.102,0.663c0.382,0,0.694-0.191,0.949-0.535c0.249-0.319,0.344-0.758,0.344-1.236
			c0-0.561-0.095-1.006-0.344-1.287C190.099,172.156,189.787,171.997,189.404,171.997L189.404,171.997z"/>
		<path style="fill:#E43A29;" d="M132.604,137.042c-1.166,1.325-1.956,2.561-2.401,3.669c-0.408,1.134-0.631,2.428-0.631,3.943
			v1.453h-2.555v-1.453c0-1.484,0.255-2.841,0.79-4.07c0.535-1.236,1.325-2.402,2.37-3.542h-5.53v-1.988h7.957V137.042z"/>
		<polygon style="fill:#E43A29;" points="219.939,138.908 220.002,138.908 221.04,136.481 223.914,136.481 221.512,140.52 
			223.978,144.686 221.104,144.686 220.028,142.189 219.97,142.189 218.894,144.686 216.021,144.686 218.486,140.52 
			216.084,136.481 218.957,136.481 		"/>
		<path style="fill:#E43A29;" d="M189.245,144.278c0.478,0,0.854-0.191,1.14-0.535c0.313-0.382,0.439-0.892,0.439-1.516v-0.637
			c-0.223,0.287-0.535,0.51-0.854,0.663c-0.312,0.159-0.662,0.255-1.038,0.255c-1.013,0-1.803-0.344-2.37-1.007
			c-0.567-0.701-0.854-1.58-0.854-2.72c0-1.103,0.351-2.02,1.077-2.746c0.726-0.758,1.637-1.134,2.778-1.134
			c1.102,0,2.02,0.407,2.745,1.166c0.727,0.79,1.077,1.828,1.077,3.191v2.777c0,1.294-0.382,2.307-1.172,3.058
			c-0.79,0.764-1.765,1.14-2.969,1.172c-0.376-0.032-0.758-0.064-1.166-0.128c-0.408-0.095-0.79-0.223-1.166-0.382l0.439-1.797
			c0.318,0.096,0.631,0.191,0.917,0.255C188.551,144.24,188.901,144.278,189.245,144.278L189.245,144.278z M189.468,140.647
			c0.318,0,0.567-0.038,0.79-0.159c0.255-0.096,0.439-0.255,0.566-0.439v-1.236c0-0.63-0.095-1.108-0.344-1.452
			c-0.255-0.318-0.542-0.472-0.917-0.472c-0.408,0-0.727,0.191-0.949,0.567c-0.249,0.376-0.344,0.821-0.344,1.325
			c0,0.566,0.095,1.013,0.312,1.356C188.774,140.488,189.092,140.647,189.468,140.647L189.468,140.647z"/>
		<path style="fill:#E43A29;" d="M162.692,137.958c0,0.535-0.128,0.981-0.408,1.427c-0.255,0.408-0.631,0.726-1.108,0.975
			c0.605,0.249,1.077,0.599,1.421,1.077c0.318,0.439,0.51,0.975,0.51,1.542c0,1.044-0.383,1.835-1.109,2.401
			c-0.726,0.567-1.669,0.854-2.841,0.886c-1.166-0.032-2.146-0.319-2.936-0.886c-0.758-0.567-1.134-1.357-1.134-2.401
			c0-0.567,0.16-1.103,0.535-1.542c0.35-0.477,0.822-0.828,1.453-1.077c-0.503-0.249-0.917-0.567-1.166-0.975
			c-0.287-0.414-0.446-0.892-0.446-1.427c0-0.981,0.35-1.732,1.044-2.268c0.663-0.51,1.548-0.79,2.65-0.79
			c1.077,0,1.931,0.28,2.561,0.79C162.38,136.226,162.692,136.977,162.692,137.958L162.692,137.958z M160.545,142.851
			c0-0.439-0.121-0.79-0.407-1.07c-0.255-0.28-0.599-0.407-0.982-0.407c-0.439,0-0.79,0.127-1.07,0.407
			c-0.287,0.28-0.446,0.631-0.446,1.07c0,0.446,0.159,0.79,0.446,1.045c0.28,0.255,0.631,0.382,1.07,0.382
			c0.414,0,0.727-0.127,0.982-0.382C160.424,143.641,160.545,143.297,160.545,142.851L160.545,142.851z M160.138,138.086
			c0-0.382-0.064-0.663-0.255-0.879c-0.191-0.229-0.408-0.318-0.727-0.318c-0.344,0-0.631,0.089-0.822,0.318
			c-0.185,0.185-0.312,0.497-0.312,0.879c0,0.408,0.127,0.726,0.312,0.949c0.223,0.249,0.478,0.35,0.822,0.35
			c0.318,0,0.567-0.102,0.727-0.35C160.074,138.812,160.138,138.494,160.138,138.086L160.138,138.086z"/>
		<path style="fill:#E43A29;" d="M131.687,235.773c0,1.3-0.344,2.338-1.039,3.064c-0.726,0.758-1.644,1.14-2.778,1.14
			c-1.172,0-2.115-0.382-2.81-1.14c-0.694-0.727-1.044-1.765-1.044-3.064v-2.931c0-1.331,0.35-2.344,1.044-3.096
			c0.694-0.765,1.605-1.109,2.778-1.109c1.165,0,2.083,0.344,2.778,1.109c0.726,0.751,1.07,1.765,1.07,3.096V235.773z
			 M129.132,232.651c0-0.662-0.128-1.172-0.344-1.516c-0.223-0.351-0.542-0.535-0.949-0.535c-0.414,0-0.726,0.185-0.949,0.535
			c-0.223,0.344-0.312,0.854-0.312,1.516v3.281c0,0.663,0.089,1.204,0.312,1.548c0.223,0.344,0.535,0.503,0.981,0.503
			c0.376,0,0.694-0.159,0.918-0.503c0.248-0.344,0.344-0.885,0.344-1.548V232.651z"/>
		<rect x="157.041" y="233.218" style="fill:#E43A29;" width="2.529" height="2.147"/>
		<path style="fill:#E43A29;" d="M192.278,233.626h-7.008v-1.988h7.008V233.626z M192.278,236.945h-7.008v-1.962h7.008V236.945z"/>
		<polygon style="fill:#D0D2D4;" points="220.697,217.018 223.251,217.018 223.251,219.197 220.697,219.197 220.697,222.165 
			218.295,222.165 218.295,219.197 215.708,219.197 215.708,217.018 218.295,217.018 218.295,214.151 220.697,214.151 		"/>
		<rect x="217.505" y="170.831" style="fill:#E43A29;" width="4.484" height="1.988"/>
		<path style="fill-rule:evenodd;clip-rule:evenodd;fill:#D3CDBD;" d="M345.885,113.84h-0.031l-0.351,106.37l-19.857-0.064l0,0
			l-19.863-0.064l13.295,24.151l0,0l5.811,10.55l20.615-34.573l-12.155-0.032v-0.031l-15.85-0.032l0.344-106.37l0,0l-0.344,106.37
			l-11.715-0.032l0.351-106.401l0,0v-12.403c0-4.294,3.663-7.899,7.798-7.899l24.628,0.159c4.103,0,7.415,3.535,7.384,7.829
			L345.885,113.84z"/>
		<path style="fill-rule:evenodd;clip-rule:evenodd;fill:#DE7778;" d="M334.329,113.114l-42.466-0.159V99.697
			c0-4.612,3.912-8.467,8.301-8.435l26.33,0.159c4.389,0,7.925,3.759,7.899,8.364L334.329,113.114z"/>
		<polygon style="fill-rule:evenodd;clip-rule:evenodd;fill:#E2AF38;" points="333.915,226.746 334.297,113.082 321.288,113.019 
			320.938,226.714 		"/>
		
			<rect x="241.091" y="163.504" transform="matrix(0.003 -1 1 0.003 127.252 467.1784)" style="fill-rule:evenodd;clip-rule:evenodd;fill:#FFD268;" width="113.664" height="12.534"/>
		<polygon style="fill-rule:evenodd;clip-rule:evenodd;fill:#FFC334;" points="321.32,113.019 320.938,226.682 304.018,226.618 
			304.361,112.955 		"/>
		<polygon style="fill-rule:evenodd;clip-rule:evenodd;fill:#E8D6B9;" points="312.006,226.682 311.879,263.689 333.915,226.746 		
			"/>
		<polygon style="fill-rule:evenodd;clip-rule:evenodd;fill:#FCEFD2;" points="312.7,226.682 291.48,226.618 311.879,263.689 
			312.605,262.485 		"/>
		<polygon style="fill-rule:evenodd;clip-rule:evenodd;" points="305.686,252.413 311.879,263.689 312.605,262.485 318.606,252.445 
					"/>
		<path style="fill-rule:evenodd;clip-rule:evenodd;fill:#DE7778;" d="M334.265,126.026c0,1.548-0.446,3.026-1.172,4.262
			l-39.873-0.096c-0.758-1.262-1.204-2.777-1.204-4.421l0.096-13.041l42.217,0.096L334.265,126.026z"/>
		<polygon style="fill-rule:evenodd;clip-rule:evenodd;fill:#BC0B00;" points="334.233,130.32 334.297,113.082 321.288,113.019 
			321.256,130.289 		"/>
		
			<rect x="289.445" y="115.308" transform="matrix(0.0018 -1 1 0.0018 175.9684 419.4341)" style="fill-rule:evenodd;clip-rule:evenodd;fill:#F57B00;" width="17.27" height="12.531"/>
		<polygon style="fill-rule:evenodd;clip-rule:evenodd;fill:#FF3000;" points="321.32,113.019 321.256,130.289 304.33,130.225 
			304.361,112.955 		"/>
		<polygon style="fill-rule:evenodd;clip-rule:evenodd;fill:#E5E6E7;" points="291.799,130.193 291.831,112.923 334.329,112.923 
			334.233,130.32 		"/>
		<path style="fill-rule:evenodd;clip-rule:evenodd;" d="M291.799,125.772v-1.453l42.466,0.605v1.453L291.799,125.772z
			 M291.799,121.981v-1.452l42.498,0.598l-0.032,1.453L291.799,121.981z M291.799,118.197l0.032-1.452l42.466,0.599v1.452
			L291.799,118.197z"/>
		<polygon style="fill-rule:evenodd;clip-rule:evenodd;fill:#A6A9AB;" points="308.375,252.413 311.879,263.561 312.382,252.413 		
			"/>
		<path style="fill-rule:evenodd;clip-rule:evenodd;fill:#C85957;" d="M321.727,91.39l-0.255,21.405l12.856,0.032l0.064-13.041
			c0.025-4.605-3.51-8.364-7.899-8.364L321.727,91.39z"/>
		<polygon style="fill-rule:evenodd;clip-rule:evenodd;fill:#D76F6E;" points="321.473,112.795 321.727,91.39 304.808,91.294 
			304.553,112.77 		"/>
		<path style="fill-rule:evenodd;clip-rule:evenodd;fill:#DA8E8D;" d="M304.553,112.77l0.255-21.475l-4.644-0.032
			c-4.389-0.032-8.301,3.822-8.301,8.435v13.226h0.249v-0.191L304.553,112.77z"/>
		<path style="fill-rule:evenodd;clip-rule:evenodd;fill:#D3CDBD;" d="M654.415,110.616l-0.063-3.217
			c-0.025-2.122,1.605-3.854,3.67-3.886l3.567-0.057c1.006-0.038,1.949,0.344,2.65,1.07c0.726,0.726,1.134,1.669,1.134,2.682
			l0.063,3.383l20.335-0.127c1.631,0,3.147,0.407,4.511,1.134l0,0c0.064,0.032,0.127,0.063,0.191,0.127
			c0.127,0.063,0.254,0.153,0.382,0.216c0.063,0.064,0.152,0.102,0.216,0.128l0,0c0.026,0.063,0.09,0.095,0.153,0.127l0,0
			c0.063,0.064,0.128,0.096,0.191,0.159l0,0c0.063,0.032,0.127,0.096,0.19,0.121l0,0c0.065,0.064,0.128,0.102,0.192,0.166l0,0
			c0.025,0.025,0.09,0.089,0.153,0.127l0,0c0.063,0.058,0.127,0.121,0.165,0.153l0,0c0.064,0.063,0.128,0.127,0.191,0.159l0,0
			c0.065,0.063,0.09,0.121,0.153,0.159l0,0c0.063,0.063,0.089,0.127,0.152,0.191l0,0c0.063,0.025,0.102,0.089,0.166,0.152l0,0
			l0.153,0.159l0,0c0.037,0.064,0.102,0.128,0.127,0.185l0,0c0.063,0.064,0.102,0.127,0.152,0.191l0,0
			c0.039,0.064,0.103,0.128,0.128,0.166l0,0c0.063,0.057,0.102,0.121,0.165,0.185l0,0c0.026,0.063,0.064,0.127,0.128,0.185l0,0
			l0.128,0.23l0,0c0.025,0.058,0.063,0.121,0.127,0.184l0,0c0.025,0.064,0.051,0.128,0.089,0.191l0,0
			c0.09,0.121,0.153,0.287,0.217,0.414l0,0c0.038,0.058,0.063,0.121,0.103,0.217l0,0c0.089,0.127,0.152,0.28,0.19,0.407h0.025
			c0.038,0.159,0.103,0.287,0.166,0.446l0,0l0.051,0.217l0,0c0.038,0.063,0.064,0.159,0.103,0.223l0,0
			c0,0.096,0.025,0.159,0.063,0.223l0,0c0.025,0.09,0.025,0.153,0.064,0.255l0,0c0,0.063,0.025,0.153,0.063,0.217l0,0
			c0,0.096,0.025,0.159,0.025,0.255l0,0c0.038,0.064,0.038,0.152,0.064,0.217l0,0c0,0.102,0.039,0.165,0.039,0.255l0,0
			c0,0.063,0.025,0.159,0.025,0.223c0,0.096,0.038,0.159,0.038,0.248l0,0c0,0.064,0,0.166,0.025,0.255l0,0c0,0.064,0,0.159,0,0.224
			l0,0c0,0.095,0,0.185,0,0.248c0.038,0.102,0.038,0.191,0.038,0.255l0.09,23.081l0,0l0.025,6.912l0.611,115.939l0,0l0.064,10.734
			c0.025,5.307-4.179,9.664-9.378,9.696l-112.249,0.63l0,0c-0.064,0-0.152,0-0.254,0l0,0c-0.064,0-0.153-0.032-0.217-0.032l0,0
			c-0.103,0-0.153,0-0.255,0l0,0c-0.063,0-0.153-0.032-0.217-0.032l0,0c-0.103,0-0.166,0-0.255-0.031l0,0
			c-0.166,0-0.318-0.032-0.472-0.064l0,0c-0.064,0-0.165-0.032-0.229-0.032l0,0c-0.089-0.032-0.152-0.032-0.216-0.058l0,0
			c-0.153-0.038-0.319-0.064-0.472-0.128l0,0c-0.064,0-0.127-0.038-0.217-0.063l0,0c-0.229-0.064-0.445-0.128-0.662-0.223l0,0
			c-0.064-0.032-0.128-0.064-0.191-0.096c-0.102-0.032-0.166-0.064-0.229-0.096l0,0c-0.127-0.064-0.28-0.121-0.407-0.185l0,0
			c-1.173-0.605-2.18-1.452-2.994-2.472l0,0c-1.363-1.637-2.18-3.784-2.18-6.116l-0.637-122.315l0,0l-0.191-34.325
			c0-0.089,0-0.153,0-0.254c0-0.09,0.039-0.153,0.039-0.249c0-0.096,0-0.159,0-0.255l0,0c0-0.057,0-0.159,0.025-0.223
			c0-0.089,0-0.191,0.038-0.248l0,0c0-0.096,0-0.159,0.025-0.255c0-0.058,0-0.159,0.038-0.224l0,0c0-0.089,0.025-0.152,0.025-0.248
			c0.038-0.063,0.038-0.159,0.065-0.223c0-0.09,0.037-0.153,0.037-0.255l0,0c0.026-0.064,0.052-0.153,0.052-0.217l0,0
			c0.038-0.063,0.063-0.159,0.063-0.223l0,0c0.038-0.096,0.064-0.16,0.064-0.224h0.038c0-0.089,0.025-0.152,0.065-0.216l0,0
			c0.025-0.095,0.063-0.159,0.063-0.223l0,0c0.025-0.095,0.064-0.159,0.089-0.223l0,0c0.038-0.089,0.064-0.153,0.102-0.217l0,0
			l0.09-0.223l0,0c0.038-0.064,0.063-0.128,0.102-0.223l0,0c0.025-0.064,0.064-0.127,0.115-0.191l0,0
			c0.038-0.064,0.063-0.128,0.102-0.217l0,0l0.127-0.191l0,0c0.025-0.063,0.064-0.127,0.128-0.191l0,0
			c0.025-0.064,0.063-0.128,0.089-0.191l0,0c0.064-0.063,0.102-0.121,0.153-0.184l0,0c0.038-0.096,0.064-0.128,0.127-0.191l0,0
			c0.038-0.063,0.102-0.121,0.128-0.185l0,0c0.063-0.064,0.102-0.128,0.166-0.191l0,0c0.025-0.063,0.089-0.127,0.127-0.191l0,0
			c0.063-0.064,0.089-0.096,0.152-0.153l0,0c0.039-0.064,0.09-0.128,0.153-0.191l0,0c0.038-0.038,0.103-0.102,0.165-0.166l0,0
			c0.026-0.057,0.09-0.089,0.153-0.153c0.063-0.063,0.102-0.096,0.166-0.159l0,0c0.064-0.064,0.127-0.096,0.152-0.159l0,0
			c0.063-0.064,0.128-0.089,0.191-0.153l0,0c0.063-0.038,0.128-0.102,0.153-0.127l0,0l0.19-0.159
			c0.064-0.032,0.128-0.096,0.191-0.128l0,0l0.191-0.121c0.064-0.063,0.127-0.102,0.19-0.166l0,0
			c0.064-0.025,0.128-0.063,0.191-0.089c0.064-0.063,0.127-0.095,0.179-0.127l0.19-0.128l0.229-0.095l0,0
			c0.063-0.032,0.128-0.095,0.191-0.121c0.051-0.038,0.153-0.064,0.217-0.102c0.063-0.025,0.127-0.063,0.19-0.089
			c0.09-0.038,0.153-0.064,0.217-0.102c0.065-0.025,0.153-0.057,0.217-0.057l0,0c0.065-0.032,0.166-0.064,0.229-0.096
			c0.064-0.032,0.153-0.063,0.217-0.063c0.064-0.032,0.165-0.064,0.23-0.064c0.051-0.032,0.152-0.064,0.217-0.064
			c0.063-0.032,0.152-0.064,0.216-0.064c0.103-0.025,0.166-0.025,0.229-0.063c0.09,0,0.153-0.025,0.242-0.025
			c0.063-0.039,0.166-0.039,0.229-0.064c0.089,0,0.153,0,0.255-0.039c0.051,0,0.152,0,0.217-0.025c0.089,0,0.152,0,0.254,0
			c0.064-0.038,0.153-0.038,0.217-0.038c0.102,0,0.153,0,0.255,0c0.089,0,0.153,0,0.255,0l18.246-0.121l-0.039-1.765
			c-0.025-2.121,1.617-3.886,3.631-3.924l3.606-0.057c1.008,0,1.924,0.376,2.65,1.076c0.727,0.727,1.109,1.669,1.135,2.714
			l0.037,1.893L654.415,110.616z"/>
		<path style="fill-rule:evenodd;clip-rule:evenodd;fill:#6CB6B5;" d="M674.967,245.749l-91.047-13.035
			c-11.811-1.708-19.966-12.818-18.259-24.82l24.884,3.536c3.287,4.071,8.014,6.912,13.543,7.702l70.79,10.142L674.967,245.749z
			 M674.751,207.042l-52.354-7.48l13.137-91.723l18.245-0.089l-13.544,94.367L674.751,207.042z"/>
		<path style="fill-rule:evenodd;clip-rule:evenodd;fill:#3B3D40;" d="M674.751,207.042l-34.517-4.925l13.544-94.367l10.04-0.039
			c0.51,0,1.045,0.039,1.555,0.096c1.389,0.191,2.676,0.669,3.848,1.357l-11.148,77.765l16.576,2.402L674.751,207.042z"/>
		<path style="fill-rule:evenodd;clip-rule:evenodd;fill:#3B3D40;" d="M674.878,229.275l-70.79-10.142
			c-5.529-0.79-10.256-3.631-13.543-7.702c-3.734-4.581-5.619-10.734-4.701-17.111l36.553,5.243l52.354,7.48L674.878,229.275z"/>
		<path style="fill-rule:evenodd;clip-rule:evenodd;fill:#72C3C3;" d="M674.648,189.331l-16.576-2.402l11.148-77.765
			c3.007,1.803,5.059,5.058,5.059,8.778L674.648,189.331z"/>
		<path style="fill-rule:evenodd;clip-rule:evenodd;fill:#FFFFFF;" d="M684.981,276.035c0.025,5.682-4.612,10.32-10.358,10.352
			l-123.856,0.663c-5.746,0-10.46-4.581-10.485-10.263l-0.893-166.986c-0.025-5.683,4.612-10.326,10.358-10.358l123.869-0.662
			c5.771-0.032,10.448,4.548,10.474,10.256L684.981,276.035z"/>
		<path style="fill-rule:evenodd;clip-rule:evenodd;fill:#E43A29;" d="M684.28,145.629l-0.19-36.592
			c-0.025-5.708-4.702-10.289-10.474-10.256l-123.869,0.662c-5.746,0.032-10.384,4.676-10.358,10.358l0.191,36.592L684.28,145.629z"
			/>
		<polygon style="fill-rule:evenodd;clip-rule:evenodd;fill:#BB2B25;" points="539.517,134.391 539.58,146.393 684.28,145.629 
			684.217,133.639 		"/>
		<path style="fill-rule:evenodd;clip-rule:evenodd;fill:#606060;" d="M577.6,174.048c0,0,2.905-0.822,8.078-0.822
			c5.084,0,8.217,0.822,8.217,0.822l-0.063,60.782c0,0-2.906,0.79-8.117,0.79c-4.994,0-8.307-0.828-8.307-0.828l0.025-35.293
			c0-3.287,0.128-6.218,0.357-8.587c-4.397,2.994-9.48,4.829-14.461,5.81c-3.122-2.37-4.867-6.728-4.269-11.212
			C567.585,183.33,573.025,179.858,577.6,174.048L577.6,174.048z"/>
		<path style="fill-rule:evenodd;clip-rule:evenodd;fill:#606060;" d="M642.044,219.452c0-5.116-6.536-7.48-13.582-10.321
			c-3.033,1.924-6.881,5.173-6.881,10.193c0,4.39,3.632,7.046,10.474,7.046C638.183,226.37,642.044,223.745,642.044,219.452
			L642.044,219.452z M623.913,188.318c-0.025,4.549,5.364,6.849,11.81,9.41c2.498-1.924,4.893-4.638,4.893-8.741
			c0.039-4.293-2.994-6.574-8.485-6.574C626.817,182.387,623.913,184.693,623.913,188.318L623.913,188.318z M606.203,220.05
			c0-7.925,6.153-12.85,12.065-15.786c-5.721-3.186-10.078-7.766-10.04-15.404c0-9.951,8.74-16.513,23.801-16.487
			c14.334,0,23.138,5.683,23.138,15.538c0,7.008-4.383,11.492-8.932,14.398c6.536,3.472,12.027,8.301,12.027,16.889
			c-0.025,11.212-9.785,17.773-26.615,17.748C616.052,236.945,606.203,231.103,606.203,220.05L606.203,220.05z"/>
		<path style="fill-rule:evenodd;clip-rule:evenodd;fill:#FEFEFE;" d="M583.729,120.28c0.191-0.566,0.344-1.14,0.432-1.765
			c0.166-1.172,0.039-2.344-0.305-3.414c-0.917-2.81-3.351-4.957-6.447-5.364c-0.637-0.102-1.235-0.102-1.834-0.038
			c-1.797,0.191-3.44,0.981-4.664,2.217c-1.235,1.198-2.063,2.777-2.28,4.574c-0.573,4.294,2.434,8.205,6.727,8.778
			C579.053,125.74,582.454,123.593,583.729,120.28L583.729,120.28z"/>
		<path style="fill-rule:evenodd;clip-rule:evenodd;fill:#FEFEFE;" d="M577.88,94.358l-3.95,0.064
			c-1.631,0.032-2.93,1.389-2.904,2.994l0.293,16.513c0.025,1.644,1.351,2.943,2.969,2.905l3.975-0.057
			c1.606-0.032,2.905-1.357,2.867-3.001l-0.242-16.513C580.849,95.62,579.523,94.327,577.88,94.358L577.88,94.358z"/>
		<path style="fill-rule:evenodd;clip-rule:evenodd;fill:#606060;" d="M573.153,95.779c-0.166,0.096-0.319,0.223-0.446,0.351
			c-0.344,0.344-0.51,0.79-0.51,1.261l0.28,16.538c0,0.478,0.191,0.918,0.548,1.236c0.344,0.344,0.79,0.51,1.262,0.51l3.938-0.063
			c0.483,0,0.917-0.191,1.273-0.542c0.306-0.35,0.497-0.783,0.497-1.261l-0.28-16.544c0-0.472-0.191-0.917-0.535-1.236
			c-0.357-0.344-0.79-0.496-1.262-0.496l0,0l-3.988,0.057C573.65,95.588,573.394,95.652,573.153,95.779L573.153,95.779z
			 M580.123,117.471c-0.562,0.28-1.198,0.44-1.835,0.44l-3.976,0.095c-1.108,0-2.141-0.407-2.905-1.172
			c-0.79-0.752-1.223-1.765-1.261-2.866l-0.281-16.551c-0.037-2.236,1.771-4.102,4.039-4.128l3.976-0.064
			c1.07-0.038,2.115,0.376,2.905,1.134c0.79,0.758,1.236,1.771,1.236,2.874l0.279,16.544c0.039,1.07-0.382,2.115-1.134,2.905
			C580.849,117,580.505,117.248,580.123,117.471L580.123,117.471z"/>
		<path style="fill-rule:evenodd;clip-rule:evenodd;fill:#FEFEFE;" d="M652.81,118.389c0.179-0.573,0.345-1.141,0.434-1.771
			c0.127-1.198,0.038-2.332-0.318-3.415c-0.904-2.803-3.338-4.957-6.435-5.364c-0.637-0.089-1.235-0.089-1.835-0.032
			c-1.796,0.191-3.44,0.981-4.701,2.211c-1.197,1.172-2.025,2.752-2.268,4.58c-0.574,4.262,2.459,8.211,6.752,8.771
			C648.134,123.848,651.536,121.701,652.81,118.389L652.81,118.389z"/>
		<path style="fill-rule:evenodd;clip-rule:evenodd;fill:#FEFEFE;" d="M646.962,92.46l-3.976,0.064
			c-1.605,0.039-2.905,1.363-2.879,3.007l0.293,16.512c0,1.637,1.351,2.93,2.969,2.899l3.975-0.058
			c1.605-0.038,2.905-1.389,2.867-3.007l-0.28-16.513C649.931,93.722,648.567,92.435,646.962,92.46L646.962,92.46z"/>
		<path style="fill-rule:evenodd;clip-rule:evenodd;fill:#606060;" d="M642.222,93.887c-0.152,0.089-0.306,0.217-0.433,0.344
			c-0.357,0.344-0.535,0.79-0.51,1.261l0.255,16.551c0.025,0.471,0.217,0.911,0.535,1.223c0.344,0.351,0.828,0.51,1.262,0.51
			l3.975-0.063c0.484,0,0.918-0.217,1.262-0.535c0.318-0.351,0.51-0.79,0.484-1.262l-0.255-16.551
			c-0.038-0.472-0.229-0.911-0.535-1.229c-0.356-0.35-0.79-0.503-1.262-0.503l0,0l-3.988,0.063
			C642.731,93.696,642.477,93.76,642.222,93.887L642.222,93.887z M649.179,115.573c-0.535,0.287-1.172,0.446-1.835,0.446
			l-3.949,0.064c-1.108,0.025-2.141-0.382-2.931-1.14c-0.79-0.758-1.236-1.797-1.236-2.873l-0.28-16.538
			c-0.038-2.243,1.772-4.109,4.039-4.173l3.95-0.064c1.096,0,2.141,0.414,2.931,1.166c0.79,0.765,1.235,1.771,1.235,2.88
			l0.28,16.513c0,1.102-0.382,2.141-1.172,2.931C649.931,115.102,649.548,115.356,649.179,115.573L649.179,115.573z"/>
		<path style="fill-rule:evenodd;clip-rule:evenodd;fill:#E5E6E7;" d="M540.217,265.358l0.065,11.429
			c0.025,5.683,4.739,10.263,10.485,10.263l123.856-0.663c5.746-0.032,10.384-4.67,10.358-10.352l-0.063-11.435L540.217,265.358z"/>
		<path style="fill-rule:evenodd;clip-rule:evenodd;fill:#D3CDBD;" d="M117.895,325.343l1.229-8.772
			c0.128-1.039,1.829-1.013,2.682-0.376l10.358,7.797l3.313-4.517l8.434,6.25l11.869-4.294l5.243,3.886
			c1.198-1.108,3.058-1.236,4.383-0.223l96.998,73.128c1.51,1.134,1.797,3.274,0.695,4.766l-1.516,1.987l8.173,6.128
			c0.694,0.561,0.854,1.606,0.319,2.332l-19.195,25.451c-0.541,0.72-1.58,0.847-2.306,0.312l-8.148-6.153l-1.669,2.178l0,0
			l-0.032,0.09l0,0l-0.064,0.064l0,0l-0.063,0.064l0,0l-0.063,0.064l0,0l-0.032,0.064l0,0l-0.063,0.063l0,0l-0.064,0.063l0,0
			l-0.064,0.032l0,0l-0.064,0.063l0,0l-0.063,0.063l0,0l-0.096,0.032l-0.064,0.063l0,0l-0.058,0.032l-0.064,0.058l0,0l-0.063,0.038
			l0,0l-0.096,0.064l0,0l-0.063,0.025l0,0l-0.064,0.038l0,0l-0.064,0.025l-0.096,0.038l0,0l-0.063,0.064l0,0h-0.089v0.025h-0.064
			l-0.064,0.038l-0.095,0.025l0,0l-0.064,0.032l-0.096,0.031l0,0h-0.064l0,0l-0.096,0.032l0,0h-0.095l0,0l-0.064,0.031l0,0h-0.089
			h-0.063l-0.096,0.032l0,0h-0.064h-0.095h-0.096h-0.064l0,0h-0.095h-0.058l0,0h-0.096h-0.096l-0.064-0.032h-0.096l0,0h-0.063
			l-0.096-0.031h-0.063l0,0l-0.096-0.032l0,0l-0.063-0.031h-0.025h-0.064l0,0l-0.095-0.032l-0.064-0.025l0,0l-0.096-0.038l0,0
			l-0.064-0.025l0,0l-0.064-0.039l0,0l-0.096-0.025l-0.063-0.038l0,0l-0.096-0.064l-0.057-0.025l0,0l-0.064-0.038l0,0l-0.096-0.063
			l0,0l-0.063-0.025l0,0l-0.064-0.065l0,0l-0.063-0.031h-0.032l-96.992-73.154l0,0l-0.064-0.038l0,0l-0.032-0.063l0,0l-0.063-0.025
			l0,0l-0.064-0.064l0,0l-0.057-0.032l0,0l-0.038-0.063l0,0l-0.064-0.032l0,0l-0.026-0.064l0,0l-0.063-0.032l0,0l-0.032-0.057l0,0
			l-0.064-0.064l0,0l-0.032-0.038l0,0l-0.032-0.063l0,0l-0.063-0.064l0,0L136.267,362l0,0l-0.032-0.026l0,0l-0.032-0.063l0,0
			l-0.064-0.063l0,0l-0.032-0.064l0,0l-0.032-0.064l0,0l-0.032-0.064l0,0l-0.032-0.064l0,0l-0.032-0.025l0,0l-0.032-0.064l0,0
			l-0.025-0.064l0,0v-0.064l0,0l-0.032-0.064l0,0l-0.031-0.064l0,0l-0.032-0.064l0,0v-0.064l0,0l-0.032-0.063l0,0l-0.032-0.063l0,0
			v-0.064l0,0l-0.032-0.089l0,0v-0.063l0,0l-0.032-0.064l0,0v-0.064l0,0v-0.064l0,0l-0.032-0.063l0,0v-0.064l0,0v-0.064l0,0v-0.064
			l0,0l-0.032-0.064l0,0c0-0.096,0-0.153,0-0.217l0,0v-0.064l0,0v-0.063l0,0v-0.064l0,0l0.032-0.064l0,0v-0.063V359.7v-0.064l0,0
			v-0.063l0,0l0.032-0.064l0,0v-0.064l0,0v-0.057l0,0l0.032-0.064l0,0v-0.064l0,0l0.032-0.064l0,0v-0.063l0,0l0.032-0.096l0,0
			l0.032-0.064l0,0v-0.064l0,0l0.032-0.064l0,0l-4.988-3.694l0.599-12.569l-8.435-6.243l3.383-4.587L117.895,325.343z"/>
		<path style="fill-rule:evenodd;clip-rule:evenodd;fill:#F8BF00;" d="M117.895,315.622l1.262-9.027
			c0.127-1.103,1.892-1.045,2.777-0.414l11.334,8.561l-5.963,7.951L117.895,315.622z"/>
		<polygon style="fill-rule:evenodd;clip-rule:evenodd;fill:#565659;" points="137.057,350.634 131.248,346.379 131.878,333.396 
			123.195,326.961 136.012,309.595 144.727,316.004 156.946,311.583 162.724,315.876 		"/>
		<path style="fill-rule:evenodd;clip-rule:evenodd;fill:#F8BF00;" d="M242.892,423.539l19.793-26.233
			c0.535-0.765,1.612-0.886,2.37-0.351l9.409,7.103c0.727,0.573,0.886,1.643,0.313,2.369l-19.762,26.234
			c-0.567,0.765-1.643,0.918-2.401,0.351l-9.378-7.078C242.478,425.374,242.325,424.298,242.892,423.539L242.892,423.539z"/>
		<path style="fill-rule:evenodd;clip-rule:evenodd;fill:#BC5779;" d="M136.898,349.284l25.068-33.254
			c1.172-1.542,3.383-1.828,4.924-0.689l99.993,75.428c1.548,1.134,1.867,3.344,0.695,4.893l-25.068,33.242
			c-1.166,1.555-3.376,1.866-4.924,0.701l-99.993-75.402C136.044,353.036,135.732,350.825,136.898,349.284L136.898,349.284z"/>
		<path style="fill-rule:evenodd;clip-rule:evenodd;fill:#A3516C;" d="M253.091,410.027L149.62,333.618l-0.567-0.439l-12.155,16.105
			c-0.223,0.28-0.376,0.599-0.472,0.879c-0.535,1.42-0.095,3.096,1.166,4.039l99.993,75.402c1.548,1.165,3.759,0.854,4.924-0.701
			l1.708-2.242l11.237-14.895L253.091,410.027z"/>
		<path style="fill-rule:evenodd;clip-rule:evenodd;fill:#D3CDBD;" d="M606.521,452.934c-3.695-2.682-4.828-8.078-2.152-11.811
			l25.736-35.579c3.249-4.478,10.32-4.925,14.805-1.676c4.485,3.224,6.026,9.912,2.816,14.397l-13.2,18.252l-1.771-1.294
			l13.162-18.245c2.535-3.51,1.211-8.816-2.307-11.34c-3.465-2.497-9.186-2.306-11.709,1.173l-25.724,35.611
			c-2,2.714-1.107,6.753,1.63,8.715c2.715,1.988,6.83,1.542,8.817-1.172l23.304-32.268c1.389-1.892,0.943-4.542-0.955-5.905
			c-1.887-1.389-4.574-0.975-5.938,0.949l-22.094,30.599l-1.771-1.3l22.106-30.592c2.077-2.873,6.091-3.536,8.995-1.452
			c2.867,2.083,3.504,6.128,1.414,8.994l-23.291,32.274C615.708,454.959,610.216,455.622,606.521,452.934L606.521,452.934z"/>
		<path style="fill-rule:evenodd;clip-rule:evenodd;fill:#BC5779;" d="M602.445,449.397c-3.848-2.777-4.982-8.364-2.242-12.187
			l26.614-36.816c3.352-4.644,10.678-5.078,15.315-1.739c4.638,3.351,6.256,10.27,2.905,14.876l-13.646,18.883l-1.821-1.332
			l13.607-18.876c2.612-3.6,1.224-9.091-2.37-11.684c-3.631-2.618-9.53-2.427-12.154,1.204l-26.591,36.81
			c-2.051,2.815-1.135,6.982,1.707,9.033c2.816,2.02,7.046,1.605,9.097-1.235l24.119-33.369c1.428-1.963,0.943-4.702-1.006-6.129
			c-1.963-1.414-4.702-0.981-6.129,1.013l-22.857,31.637l-1.836-1.325l22.857-31.668c2.153-2.969,6.319-3.632,9.314-1.484
			c2.969,2.146,3.632,6.313,1.491,9.281l-24.094,33.369C611.911,451.513,606.268,452.176,602.445,449.397L602.445,449.397z"/>
		<path style="fill-rule:evenodd;clip-rule:evenodd;fill:#D3CDBD;" d="M98.599,656.868c0-0.038,0-0.038,0-0.038
			S98.599,656.83,98.599,656.868L98.599,656.868z M121.016,669.718v1.07l-5.051-5.243l-4.67,5.307v-1.325l-1.077,1.262v-9.027
			h-6.568c-2.778,0-5.052-2.242-5.052-5.052V505.44c0-2.777,2.274-5.052,5.052-5.052h15.123v146.594l0,0V500.388H214.6
			c2.777,0,5.02,2.274,5.02,5.052v141.542h-3.001v12.091h-94.495v0.102h98.381v1.261c0,0.689-0.566,1.262-1.261,1.262h-97.12v9.154
			L121.016,669.718z M105.549,646.981c-2.561,0.064-4.645,2.025-4.893,4.517C100.904,649.007,102.988,647.019,105.549,646.981
			L105.549,646.981z M100.624,652.001v2.025l0,0V652.001L100.624,652.001z M100.656,654.562c0.248,2.498,2.332,4.447,4.893,4.511
			C102.988,659.009,100.904,657.06,100.656,654.562L100.656,654.562z M98.599,656.805L98.599,656.805L98.599,656.805L98.599,656.805
			z M98.599,656.773L98.599,656.773L98.599,656.773L98.599,656.773z"/>
		<path style="fill-rule:evenodd;clip-rule:evenodd;fill:#4AC4D2;" d="M84.959,655.919L84.959,655.919L84.959,655.919
			L84.959,655.919z M84.959,655.887c0,0,0,0,0-0.031C84.959,655.887,84.959,655.887,84.959,655.887L84.959,655.887z M84.959,655.856
			c0-0.032,0-0.032,0-0.032S84.959,655.823,84.959,655.856L84.959,655.856z"/>
		<path style="fill-rule:evenodd;clip-rule:evenodd;fill:#0F303F;" d="M87.074,652.95v-2.146c0-2.938,2.401-5.339,5.338-5.339
			h13.894V490.38H90.297c-2.937,0-5.338,2.401-5.338,5.339v160.073c0,2.937,2.401,5.332,5.338,5.332h16.009v-0.058h106.306
			c0.726,0,1.325-0.606,1.325-1.356v-1.326H106.307v-0.102H92.413C89.476,658.282,87.074,655.887,87.074,652.95L87.074,652.95z"/>
		<path style="fill-rule:evenodd;clip-rule:evenodd;fill:#FDC00F;" d="M212.988,645.465V495.719c0-2.938-2.363-5.339-5.332-5.339
			h-101.35v155.085h103.497H212.988z"/>
		<path style="fill-rule:evenodd;clip-rule:evenodd;fill:#FEFEFE;" d="M209.803,645.465H92.444c-2.969,0-5.37,2.401-5.37,5.339
			v2.146c0,2.937,2.401,5.332,5.37,5.332h117.359V645.465z"/>
		<path style="fill-rule:evenodd;clip-rule:evenodd;fill:#FEFEFE;" d="M188.455,569.662c0,2.338-1.924,4.262-4.262,4.262h-53.354
			c-2.338,0-4.262-1.924-4.262-4.262v-29.898c0-2.345,1.924-4.268,4.262-4.268h53.354c2.338,0,4.262,1.924,4.262,4.268V569.662z"/>
		<path style="fill-rule:evenodd;clip-rule:evenodd;fill:#F99D20;" d="M184.193,535.496h-53.354c-2.338,0-4.262,1.924-4.262,4.268
			v2.141c0-2.37,1.924-4.256,4.262-4.256h53.354c2.338,0,4.262,1.886,4.262,4.256v-2.141
			C188.455,537.42,186.531,535.496,184.193,535.496L184.193,535.496z"/>
		<polygon style="fill-rule:evenodd;clip-rule:evenodd;fill:#94ADB1;" points="98.382,651.657 109.843,651.657 109.843,670.731 
			103.81,664.538 98.382,670.731 		"/>
		<polygon style="fill-rule:evenodd;clip-rule:evenodd;fill:#C63A36;" points="97.21,651.593 108.67,651.593 108.67,670.667 
			102.676,664.475 97.21,670.667 		"/>
		<path style="fill-rule:evenodd;clip-rule:evenodd;fill:#D3CDBD;" d="M589.691,717.141c-0.281-0.224-0.943-0.669-1.963-1.294
			c0.383-2.025,0.764-4.293,1.172-6.918c0.152-0.854,0.383-1.542,0.727-2.146c0.152-0.249,0.344-0.439,0.6-0.727
			c0.725-0.758,1.605-1.739,1.541-4.198c0-0.408,0-1.173,0.039-1.962c0.025-1.224,0.063-2.612,0.025-3.377
			c-0.217-3.656-3.467-5.148-5.072-5.396c-6.982-1.452-14.881-2.179-23.303-2.243h-2.025c-3.529,0.032-7.136,0.16-10.83,0.44
			l-0.663,0.038c-8.078,0.56-12.499,0.879-17.774,3.249c-1.235,0.535-2.497,1.165-3.631,1.732c-1.987,1.045-4.867,2.153-6.383,2.497
			c-0.625,0.128-1.262,0.255-1.822,0.383c-0.79,0.152-2.345,0.152-3.16,0c-0.535-0.128-1.172-0.255-1.797-0.383
			c-1.554-0.344-4.421-1.452-6.408-2.497c-1.108-0.567-2.37-1.197-3.567-1.732c-5.313-2.37-9.76-2.689-17.787-3.249l-0.726-0.038
			c-13.188-0.943-25.699-0.345-36.045,1.803c-1.683,0.248-4.932,1.765-5.122,5.434c-0.026,0.249-0.026,0.562-0.026,0.943v0.096
			c0,0.694,0.026,1.548,0.026,2.3c0.038,0.789,0.038,1.554,0.038,1.962c-0.064,2.459,0.841,3.44,1.566,4.229
			c0.23,0.256,0.421,0.446,0.574,0.695c0.344,0.604,0.599,1.293,0.727,2.146c0.407,2.497,0.789,4.676,1.133,6.632
			c-1.096,0.631-1.859,1.103-2.14,1.357c-2.307,1.771-3.632,3.224-3.198,5.116c0.445,1.7,3.822,3.752,7.109,1.637
			c1.58,5.435,3.605,7.326,8.308,9.792c3.631,1.893,11.085,3.191,18.563,3.191c5.811,0,14.207-0.764,21.215-4.421
			c10.167-5.307,13.989-23.687,14.181-24.597c0-0.064,0.28-2.274,4.956-2.274h0.28c4.421,0,4.702,2.21,4.739,2.434
			c0.153,0.751,3.976,19.131,14.143,24.438c7.007,3.657,15.403,4.421,21.214,4.421c7.492,0,14.933-1.299,18.565-3.191
			c4.611-2.428,6.662-4.294,8.242-9.473c3.225,1.962,6.537-0.032,6.945-1.733C593.322,720.357,591.996,718.905,589.691,717.141
			L589.691,717.141z M582.772,713.006c-8.116-4.581-21.597-11.493-30.91-14.181c12.257-0.383,22.794-0.694,27.381-0.815
			c0.599,0.535,1.07,1.134,1.517,1.796c1.325,2.052,2.242,6.313,2.242,8.996C583.002,710.037,582.938,711.451,582.772,713.006
			L582.772,713.006z M458.253,698.01c4.612,0.121,15.149,0.433,27.432,0.815c-9.275,2.688-22.756,9.441-30.974,13.926
			c-0.127-1.421-0.191-2.777-0.191-3.949c0.038-2.683,0.918-6.944,2.242-8.996C457.208,699.144,457.68,698.545,458.253,698.01
			L458.253,698.01z M456.138,719.727c7.543-6.186,24.336-18.15,37.981-18.851c2.803-0.152,7.16-0.313,12.436-0.535
			c0.383,0.408,0.599,0.79,0.701,1.045c0.025,0.064,2.65,7.798-5.084,20.807c-3.695,6.186-12.385,9.881-23.24,9.881
			c-5.683,0-11.301-1.102-15.059-2.905C459.795,727.181,457.463,723.581,456.138,719.727L456.138,719.727z M530.903,700.341
			c5.339,0.191,9.696,0.383,12.499,0.535c13.709,0.701,30.438,12.92,37.893,19.138c-1.325,3.759-3.67,7.224-7.644,9.154
			c-3.759,1.803-9.378,2.905-15.061,2.905c-10.855,0-19.545-3.695-23.24-9.881c-7.733-13.009-5.109-20.743-5.02-20.966
			C530.432,701.004,530.585,700.724,530.903,700.341L530.903,700.341z"/>
		<path style="fill-rule:evenodd;clip-rule:evenodd;fill:#009BCA;" d="M579.014,717.141c-1.987-1.548-24.271-14.397-37.854-18.315
			c16.486-0.504,29.84-0.879,29.84-0.879v-6.601c0-0.19-35.777,4.135-62.636,6.377c-26.808-2.338-63.184-6.567-63.247-6.377v6.601
			c0,0,13.391,0.375,29.865,0.879c-13.57,3.918-36.084,16.544-38.071,18.092c-2.306,1.771-3.631,3.224-3.159,5.116
			c0.445,1.892,4.611,4.229,8.18,0.758c3.593-3.472,24.871-21.062,41.485-21.915c4.765-0.255,13.951-0.599,24.654-0.98
			c10.702,0.382,19.889,0.726,24.667,0.98c16.602,0.854,37.662,18.666,41.256,22.132c3.567,3.446,7.708,1.14,8.18-0.752
			C582.646,720.357,581.32,718.905,579.014,717.141L579.014,717.141z"/>
		<path style="fill-rule:evenodd;clip-rule:evenodd;fill:#808184;" d="M435.038,701.857c-0.051,2.459,0.854,3.44,1.58,4.229
			c0.229,0.256,0.446,0.446,0.573,0.695c0.344,0.604,0.6,1.293,0.727,2.146c2.994,18.093,3.656,20.552,11.237,24.533
			c3.632,1.893,11.085,3.191,18.539,3.191c5.81,0,14.232-0.764,21.214-4.421c10.193-5.307,13.99-23.687,14.181-24.597
			c0-0.064,0.306-2.274,4.956-2.274h0.281c4.421,0,4.739,2.21,4.765,2.434c0.166,0.751,3.95,19.131,14.143,24.438
			c6.982,3.657,15.379,4.421,21.227,4.421c7.44,0,14.895-1.299,18.525-3.191c7.581-3.981,8.243-6.473,11.238-24.533
			c0.127-0.854,0.382-1.542,0.7-2.146c0.153-0.249,0.382-0.439,0.599-0.727c0.727-0.758,1.606-1.739,1.58-4.198
			c-0.038-0.408,0-1.173,0.025-1.962c0-1.224,0.038-2.612,0-3.377c-0.217-3.656-3.466-5.148-5.084-5.396
			c-6.969-1.452-14.869-2.179-23.291-2.243h-1.987c-3.542,0.032-7.173,0.16-10.83,0.44l-0.7,0.038
			c-8.053,0.56-12.475,0.879-17.774,3.249c-1.235,0.535-2.497,1.165-3.606,1.732c-1.987,1.045-4.854,2.153-6.409,2.497
			c-0.624,0.128-1.223,0.255-1.797,0.383c-0.815,0.152-2.369,0.152-3.159,0c-0.56-0.128-1.198-0.255-1.797-0.383
			c-1.542-0.344-4.421-1.452-6.409-2.497c-1.108-0.567-2.395-1.197-3.593-1.732c-5.313-2.37-9.733-2.689-17.786-3.249l-0.689-0.038
			c-13.226-0.943-25.737-0.345-36.083,1.803c-1.682,0.248-4.905,1.765-5.122,5.434c-0.025,0.249-0.025,0.562-0.025,0.943v0.096
			c0,0.694,0.025,1.548,0.025,2.3C435.038,700.685,435.076,701.449,435.038,701.857L435.038,701.857z M519.627,701.227
			c0.51-1.268,3.733-5.46,23.648-6.632c3.477-0.217,6.472-0.318,9.059-0.318c11.747,0,15.481,2.115,17.723,5.529
			c1.325,2.052,2.242,6.313,2.242,8.996c0.026,5.905-1.172,16.423-9.352,20.366c-3.759,1.803-9.377,2.905-15.021,2.905
			c-10.894,0-19.584-3.695-23.278-9.881C516.913,709.184,519.538,701.449,519.627,701.227L519.627,701.227z M446.098,699.806
			c2.204-3.414,5.963-5.529,17.711-5.529c2.586,0,5.555,0.102,9.059,0.318c19.927,1.172,23.112,5.364,23.685,6.791
			c0.025,0.064,2.65,7.798-5.084,20.807c-3.669,6.186-12.384,9.881-23.239,9.881c-5.683,0-11.302-1.102-15.035-2.905
			c-8.205-3.943-9.377-14.461-9.339-20.366C443.855,706.119,444.734,701.857,446.098,699.806L446.098,699.806z"/>
		<path style="fill-rule:evenodd;clip-rule:evenodd;fill:#D3CDBD;" d="M375.215,666.398l-14.366,16.64l0,0l0,0l-6.192,10.423
			l-3.663,6.728l5.938-4.74l0,0l0,0l9.346-7.733l16.544-19.138l11.148,20.902l211.506-112.778l0,0l0.6-0.318h-0.025l13.76-7.326
			l-74.255-139.262l-0.063-0.127l-0.065-0.102l-0.535-1.07l-0.038,0.031l-11.429-21.469l-24.157,12.913l-3.376-6.314l-0.625-1.203
			l0,0l-9.734-18.246L269.667,514.664l9.913,18.564l0.503,0.975l0,0l46.569,87.302l-20.679,17.869l-13.353,18.596l20.361-10.48
			l18.85-16.264l24.214,45.403L375.215,666.398z M494.502,408.263c0.942,1.797,0.242,4.039-1.555,4.981
			c-1.797,0.981-4.039,0.287-4.983-1.541c-0.955-1.803-0.254-4.046,1.542-4.995C491.304,405.766,493.546,406.46,494.502,408.263
			L494.502,408.263z M296.533,512.734c0.949,1.803,0.255,4.045-1.548,4.988c-1.796,0.949-4.039,0.255-4.988-1.542
			c-0.975-1.803-0.28-4.045,1.548-4.994C293.341,510.205,295.583,510.906,296.533,512.734L296.533,512.734z M314.529,503.235
			c0.949,1.797,0.255,4.039-1.548,4.982c-1.797,0.949-4.039,0.255-4.988-1.542c-0.975-1.803-0.28-4.045,1.548-4.994
			C311.344,500.738,313.58,501.433,314.529,503.235L314.529,503.235z M332.526,493.73c0.949,1.797,0.255,4.039-1.548,4.982
			c-1.796,0.98-4.039,0.286-4.988-1.542c-0.949-1.803-0.28-4.039,1.548-4.995C329.341,491.233,331.577,491.928,332.526,493.73
			L332.526,493.73z M350.522,484.226c0.949,1.797,0.255,4.039-1.548,5.021c-1.796,0.942-4.039,0.255-4.988-1.549
			c-0.949-1.828-0.28-4.07,1.548-5.02C347.337,481.728,349.573,482.423,350.522,484.226L350.522,484.226z M368.52,474.721
			c0.949,1.835,0.255,4.077-1.548,5.021c-1.796,0.942-4.039,0.255-4.988-1.548c-0.949-1.804-0.287-4.046,1.548-5.02
			C365.328,472.224,367.57,472.924,368.52,474.721L368.52,474.721z M386.517,465.248c0.949,1.803,0.255,4.045-1.548,4.988
			c-1.797,0.949-4.039,0.254-4.988-1.542c-0.949-1.803-0.28-4.046,1.548-4.995C383.331,462.757,385.567,463.42,386.517,465.248
			L386.517,465.248z M404.514,455.749c0.949,1.797,0.255,4.039-1.548,4.982c-1.797,0.949-4.039,0.287-4.988-1.541
			c-0.949-1.803-0.287-4.045,1.548-4.994C401.322,453.252,403.564,453.946,404.514,455.749L404.514,455.749z M422.514,446.244
			c0.943,1.797,0.255,4.039-1.555,4.982c-1.796,0.98-4.039,0.286-4.982-1.517c-0.956-1.828-0.293-4.064,1.542-5.02
			C419.315,443.747,421.559,444.441,422.514,446.244L422.514,446.244z M440.504,436.739c0.956,1.835,0.256,4.039-1.541,5.021
			c-1.797,0.942-4.039,0.254-4.995-1.549c-0.942-1.828-0.255-4.045,1.555-5.02C437.319,434.242,439.561,434.936,440.504,436.739
			L440.504,436.739z M458.508,427.267c0.942,1.803,0.255,4.045-1.555,4.987c-1.797,0.943-4.039,0.256-4.981-1.548
			c-0.956-1.803-0.255-4.045,1.542-4.987C455.31,424.737,457.552,425.438,458.508,427.267L458.508,427.267z M476.498,417.762
			c0.943,1.803,0.255,4.045-1.541,4.988c-1.797,0.949-4.039,0.254-4.995-1.542c-0.942-1.803-0.255-4.046,1.555-4.995
			C473.313,415.271,475.556,415.959,476.498,417.762L476.498,417.762z M532.42,421.105c0.942,1.835,0.254,4.046-1.555,5.021
			c-1.797,0.949-4.039,0.255-5.021-1.542c-0.942-1.834-0.242-4.039,1.555-5.02C529.222,418.615,531.464,419.31,532.42,421.105
			L532.42,421.105z"/>
		<path style="fill-rule:evenodd;clip-rule:evenodd;fill:#EEF2F7;" d="M301.393,511.154l90.526,169.801l236.76-126.258
			l-90.552-169.802L301.393,511.154z M537.057,399.637c1.007,1.898,0.281,4.23-1.604,5.243c-1.898,0.975-4.23,0.249-5.25-1.638
			c-1.007-1.898-0.28-4.236,1.618-5.249C533.706,397.019,536.076,397.745,537.057,399.637L537.057,399.637z M329.557,509.135
			c0.981,1.898,0.255,4.23-1.637,5.243c-1.898,1.013-4.236,0.286-5.243-1.612c-0.981-1.898-0.255-4.262,1.643-5.236
			C326.213,506.51,328.551,507.236,329.557,509.135L329.557,509.135z M348.408,499.19c1.013,1.892,0.287,4.229-1.612,5.243
			c-1.892,0.98-4.23,0.255-5.243-1.644c-1.006-1.898-0.28-4.23,1.612-5.243C345.063,496.572,347.395,497.299,348.408,499.19
			L348.408,499.19z M367.29,489.207c0.975,1.898,0.249,4.269-1.644,5.25c-1.892,1.007-4.23,0.28-5.243-1.618
			c-0.975-1.886-0.248-4.229,1.644-5.236C363.939,486.596,366.277,487.322,367.29,489.207L367.29,489.207z M386.135,479.27
			c1.013,1.893,0.286,4.23-1.605,5.236c-1.898,1.014-4.23,0.287-5.243-1.605c-1.013-1.898-0.287-4.268,1.612-5.242
			C382.79,476.645,385.16,477.371,386.135,479.27L386.135,479.27z M405.017,469.318c0.981,1.898,0.255,4.23-1.637,5.243
			c-1.898,0.982-4.236,0.255-5.243-1.638c-0.981-1.898-0.255-4.229,1.644-5.249C401.672,466.7,404.01,467.427,405.017,469.318
			L405.017,469.318z M423.864,459.342c1.02,1.924,0.293,4.269-1.605,5.243c-1.898,1.013-4.229,0.287-5.236-1.611
			c-1.02-1.893-0.293-4.23,1.605-5.237C420.526,456.756,422.883,457.45,423.864,459.342L423.864,459.342z M442.747,449.397
			c0.98,1.893,0.255,4.263-1.644,5.243c-1.886,1.007-4.23,0.28-5.237-1.611c-0.98-1.893-0.255-4.23,1.644-5.243
			C439.396,446.779,441.74,447.506,442.747,449.397L442.747,449.397z M461.603,439.453c1.007,1.898,0.28,4.23-1.618,5.236
			c-1.898,1.02-4.229,0.293-5.236-1.605c-1.02-1.899-0.28-4.262,1.605-5.242C458.253,436.828,460.623,437.555,461.603,439.453
			L461.603,439.453z M480.474,429.509c0.981,1.892,0.255,4.23-1.631,5.243c-1.898,0.975-4.23,0.248-5.249-1.644
			c-0.982-1.898-0.256-4.23,1.643-5.243C477.135,426.891,479.467,427.617,480.474,429.509L480.474,429.509z M499.33,419.525
			c1.007,1.898,0.281,4.269-1.617,5.25c-1.887,1.007-4.23,0.28-5.237-1.618c-1.007-1.886-0.28-4.229,1.618-5.236
			C495.979,416.914,498.35,417.641,499.33,419.525L499.33,419.525z M518.213,409.588c0.981,1.893,0.28,4.23-1.618,5.236
			c-1.924,1.014-4.255,0.287-5.236-1.605c-1.007-1.898-0.28-4.268,1.605-5.242C514.862,406.963,517.193,407.69,518.213,409.588
			L518.213,409.588z"/>
		<polygon style="fill:#DADADA;" points="613.682,562.712 536.369,416.188 536.968,415.869 614.28,562.399 		"/>
		<polygon style="fill:#DADADA;" points="594.711,572.727 517.448,426.254 518.047,425.935 595.31,572.408 		"/>
		<polygon style="fill:#DADADA;" points="575.765,582.729 498.502,436.332 499.102,436.014 576.363,582.416 		"/>
		<polygon style="fill:#DADADA;" points="556.793,592.742 479.595,446.435 480.193,446.117 557.418,592.424 		"/>
		<polygon style="fill:#DADADA;" points="537.848,602.75 460.686,456.501 461.285,456.183 538.446,602.438 		"/>
		<polygon style="fill:#DADADA;" points="518.875,612.758 441.74,466.579 442.364,466.261 519.5,612.44 		"/>
		<polygon style="fill:#DADADA;" points="499.93,622.734 422.832,476.645 423.432,476.326 500.528,622.416 		"/>
		<polygon style="fill:#DADADA;" points="480.983,632.743 403.915,486.717 404.514,486.404 481.582,632.431 		"/>
		<polygon style="fill:#DADADA;" points="462.012,642.751 385,496.789 385.6,496.47 462.61,642.433 		"/>
		<polygon style="fill:#DADADA;" points="443.065,652.766 366.055,506.86 366.653,506.549 443.664,652.447 		"/>
		<polygon style="fill:#DADADA;" points="424.094,662.768 347.146,516.933 347.745,516.614 424.692,662.455 		"/>
		<polygon style="fill:#E43A29;" points="551.391,409.805 314.09,535.025 312.821,532.592 550.13,407.371 		"/>
		<path style="fill-rule:evenodd;clip-rule:evenodd;fill:#FEFEFE;" d="M261.647,497.674l90.551,169.802l236.767-126.259
			L498.413,371.44L261.647,497.674z M497.343,386.157c0.981,1.898,0.242,4.23-1.644,5.243c-1.898,0.975-4.23,0.287-5.249-1.611
			c-0.969-1.924-0.242-4.262,1.644-5.237C493.992,383.532,496.323,384.258,497.343,386.157L497.343,386.157z M289.805,495.654
			c1.013,1.893,0.287,4.23-1.605,5.237c-1.898,1.013-4.262,0.286-5.243-1.605c-1.006-1.898-0.287-4.268,1.612-5.243
			C286.46,493.03,288.798,493.756,289.805,495.654L289.805,495.654z M308.688,485.704c0.98,1.898,0.255,4.229-1.638,5.249
			c-1.898,0.975-4.236,0.248-5.243-1.643c-0.981-1.898-0.255-4.23,1.644-5.243C305.343,483.092,307.681,483.818,308.688,485.704
			L308.688,485.704z M327.538,475.728c1.013,1.898,0.287,4.269-1.612,5.243c-1.892,1.013-4.262,0.286-5.243-1.612
			c-1.006-1.892-0.28-4.229,1.612-5.236C324.193,473.109,326.524,473.836,327.538,475.728L327.538,475.728z M346.42,465.789
			c0.975,1.886,0.255,4.23-1.643,5.236c-1.892,1.007-4.23,0.281-5.243-1.605c-0.975-1.898-0.248-4.236,1.644-5.249
			C343.069,463.164,345.407,463.891,346.42,465.789L346.42,465.789z M365.265,455.838c1.013,1.898,0.286,4.23-1.605,5.243
			c-1.898,1.013-4.262,0.287-5.243-1.611c-1.007-1.892-0.287-4.262,1.612-5.237C361.92,453.22,364.258,453.946,365.265,455.838
			L365.265,455.838z M384.146,445.894c0.981,1.893,0.255,4.23-1.637,5.243c-1.898,0.982-4.236,0.255-5.243-1.643
			c-0.981-1.898-0.255-4.229,1.644-5.236C380.802,443.275,383.141,444.002,384.146,445.894L384.146,445.894z M402.998,435.918
			c1.012,1.892,0.286,4.262-1.612,5.242c-1.892,1.007-4.23,0.281-5.237-1.611c-1.013-1.892-0.287-4.236,1.605-5.243
			C399.653,433.299,401.984,434.025,402.998,435.918L402.998,435.918z M421.877,425.973c0.98,1.893,0.255,4.23-1.644,5.237
			c-1.886,1.013-4.23,0.286-5.237-1.605c-0.98-1.898-0.254-4.269,1.645-5.243C418.525,423.349,420.87,424.074,421.877,425.973
			L421.877,425.973z M440.733,416.022c1.007,1.898,0.28,4.23-1.618,5.249c-1.898,0.975-4.23,0.248-5.236-1.644
			c-1.007-1.898-0.28-4.23,1.605-5.243C437.383,413.404,439.753,414.13,440.733,416.022L440.733,416.022z M459.603,406.046
			c0.981,1.898,0.255,4.269-1.631,5.243c-1.898,1.013-4.243,0.286-5.25-1.612c-0.98-1.892-0.254-4.229,1.645-5.236
			C456.266,403.428,458.597,404.154,459.603,406.046L459.603,406.046z M478.461,396.107c1.006,1.886,0.279,4.23-1.619,5.236
			c-1.885,1.007-4.23,0.281-5.236-1.605c-1.006-1.898-0.28-4.268,1.605-5.25C475.109,393.483,477.479,394.209,478.461,396.107
			L478.461,396.107z"/>
		<polygon style="fill:#DADADA;" points="462.764,608.528 387.147,465.216 387.746,464.897 463.362,608.21 		"/>
		
			<rect x="256.433" y="453" transform="matrix(0.8844 -0.4667 0.4667 0.8844 -166.9038 234.8069)" style="fill:#E43A29;" width="268.31" height="2.714"/>
		<path style="fill:#DADADA;" d="M575.956,548.161l-76.192-144.384l0.611-0.318l76.18,144.358L575.956,548.161z M368.176,658.944
			l0.599-0.311l-75.65-143.369l-0.599,0.312L368.176,658.944z M387.084,648.88l0.599-0.351L312.07,505.185l-0.605,0.318
			L387.084,648.88z M406.029,638.775l0.596-0.318l-75.648-143.338l-0.599,0.313L406.029,638.775z M424.947,628.704l0.599-0.351
			l-75.654-143.313l-0.599,0.318L424.947,628.704z M443.855,618.6l0.599-0.318l-75.648-143.306l-0.599,0.313L443.855,618.6z
			 M481.684,598.426l0.6-0.32l-75.619-143.312l-0.603,0.318L481.684,598.426z M500.592,588.354l0.599-0.313l-75.618-143.313
			l-0.6,0.312L500.592,588.354z M519.5,578.25l0.599-0.313l-75.581-143.288l-0.637,0.319L519.5,578.25z M538.42,568.178l0.6-0.318
			l-75.594-143.275l-0.599,0.313L538.42,568.178z M557.328,558.074l0.6-0.318l-75.581-143.25l-0.599,0.318L557.328,558.074z"/>
		<polygon style="fill-rule:evenodd;clip-rule:evenodd;fill:#D4CECB;" points="389.39,561.259 389.008,566.031 382.446,571.682 
			383.204,561.769 383.898,562.584 385.567,564.547 		"/>
		<polygon style="fill-rule:evenodd;clip-rule:evenodd;fill:#D4CECB;" points="398.958,556.653 399.334,557.131 398.863,557.539 		
			"/>
		<polygon style="fill-rule:evenodd;clip-rule:evenodd;fill:#D4CECB;" points="397.124,554.57 397.538,555.016 397.219,558.928 
			390.651,564.61 391.033,559.845 		"/>
		<path style="fill-rule:evenodd;clip-rule:evenodd;fill:#949291;" d="M398.168,546.422l0.127,0.159l-0.159,0.128L398.168,546.422z
			 M397.538,555.016l1.42,1.638l-0.095,0.886l-1.644,1.389L397.538,555.016z"/>
		<polygon style="fill-rule:evenodd;clip-rule:evenodd;fill:#045362;" points="398.958,545.256 404.195,551.321 408.805,547.371 
			403.564,541.281 		"/>
		<polygon style="fill-rule:evenodd;clip-rule:evenodd;fill:#32AEF8;" points="299.692,628.417 307.05,636.94 405.08,552.391 
			397.754,543.867 		"/>
		<polygon style="fill-rule:evenodd;clip-rule:evenodd;fill:#2C5871;" points="307.05,636.94 285.703,647.898 299.692,628.417 		"/>
		<polygon style="fill-rule:evenodd;clip-rule:evenodd;fill:#045362;" points="396.085,565.305 394.41,563.374 392.767,561.45 
			390.467,558.8 385.191,552.672 372.877,563.31 378.12,569.44 380.42,572.089 382.096,574.019 383.739,575.943 		"/>
		<polygon style="fill-rule:evenodd;clip-rule:evenodd;fill:#14B0BF;" points="369.055,588.512 371.266,591.066 406.791,560.443 
			404.577,557.883 		"/>
		<polygon style="fill-rule:evenodd;clip-rule:evenodd;fill:#E8D6B9;" points="357.218,674.196 350.714,685.128 353.109,687.18 
			362.901,679.089 362.901,679.089 357.218,674.171 		"/>
		<polygon style="fill-rule:evenodd;clip-rule:evenodd;fill:#FC896D;" points="410.55,623.996 435.421,595.24 429.738,590.309 
			357.218,674.196 360.06,676.63 362.901,679.089 		"/>
		<polygon style="fill-rule:evenodd;clip-rule:evenodd;fill:#FC6E4B;" points="407.709,621.537 407.709,621.537 432.579,592.768 
			432.617,592.807 435.421,595.24 410.55,623.996 362.901,679.089 353.109,687.18 351.88,686.135 		"/>
		<polygon style="fill-rule:evenodd;clip-rule:evenodd;fill:#FC896D;" points="432.579,592.768 429.738,590.309 429.61,590.435 
			432.452,592.894 		"/>
		
			<rect x="432.426" y="592.831" transform="matrix(0.7074 -0.7068 0.7068 0.7074 -292.4693 479.1854)" style="fill-rule:evenodd;clip-rule:evenodd;fill:#FC6E4B;" width="0.18" height="0"/>
		<polygon style="fill-rule:evenodd;clip-rule:evenodd;fill:#FC896D;" points="435.268,595.393 435.421,595.24 432.579,592.768 
			432.452,592.894 		"/>
		<polygon style="fill-rule:evenodd;clip-rule:evenodd;fill:#FC6E4B;" points="432.579,592.768 432.617,592.807 435.421,595.24 
			435.268,595.393 432.452,592.894 		"/>
		<polygon style="fill-rule:evenodd;clip-rule:evenodd;fill:#FCEFD2;" points="360.06,676.63 362.901,679.089 362.901,679.089 
			353.109,687.18 351.88,686.135 		"/>
		<polygon style="fill-rule:evenodd;clip-rule:evenodd;" points="350.714,685.128 346.923,692.161 353.109,687.18 		"/>
		<polygon style="fill-rule:evenodd;clip-rule:evenodd;fill:#A6A9AB;" points="351.185,685.536 346.987,692.072 352.071,686.288 		
			"/>
		<path style="fill-rule:evenodd;clip-rule:evenodd;fill:#D75A4A;" d="M434.439,590.652l-1.414-1.223
			c-0.191-0.191-0.408-0.318-0.662-0.383c-0.103-0.063-0.217-0.063-0.345-0.096c-0.599-0.063-1.21,0.129-1.644,0.631l-4.523,5.211
			l2.842,2.459L434.439,590.652z"/>
		<path style="fill-rule:evenodd;clip-rule:evenodd;fill:#B74C44;" d="M431.509,599.75l4.549-5.18
			c0.407-0.504,0.535-1.133,0.407-1.738c-0.025-0.09-0.089-0.217-0.127-0.313c-0.127-0.223-0.28-0.439-0.472-0.6l-1.427-1.268
			l-5.746,6.6L431.509,599.75z"/>
		<polygon style="fill-rule:evenodd;clip-rule:evenodd;fill:#E0E1E2;" points="426.018,600.35 428.693,597.252 425.852,594.793 
			423.176,597.891 425.979,600.324 		"/>
		<polygon style="fill-rule:evenodd;clip-rule:evenodd;fill:#D1D1D1;" points="428.693,597.252 426.018,600.35 426.642,600.922 
			428.82,602.846 431.509,599.75 428.693,597.252 428.693,597.252 		"/>
		<path style="fill-rule:evenodd;clip-rule:evenodd;fill:#D3CDBD;" d="M446.888,271.677l25.036,32.235
			c1.045,1.351,0.79,3.281-0.535,4.319l-8.816,6.823l1.389,1.765l-70.022,54.405l-31.165-40.135l70.035-54.392l0.969,1.261
			l8.778-6.823C443.919,270.098,445.843,270.346,446.888,271.677L446.888,271.677z"/>
		<path style="fill-rule:evenodd;clip-rule:evenodd;fill:#FFFFFF;" d="M442.619,262.899l25.865,33.306
			c1.07,1.363,0.815,3.351-0.574,4.421l-13.161,10.231c-1.389,1.07-3.376,0.815-4.46-0.573l-25.852-33.273
			c-1.07-1.389-0.828-3.383,0.573-4.453l13.162-10.231C439.561,261.255,441.549,261.51,442.619,262.899L442.619,262.899z"/>
		<polygon style="fill-rule:evenodd;clip-rule:evenodd;fill:#2C5871;" points="428.095,268.072 460.266,309.531 387.938,365.669 
			355.766,324.241 		"/>
		<polygon style="fill-rule:evenodd;clip-rule:evenodd;fill:#D3CDBD;" points="727.817,668.138 679.669,665.927 656.313,669.749 
			655.524,664.793 644.528,664.283 646.936,612.503 642.796,587.467 648.096,586.588 648.389,580.995 674.776,582.231 
			725.078,573.956 726.849,584.627 731.678,584.85 730.595,607.61 735.08,634.921 735.08,634.921 735.08,634.921 738.584,656.231 
			728.302,657.938 		"/>
		
			<rect x="641.064" y="582.877" transform="matrix(0.0462 -0.9989 0.9989 0.0462 27.29 1277.715)" style="fill-rule:evenodd;clip-rule:evenodd;fill:#EBC782;" width="83.375" height="83.379"/>
		
			<rect x="643.665" y="580.16" transform="matrix(0.9868 -0.1621 0.1621 0.9868 -91.743 119.329)" style="fill-rule:evenodd;clip-rule:evenodd;fill:#F4CD65;" width="83.385" height="83.382"/>
		<polygon style="fill-rule:evenodd;clip-rule:evenodd;fill:#E7BC69;" points="637.457,587.467 719.739,573.956 721.473,584.627 
			639.202,598.144 		"/>
		<path style="fill-rule:evenodd;clip-rule:evenodd;fill:#FFEABC;" d="M729.754,634.921c-6.893,3.982-13.709,5.874-20.335,3.568
			c4.918,7.638,5.874,14.302,5.021,20.838C719.204,650.931,724.352,642.974,729.754,634.921L729.754,634.921z"/>
	</g>
</g>
<g id="Layer_1">
</g>
</svg>
