<?xml version="1.0" encoding="utf-8"?>
<!-- Generator: Adobe Illustrator 27.5.0, SVG Export Plug-In . SVG Version: 6.00 Build 0)  -->
<svg version="1.1" xmlns="http://www.w3.org/2000/svg" xmlns:xlink="http://www.w3.org/1999/xlink" x="0px" y="0px"
	 viewBox="0 0 290.872 290.872" style="enable-background:new 0 0 290.872 290.872;" xml:space="preserve">
<g id="Layer_1">
	<rect x="0" style="fill:#FFFFFF;" width="290.872" height="290.872"/>
</g>
<g id="Layer_2">
	<g>
		<path style="fill:#3E576D;" d="M41.521,43.95c-0.001,0.512-0.416,0.924-0.927,0.923l0,0c-0.511-0.002-0.924-0.417-0.922-0.927
			l0.008-3.12c0.001-0.51,0.416-0.924,0.927-0.921l0,0c0.511,0.001,0.924,0.416,0.923,0.926L41.521,43.95z"/>
		<path style="fill:#3E576D;" d="M42.493,38.772c0,0.334-0.271,0.605-0.605,0.605h-1.063c-0.333,0-0.605-0.271-0.605-0.605l0,0
			c0-0.334,0.272-0.604,0.605-0.604h1.063C42.222,38.169,42.493,38.438,42.493,38.772L42.493,38.772z"/>
		<path style="fill:#232323;" d="M35.315,54.286c-0.126,0.529-0.659,0.856-1.188,0.731l-0.121-0.029
			c-0.529-0.126-0.856-0.659-0.729-1.189l1.083-4.532c0.126-0.53,0.658-0.857,1.188-0.731l0.121,0.029
			c0.529,0.125,0.856,0.658,0.73,1.188L35.315,54.286z"/>
		<path style="fill:#3E576D;" d="M39.097,48.889c-0.404,1.698-2.109,2.745-3.807,2.339l-0.384-0.091
			c-1.698-0.406-2.746-2.11-2.34-3.808l3.468-14.525c0.406-1.698,2.11-2.745,3.808-2.339l0.385,0.091
			c1.698,0.406,2.746,2.11,2.339,3.808L39.097,48.889z"/>
		<path style="fill:#5CC0D3;" d="M55.086,24.353c-2.795-1.794-7.264-2.955-12.3-2.955c-8.469,0-15.334,3.284-15.334,7.337
			c0,4.052,6.865,7.336,15.334,7.336c5.036,0,9.504-1.161,12.3-2.955V24.353z"/>
		<polygon style="fill:#3E576D;" points="58.689,33.774 55.086,33.117 55.086,24.353 58.689,23.628 		"/>
		<path style="fill:#324F68;" d="M27.452,28.735c0,2.15,1.935,4.085,5.015,5.427c2.375-1.342,3.866-3.277,3.866-5.427
			s-1.49-4.085-3.866-5.426C29.387,24.65,27.452,26.584,27.452,28.735z"/>
		<path style="fill:#4C96A1;" d="M48.097,28.735c0,2.3-8.528,4.164-10.827,4.164c-2.3,0-0.393-1.864-0.393-4.164
			c0-2.299-1.907-4.165,0.393-4.165C39.569,24.57,48.097,26.435,48.097,28.735z"/>
		<path style="fill:#FFFFFF;" d="M46.307,28.701c0,0.481-0.389,0.87-0.87,0.87H38.69c-0.48,0-0.871-0.389-0.871-0.87l0,0
			c0-0.481,0.391-0.871,0.871-0.871h6.747C45.918,27.83,46.307,28.22,46.307,28.701L46.307,28.701z"/>
		<path style="opacity:0.5;fill:#FFFFFF;" d="M38.987,49.451l3.087-12.93c-0.027-0.008-0.054-0.018-0.081-0.025
			c-1.223-0.283-2.886,2.388-3.713,5.967C37.454,46.032,37.772,49.155,38.987,49.451z"/>
		<path style="fill:#232323;" d="M32.356,53.977c-0.828,0-1.5-0.672-1.5-1.499c0-0.827,0.672-1.5,1.5-1.5
			c0.827,0,1.498,0.673,1.498,1.5C33.854,53.305,33.182,53.977,32.356,53.977z M32.356,51.507c-0.536,0-0.971,0.435-0.971,0.971
			c0,0.535,0.435,0.97,0.971,0.97c0.535,0,0.97-0.435,0.97-0.97C33.325,51.942,32.89,51.507,32.356,51.507z"/>
	</g>
	<g>
		<rect x="186.356" y="22.179" style="fill:#A8522B;" width="4.93" height="2.413"/>
		<path style="fill:#F5763D;" d="M175.825,56.43h12.609c3.36-2.104,5.598-5.836,5.598-10.092c0-6.573-5.33-11.902-11.901-11.902
			c-6.573,0-11.903,5.329-11.903,11.902C170.228,50.594,172.465,54.326,175.825,56.43z"/>
		<path style="fill:#FF9B17;" d="M186.985,34.616h-9.732c-1.057,0-1.913,0.856-1.913,1.914h13.557
			C188.897,35.472,188.04,34.616,186.985,34.616z"/>
		<path style="fill:#FF9B17;" d="M186.739,32.862c0,0.97-0.786,1.754-1.754,1.754h-5.731c-0.971,0-1.757-0.785-1.757-1.754l0,0
			c0-0.967,0.786-1.753,1.757-1.753h5.731C185.953,31.109,186.739,31.895,186.739,32.862L186.739,32.862z"/>
		<rect x="179.704" y="25.291" style="fill:#A8522B;" width="4.826" height="5.818"/>
		<path style="fill:#FF9B17;" d="M192.111,21.797c-0.396-0.381-0.934-0.615-1.524-0.615h-1.153v4.409h1.153
			c0.591,0,1.128-0.235,1.524-0.616V21.797z"/>
		<path style="fill:#FF9B17;" d="M188.334,21.663c-1.206-1.171-3.537-1.965-6.215-1.965c-3.919,0-7.094,1.697-7.094,3.791
			c0,2.093,3.175,3.789,7.094,3.789c2.678,0,5.009-0.793,6.215-1.965V21.663z"/>
		<rect x="179.418" y="31.109" style="opacity:0.5;fill:#FFFFFF;" width="0.917" height="3.505"/>
		<rect x="180.911" y="31.109" style="opacity:0.5;fill:#FFFFFF;" width="0.917" height="3.505"/>
		<rect x="182.407" y="31.109" style="opacity:0.5;fill:#FFFFFF;" width="0.917" height="3.505"/>
		<rect x="183.901" y="31.109" style="opacity:0.5;fill:#FFFFFF;" width="0.917" height="3.505"/>
		<path style="fill:#A8522B;" d="M184.978,23.562c0,1.203-0.973,2.178-2.176,2.178c-1.203,0-2.179-0.975-2.179-2.178
			s0.976-2.177,2.179-2.177C184.005,21.384,184.978,22.358,184.978,23.562z"/>
		<path style="fill:#FFB357;" d="M191.659,31.076c0.36,0.377,0.349,0.978-0.028,1.34l0,0c-0.38,0.362-0.979,0.35-1.342-0.029
			l-7.548-7.879c-0.364-0.377-0.352-0.976,0.027-1.339l0,0c0.378-0.362,0.979-0.35,1.34,0.028L191.659,31.076z"/>
		<path style="fill:#EDEDED;" d="M183.803,23.795c0,0.227-0.181,0.409-0.408,0.409c-0.225,0-0.407-0.183-0.407-0.409
			c0-0.226,0.183-0.409,0.407-0.409C183.622,23.386,183.803,23.569,183.803,23.795z"/>
		<rect x="189.434" y="21.51" style="opacity:0.5;fill:#FFFFFF;" width="1.386" height="0.313"/>
		<rect x="189.434" y="22.182" style="opacity:0.5;fill:#FFFFFF;" width="1.386" height="0.313"/>
		<rect x="189.434" y="22.854" style="opacity:0.5;fill:#FFFFFF;" width="1.386" height="0.313"/>
		<rect x="189.434" y="23.525" style="opacity:0.5;fill:#FFFFFF;" width="1.386" height="0.312"/>
		<rect x="189.434" y="24.196" style="opacity:0.5;fill:#FFFFFF;" width="1.386" height="0.313"/>
		<rect x="189.434" y="24.868" style="opacity:0.5;fill:#FFFFFF;" width="1.386" height="0.312"/>
	</g>
	<g>
		<path style="fill:#757575;" d="M119.521,55.156c-1.848,0.142-3.466-1.247-3.606-3.094c-0.142-1.847,1.246-3.465,3.094-3.605
			c1.847-0.142,3.465,1.246,3.605,3.093C122.756,53.396,121.369,55.014,119.521,55.156z M119.047,48.965
			c-1.566,0.12-2.744,1.491-2.624,3.058c0.12,1.566,1.493,2.745,3.059,2.624c1.566-0.12,2.744-1.493,2.623-3.059
			C121.986,50.021,120.614,48.845,119.047,48.965z"/>
		<path style="fill:#757575;" d="M123.884,58.063c-2.672-0.804-3.289-3.331-3.315-3.438l0.497-0.116
			c0.006,0.023,0.583,2.348,2.964,3.065L123.884,58.063z"/>
		<path style="fill:#757575;" d="M124.292,57.818c0.011,0.146-0.098,0.273-0.245,0.285c-0.146,0.011-0.273-0.098-0.284-0.244
			c-0.012-0.146,0.098-0.273,0.244-0.285C124.152,57.563,124.28,57.672,124.292,57.818z"/>
		<path style="fill:#757575;" d="M116.399,52.36c0.015,0.183-0.124,0.343-0.306,0.356l-0.254,0.02
			c-0.184,0.015-0.344-0.124-0.357-0.306l0,0c-0.014-0.184,0.123-0.344,0.307-0.358l0.254-0.02
			C116.226,52.039,116.386,52.176,116.399,52.36L116.399,52.36z"/>
		<g>
			<path style="fill:#757575;" d="M110.348,18.651l1.277,16.669c-0.786,0.06-1.471-0.529-1.531-1.313l-1.058-13.826
				C108.975,19.397,109.563,18.712,110.348,18.651z"/>
			<path style="fill:#757575;" d="M111.087,35.257c-0.23-1.326-0.192-2.215,0.269-3.445c3.645,2.281,7.192,16.928,7.192,16.928
				l-0.833,0.394C117.715,49.134,114.341,36.092,111.087,35.257z"/>
		</g>
		<path style="fill:#A0A0A0;" d="M103.819,54.793c-1.836-0.249-3.128-1.944-2.879-3.78c0.248-1.836,1.944-3.127,3.78-2.879
			c1.837,0.248,3.129,1.944,2.88,3.78C107.351,53.749,105.655,55.041,103.819,54.793z M104.651,48.639
			c-1.558-0.211-2.996,0.885-3.207,2.442c-0.209,1.557,0.885,2.995,2.442,3.206c1.557,0.211,2.996-0.885,3.206-2.443
			C107.304,50.288,106.209,48.851,104.651,48.639z"/>
		<path style="fill:#A0A0A0;" d="M114.194,18.761l-2.24,16.566c0.781,0.106,1.498-0.441,1.604-1.222l1.858-13.741
			C115.522,19.584,114.974,18.867,114.194,18.761z"/>
		<path style="fill:#E0E0E0;" d="M114.193,18.79l-2.242,16.566c0.353,0.048,0.723-0.546,0.829-1.326l1.858-13.741
			C114.746,19.508,114.545,18.838,114.193,18.79z"/>
		<path style="fill:#B5B5B5;" d="M110.355,18.655l1.338,16.664c-0.353,0.028-0.692-0.585-0.755-1.37l-1.109-13.821
			C109.765,19.342,110.001,18.683,110.355,18.655z"/>
		<path style="fill:#A0A0A0;" d="M112.492,35.297c0.306-1.312,0.32-2.202-0.067-3.456c-3.771,2.065-8.162,16.482-8.162,16.482
			l0.808,0.442C105.071,48.766,109.196,35.941,112.492,35.297z"/>
		<g>
			<path style="fill:#E5E5E5;" d="M112.712,33.888c-0.018,0.465-0.409,0.825-0.873,0.806c-0.464-0.019-0.824-0.409-0.805-0.872
				c0.018-0.463,0.409-0.824,0.872-0.806C112.37,33.033,112.731,33.424,112.712,33.888z"/>
			<path style="fill:#595959;" d="M111.836,34.779c-0.509-0.02-0.907-0.452-0.887-0.962c0.02-0.51,0.451-0.907,0.96-0.887
				c0.51,0.02,0.909,0.451,0.888,0.961C112.777,34.401,112.347,34.799,111.836,34.779z M111.903,33.1
				c-0.416-0.017-0.768,0.308-0.784,0.725c-0.017,0.415,0.308,0.768,0.723,0.784c0.417,0.017,0.77-0.308,0.785-0.725
				C112.645,33.468,112.32,33.117,111.903,33.1z"/>
		</g>
		<path style="fill:#FFFFFF;" d="M112.458,33.877c-0.013,0.322-0.285,0.575-0.608,0.562c-0.323-0.013-0.574-0.285-0.561-0.608
			c0.013-0.323,0.285-0.573,0.607-0.561C112.219,33.283,112.47,33.555,112.458,33.877z"/>
		<path style="fill:#A0A0A0;" d="M112.257,33.978c0.042,0.024,0.058,0.077,0.034,0.12l0,0c-0.023,0.042-0.076,0.058-0.119,0.034
			l-0.727-0.397c-0.044-0.024-0.059-0.076-0.035-0.12l0,0c0.023-0.042,0.076-0.058,0.12-0.035L112.257,33.978z"/>
	</g>
	<g>
		<polygon style="fill:#1E1E1E;" points="248.279,26.968 247.883,26.84 250.226,18.19 251.417,18.574 		"/>
		<polygon style="fill:#1E1E1E;" points="249.794,27.456 249.398,27.328 251.743,18.678 252.935,19.062 		"/>
		<polygon style="fill:#1E1E1E;" points="251.312,27.943 250.915,27.815 253.261,19.166 254.451,19.549 		"/>
		<polygon style="fill:#1E1E1E;" points="252.826,28.431 252.431,28.303 254.775,19.654 255.967,20.037 		"/>
		<polygon style="fill:#1E1E1E;" points="254.344,28.919 253.947,28.791 256.292,20.142 257.483,20.525 		"/>
		<polygon style="fill:#1E1E1E;" points="255.861,29.407 255.462,29.279 257.808,20.629 258.999,21.013 		"/>
		<polygon style="fill:#1E1E1E;" points="257.376,29.895 256.98,29.767 259.324,21.117 260.516,21.5 		"/>
		
			<rect x="251.967" y="23.612" transform="matrix(0.3063 -0.9519 0.9519 0.3063 147.784 260.2834)" style="fill:#5CBFD2;" width="1.028" height="10.26"/>
		<path style="fill:#385168;" d="M246.765,27.444c-0.872,3.035,0.816,6.233,3.844,7.208c3.027,0.973,6.264-0.642,7.323-3.615
			L246.765,27.444z"/>
		<polygon style="fill:#385168;" points="243.547,57.625 242.804,57.385 249.879,33.214 251.894,33.862 		"/>
	</g>
	<path style="fill:#3A556F;" d="M41.947,106.793l-0.672-1.026l4.267-2.792l-0.377-0.577l-4.267,2.792l-0.672-1.024l4.268-2.792
		l-0.377-0.577l-4.268,2.791l-0.671-1.025l4.267-2.793l-0.376-0.576l-4.268,2.792l-0.671-1.026l4.267-2.792l-0.376-0.577
		l-4.267,2.792l-0.672-1.025l4.268-2.791l-0.377-0.577l-4.268,2.792l-0.67-1.026l4.267-2.791l-0.377-0.576l-4.267,2.792
		l-0.671-1.026l4.267-2.792l-0.376-0.577l-4.267,2.792l-0.671-1.024l4.268-2.792l-0.377-0.577l-4.268,2.792l-0.67-1.026l4.267-2.79
		l-0.376-0.577l-4.268,2.792l-0.67-1.026l4.267-2.792l-0.42-0.641l-3.484,2.282c-1.415,0.925-1.811,2.823-0.887,4.24l23.594,36.057
		l0.414-0.272l-12.189-20.028c-0.926-1.417-0.53-3.314,0.887-4.24l2.429-1.591l-0.237-0.363L41.947,106.793z"/>
	<g>
		<path style="fill:#58BECD;" d="M187.044,88.733h-9.826c-0.621,0-1.125,0.504-1.125,1.126v10.252h12.074V89.859
			C188.167,89.238,187.665,88.733,187.044,88.733z"/>
		<path style="fill:#FFFFFF;" d="M187.074,100.89c0,2.729-2.214,4.941-4.94,4.941c-2.73,0-4.941-2.212-4.941-4.941
			c0-2.729,2.211-4.941,4.941-4.941C184.86,95.949,187.074,98.162,187.074,100.89z"/>
		<path style="fill:#4C96A1;" d="M188.167,130.767c0,0.623-0.502,1.126-1.123,1.126h-9.826c-0.621,0-1.125-0.503-1.125-1.126
			v-29.972c0-0.62,0.504-1.124,1.125-1.124h9.826c0.621,0,1.123,0.504,1.123,1.124V130.767z"/>
		<path style="fill:#FFFFFF;" d="M187.044,99.211c0,0.254-0.206,0.46-0.462,0.46h-8.93c-0.256,0-0.46-0.206-0.46-0.46l0,0
			c0-0.253,0.204-0.459,0.46-0.459h8.93C186.838,98.752,187.044,98.957,187.044,99.211L187.044,99.211z"/>
		<rect x="177.652" y="98.629" style="fill:#71BFFF;" width="8.876" height="0.122"/>
		<g>
			<rect x="180.318" y="91.699" style="fill:#E53030;" width="3.541" height="4.498"/>
			<g>
				<rect x="180.487" y="91.699" style="fill:#930000;" width="0.544" height="4.498"/>
				<rect x="181.374" y="91.699" style="fill:#930000;" width="0.544" height="4.498"/>
				<rect x="182.26" y="91.699" style="fill:#930000;" width="0.544" height="4.498"/>
				<rect x="183.148" y="91.699" style="fill:#930000;" width="0.544" height="4.498"/>
			</g>
			<path style="fill:#CCCCCC;" d="M183.018,93.948c0,0.512-0.415,0.927-0.929,0.927c-0.514,0-0.929-0.415-0.929-0.927
				c0-0.513,0.415-0.928,0.929-0.928C182.603,93.02,183.018,93.435,183.018,93.948z"/>
			<path style="fill:#FFFFFF;" d="M182.561,93.948c0,0.261-0.211,0.472-0.472,0.472c-0.261,0-0.472-0.211-0.472-0.472
				c0-0.261,0.211-0.473,0.472-0.473C182.35,93.475,182.561,93.687,182.561,93.948z"/>
		</g>
		<path style="fill:#FFFFFF;" d="M185.503,127.682c0,0.62-0.502,1.124-1.123,1.124h-4.5c-0.619,0-1.123-0.504-1.123-1.124v-22.645
			c0-0.622,0.504-1.125,1.123-1.125h4.5c0.621,0,1.123,0.503,1.123,1.125V127.682z"/>
	</g>
	<g>
		<path style="fill:#4C96A1;" d="M100.156,129.29h13.799c3.676-2.302,6.123-6.387,6.123-11.044c0-7.192-5.831-13.023-13.023-13.023
			c-7.192,0-13.023,5.83-13.023,13.023C94.032,122.903,96.479,126.988,100.156,129.29z"/>
		<path style="fill:#85D0E8;" d="M112.097,104.207c0,1.06-0.858,1.92-1.918,1.92h-6.273c-1.06,0-1.918-0.859-1.918-1.92l0,0
			c0-1.06,0.858-1.918,1.918-1.918h6.273C111.238,102.289,112.097,103.147,112.097,104.207L112.097,104.207z"/>
		<rect x="104.402" y="92.424" style="fill:#4C96A1;" width="5.281" height="9.865"/>
		<path style="fill:#85D0E8;" d="M110.299,92.38c0,0.488-0.395,0.882-0.881,0.882h-4.764c-0.488,0-0.882-0.394-0.882-0.882l0,0
			c0-0.486,0.394-0.882,0.882-0.882h4.764C109.904,91.498,110.299,91.894,110.299,92.38L110.299,92.38z"/>
		<path style="fill:#4C96A1;" d="M115.361,97.826c0,0.488-0.396,0.882-0.882,0.882h-4.764c-0.488,0-0.881-0.394-0.881-0.882l0,0
			c0-0.488,0.394-0.882,0.881-0.882h4.764C114.966,96.944,115.361,97.338,115.361,97.826L115.361,97.826z"/>
		<path style="fill:#85D0E8;" d="M110.826,97.826c0,2.082-1.688,3.77-3.771,3.77c-2.082,0-3.77-1.687-3.77-3.77
			c0-2.083,1.687-3.77,3.77-3.77C109.137,94.057,110.826,95.744,110.826,97.826z"/>
		
			<ellipse transform="matrix(0.9247 -0.3807 0.3807 0.9247 -28.019 53.9812)" style="fill:#85D0E8;" cx="122.462" cy="97.826" rx="8.707" ry="8.707"/>
		<path style="fill:#FFFFFF;" d="M115.332,118.17c0,2.452-1.989,4.439-4.44,4.439h-7.673c-2.452,0-4.439-1.988-4.439-4.439l0,0
			c0-2.452,1.988-4.438,4.439-4.438h7.673C113.343,113.732,115.332,115.719,115.332,118.17L115.332,118.17z"/>
	</g>
	<g>
		<path style="fill:#FF9B17;" d="M190.566,265.576c0,2.721-2.204,4.927-4.927,4.927h-7.02c-2.72,0-4.924-2.206-4.924-4.927v-26.588
			c0-2.72,2.204-4.927,4.924-4.927h7.02c2.723,0,4.927,2.207,4.927,4.927V265.576z"/>
		<path style="fill:#FF9B17;" d="M186.04,234.061v-0.919c0-1.452-1.177-2.629-2.629-2.629h-2.563c-1.452,0-2.627,1.177-2.627,2.629
			v0.919H186.04z"/>
		<rect x="178.222" y="232.967" style="fill:#C66C00;" width="7.818" height="1.095"/>
		<rect x="180.543" y="229.128" style="fill:#562D00;" width="3.173" height="1.386"/>
		<path style="fill:#F7753F;" d="M185.106,229.791v-0.701c0-1.104-0.896-2-2-2h-1.951c-1.107,0-2.002,0.896-2.002,2v0.701H185.106z"
			/>
		<rect x="175.481" y="243.21" style="fill:#FFFFFF;" width="13.299" height="19.7"/>
	</g>
	<g>
		
			<rect x="64.061" y="194.958" transform="matrix(0.5029 -0.8643 0.8643 0.5029 -138.0871 153.4023)" style="fill:#10101E;" width="0.52" height="3.587"/>
		<path style="fill:#24233D;" d="M63.452,196.258c-0.203,0.349-0.65,0.466-0.998,0.265l-2.556-1.489
			c-0.348-0.204-0.467-0.649-0.264-0.999l0,0c0.203-0.347,0.65-0.467,0.998-0.263l2.556,1.489
			C63.536,195.463,63.654,195.908,63.452,196.258L63.452,196.258z"/>
		<path style="fill:#3B556D;" d="M57.819,195.811l-36.403-15.294c-1.061-0.445-1.56-1.667-1.115-2.729l0.259-0.614l40.249,16.91
			l-0.259,0.614C60.103,195.761,58.881,196.26,57.819,195.811z"/>
		<path style="fill:#3B556D;" d="M60.388,191.398l-31.279-24.098c-0.913-0.703-2.222-0.532-2.924,0.38l-0.408,0.528l34.584,26.643
			l0.407-0.529C61.47,193.41,61.301,192.102,60.388,191.398z"/>
		<path style="fill:#72728E;" d="M60.455,194.394c-0.603,1.034-1.93,1.386-2.965,0.783c-1.035-0.604-1.386-1.931-0.783-2.967
			c0.602-1.034,1.93-1.386,2.965-0.783C60.707,192.029,61.058,193.356,60.455,194.394z"/>
		<path style="fill:#474763;" d="M60.022,194.14c-0.463,0.798-1.485,1.067-2.282,0.605c-0.796-0.465-1.065-1.487-0.602-2.284
			c0.463-0.795,1.484-1.064,2.281-0.603C60.216,192.322,60.485,193.345,60.022,194.14z"/>
		<path style="fill:#85D0E8;" d="M36.348,176.325c-0.229,0.302-0.66,0.363-0.963,0.133l-8.926-6.726
			c-0.304-0.23-0.365-0.661-0.135-0.966l0,0c0.227-0.303,0.66-0.363,0.964-0.134l8.925,6.729
			C36.516,175.589,36.577,176.023,36.348,176.325L36.348,176.325z"/>
		<path style="fill:#85D0E8;" d="M32.942,182.154c-0.146,0.352-0.549,0.519-0.899,0.371l-10.316-4.306
			c-0.351-0.148-0.516-0.549-0.369-0.9l0,0c0.146-0.352,0.549-0.517,0.899-0.371l10.316,4.306
			C32.923,181.401,33.088,181.805,32.942,182.154L32.942,182.154z"/>
	</g>
	<path style="fill:#1E1E1E;" d="M111.449,170.898v26.825c0,0.635,0.516,1.153,1.152,1.153c0.635,0,1.15-0.519,1.15-1.153v-26.825
		H111.449z"/>
	<path style="fill:#3B576F;" d="M121.091,171.817c0,1.016-0.822,1.836-1.837,1.836h-13.308c-1.014,0-1.836-0.82-1.836-1.836v-4.43
		c0-1.013,0.822-1.836,1.836-1.836h13.308c1.015,0,1.837,0.823,1.837,1.836V171.817z"/>
	<rect x="104.11" y="167.388" style="fill:#EFEFEF;" width="16.981" height="0.729"/>
	<rect x="104.11" y="168.72" style="fill:#EFEFEF;" width="16.981" height="0.729"/>
	<rect x="104.11" y="169.909" style="fill:#85D0E8;" width="16.981" height="1.468"/>
	<path style="fill:#D9483F;" d="M115.041,177.204c0,1.354-1.098,2.45-2.451,2.45c-1.353,0-2.449-1.097-2.449-2.45
		s1.096-2.448,2.449-2.448C113.943,174.756,115.041,175.851,115.041,177.204z"/>
	<path style="fill:#D9483F;" d="M115.684,196.112c0,1.702-1.38,3.081-3.083,3.081c-1.704,0-3.085-1.379-3.085-3.081
		c0-1.705,1.381-3.084,3.085-3.084C114.304,193.028,115.684,194.407,115.684,196.112z"/>
	<path style="fill:#D9483F;" d="M115.684,186.268c0,5.007-1.38,9.065-3.083,9.065c-1.704,0-3.085-4.059-3.085-9.065
		c0-5.004,1.381-9.063,3.085-9.063C114.304,177.204,115.684,181.264,115.684,186.268z"/>
	<g>
		<rect x="264.58" y="170.711" style="fill:#29363D;" width="1.808" height="0.34"/>
		<rect x="238.796" y="170.711" style="fill:#29363D;" width="1.806" height="0.34"/>
		<path style="fill:#A6EAFF;" d="M264.855,170.01c0,6.772-5.49,12.262-12.263,12.262c-6.773,0-12.262-5.489-12.262-12.262
			c0-6.772,5.489-12.263,12.262-12.263C259.364,157.747,264.855,163.237,264.855,170.01z"/>
		<path style="fill:#4A5E6B;" d="M252.592,182.682c-6.985,0-12.67-5.684-12.67-12.672c0-6.986,5.685-12.67,12.67-12.67
			c6.986,0,12.671,5.684,12.671,12.67C265.263,176.998,259.578,182.682,252.592,182.682z M252.592,158.158
			c-6.535,0-11.852,5.315-11.852,11.852c0,6.535,5.316,11.852,11.852,11.852c6.536,0,11.852-5.316,11.852-11.852
			C264.443,163.474,259.128,158.158,252.592,158.158z"/>
		<path style="fill:#3E5568;" d="M253.308,196.895c0,0.452-0.368,0.818-0.818,0.818l0,0c-0.453,0-0.819-0.366-0.819-0.818v-12.457
			c0-0.452,0.366-0.818,0.819-0.818l0,0c0.45,0,0.818,0.366,0.818,0.818V196.895z"/>
		<path style="fill:#558099;" d="M258.715,196.715h-12.454c-1.056,0-1.909,0.854-1.909,1.909h16.274
			C260.626,197.568,259.771,196.715,258.715,196.715z"/>
		<path style="fill:#3E5568;" d="M265.775,170.711c-0.208,7.149-6.087,12.902-13.286,12.902c-7.199,0-13.079-5.753-13.29-12.902
			h-0.917c0.212,7.656,6.501,13.819,14.207,13.819c7.705,0,13.994-6.163,14.206-13.819H265.775z"/>
		<path style="fill:#558099;" d="M254.486,184.286c0,0.567-0.459,1.024-1.024,1.024h-1.946c-0.567,0-1.024-0.457-1.024-1.024v-0.323
			c0-0.568,0.457-1.025,1.024-1.025h1.946c0.565,0,1.024,0.457,1.024,1.025V184.286z"/>
		<path style="fill:#558099;" d="M267.778,170.882c0,0.324-0.265,0.589-0.591,0.589c-0.323,0-0.586-0.265-0.586-0.589
			c0-0.326,0.263-0.589,0.586-0.589C267.514,170.293,267.778,170.556,267.778,170.882z"/>
		<path style="fill:#558099;" d="M238.357,170.882c0,0.324-0.263,0.589-0.586,0.589c-0.326,0-0.589-0.265-0.589-0.589
			c0-0.326,0.263-0.589,0.589-0.589C238.095,170.293,238.357,170.556,238.357,170.882z"/>
	</g>
	<g>
		<path style="fill:#212121;" d="M177.521,170.132c0,0.382-0.312,0.693-0.694,0.693l0,0c-0.384,0-0.693-0.311-0.693-0.693v-0.771
			c0-0.385,0.31-0.694,0.693-0.694l0,0c0.383,0,0.694,0.31,0.694,0.694V170.132z"/>
		<rect x="186.692" y="172.348" style="fill:#212121;" width="0.743" height="2.537"/>
		
			<rect x="186.171" y="174.543" transform="matrix(0.9778 -0.2096 0.2096 0.9778 -32.7007 43.0848)" style="fill:#212121;" width="1.472" height="2.537"/>
		<rect x="176.799" y="165.913" style="fill:#3B5775;" width="10.266" height="3.079"/>
		<rect x="181.612" y="200.488" style="fill:#4C4C4C;" width="0.681" height="3.644"/>
		<rect x="181.273" y="198.668" style="fill:#212121;" width="1.362" height="3.642"/>
		<path style="fill:#3B5775;" d="M186.01,195.453c0,2.251-1.824,4.078-4.078,4.078c-2.254,0-4.078-1.827-4.078-4.078
			c0-2.254,1.824-4.08,4.078-4.08C184.186,191.373,186.01,193.199,186.01,195.453z"/>
		<polygon style="fill:#F67B3A;" points="185.977,195.453 177.887,195.453 176.799,170.532 187.065,170.532 		"/>
		<rect x="176.799" y="167.453" style="fill:#A5A5A5;" width="10.266" height="3.079"/>
		<path style="fill:#CCCCCC;" d="M182.658,195.453c0,0.394-0.321,0.715-0.715,0.715c-0.396,0-0.718-0.321-0.718-0.715
			c0-0.396,0.321-0.718,0.718-0.718C182.337,194.735,182.658,195.057,182.658,195.453z"/>
		<path style="fill:#212121;" d="M182.516,195.453c0,0.316-0.256,0.572-0.572,0.572c-0.319,0-0.574-0.256-0.574-0.572
			c0-0.316,0.255-0.574,0.574-0.574C182.26,194.879,182.516,195.137,182.516,195.453z"/>
		<path style="fill:#FFFFFF;" d="M182.337,195.453c0,0.211-0.171,0.382-0.384,0.382c-0.211,0-0.383-0.171-0.383-0.382
			c0-0.211,0.172-0.385,0.383-0.385C182.166,195.068,182.337,195.242,182.337,195.453z"/>
		<rect x="176.799" y="161.743" style="fill:#212121;" width="0.561" height="5.71"/>
		<rect x="178.74" y="161.743" style="fill:#212121;" width="0.561" height="5.71"/>
		<rect x="180.682" y="161.743" style="fill:#212121;" width="0.559" height="5.71"/>
		<rect x="182.624" y="161.743" style="fill:#212121;" width="0.558" height="5.71"/>
		<rect x="184.563" y="161.743" style="fill:#212121;" width="0.56" height="5.71"/>
		<rect x="186.505" y="161.743" style="fill:#212121;" width="0.56" height="5.71"/>
		<path style="fill:#FFFFFF;" d="M184.844,177.46c0,0.598-0.487,1.086-1.088,1.086h-3.648c-0.601,0-1.088-0.488-1.088-1.086v-0.113
			c0-0.6,0.487-1.085,1.088-1.085h3.648c0.6,0,1.088,0.485,1.088,1.085V177.46z"/>
		<path style="fill:#FF9B17;" d="M184.598,177.45c0,0.504-0.407,0.915-0.914,0.915h-3.504c-0.506,0-0.917-0.411-0.917-0.915v-0.094
			c0-0.504,0.411-0.914,0.917-0.914h3.504c0.507,0,0.914,0.41,0.914,0.914V177.45z"/>
		<path style="opacity:0.4;fill:#FFFFFF;" d="M181.932,176.442h-1.752c-0.506,0-0.917,0.41-0.917,0.914v0.094
			c0,0.504,0.411,0.915,0.917,0.915h1.752V176.442z"/>
		<polygon style="fill:#212121;" points="174.805,181.688 174.43,181.622 176.423,169.936 176.799,170.003 		"/>
		<g>
			<path style="fill:#CCCCCC;" d="M178.009,168.049c0.063,0.271-0.102,0.537-0.371,0.603c-0.265,0.063-0.534-0.101-0.601-0.368
				c-0.063-0.267,0.102-0.536,0.371-0.6C177.673,167.618,177.942,167.784,178.009,168.049z"/>
			<path style="fill:#212121;" d="M177.912,168.072c0.05,0.216-0.082,0.432-0.295,0.483c-0.216,0.052-0.432-0.08-0.483-0.296
				c-0.052-0.213,0.082-0.429,0.295-0.48C177.646,167.727,177.858,167.859,177.912,168.072z"/>
			<path style="fill:#FFFFFF;" d="M177.783,168.105c0.035,0.143-0.054,0.286-0.197,0.321c-0.144,0.035-0.288-0.054-0.323-0.197
				c-0.033-0.143,0.054-0.288,0.197-0.321C177.606,167.873,177.748,167.962,177.783,168.105z"/>
			<path style="opacity:0.5;fill:#212121;" d="M177.696,168.099l-0.152,0.035l-0.037-0.152c-0.003-0.015-0.019-0.023-0.033-0.021
				c-0.014,0.005-0.023,0.018-0.021,0.033l0.037,0.154l-0.155,0.035c-0.014,0.005-0.023,0.019-0.019,0.033
				c0.005,0.017,0.019,0.025,0.033,0.02l0.154-0.037l0.035,0.155c0.005,0.014,0.02,0.022,0.033,0.018
				c0.014-0.003,0.023-0.017,0.021-0.033l-0.038-0.152l0.152-0.037c0.017-0.003,0.023-0.017,0.022-0.033
				C177.728,168.102,177.711,168.094,177.696,168.099z"/>
		</g>
		<g>
			<path style="fill:#CCCCCC;" d="M186.768,168.3c-0.075,0.266-0.35,0.422-0.615,0.348c-0.265-0.073-0.419-0.348-0.347-0.614
				c0.075-0.266,0.35-0.42,0.614-0.348C186.686,167.761,186.842,168.037,186.768,168.3z"/>
			<path style="fill:#212121;" d="M186.671,168.274c-0.059,0.213-0.279,0.338-0.492,0.276c-0.214-0.059-0.336-0.278-0.277-0.49
				c0.059-0.213,0.279-0.337,0.493-0.278C186.606,167.841,186.73,168.064,186.671,168.274z"/>
			<path style="fill:#FFFFFF;" d="M186.544,168.239c-0.039,0.141-0.188,0.225-0.328,0.186c-0.143-0.04-0.225-0.189-0.188-0.329
				c0.04-0.143,0.188-0.225,0.331-0.185C186.5,167.95,186.582,168.096,186.544,168.239z"/>
			<path style="opacity:0.5;fill:#212121;" d="M186.472,168.189l-0.152-0.039l0.042-0.155c0.005-0.014-0.005-0.028-0.018-0.033
				c-0.012-0.004-0.028,0.005-0.033,0.02l-0.042,0.152l-0.152-0.043c-0.014-0.004-0.03,0.005-0.033,0.02
				c-0.005,0.014,0.003,0.027,0.02,0.032l0.152,0.045l-0.043,0.15c-0.004,0.017,0.005,0.03,0.02,0.035
				c0.014,0.004,0.028-0.005,0.032-0.018l0.043-0.153l0.152,0.043c0.014,0.002,0.03-0.005,0.032-0.02
				C186.495,168.211,186.485,168.194,186.472,168.189z"/>
		</g>
	</g>
	<g>
		
			<rect x="272.309" y="263.925" transform="matrix(0.5877 -0.8091 0.8091 0.5877 -102.0068 329.8438)" style="fill:#2D2D2D;" width="0.672" height="2.175"/>
		<path style="fill:#294051;" d="M272.645,265.011c-0.199,0.277-0.587,0.338-0.86,0.139l-4.065-2.952
			c-0.276-0.199-0.338-0.584-0.139-0.86l0,0c0.202-0.277,0.587-0.338,0.863-0.137l4.063,2.95
			C272.785,264.35,272.846,264.737,272.645,265.011L272.645,265.011z"/>
		<path style="fill:#58B7C7;" d="M254.719,246.305c-0.009,0.296-0.256,0.53-0.556,0.52l-3.68-0.107
			c-0.298-0.01-0.532-0.258-0.523-0.554l0,0c0.01-0.3,0.258-0.532,0.556-0.522l3.68,0.107
			C254.494,245.759,254.726,246.007,254.719,246.305L254.719,246.305z"/>
		<path style="fill:#3B556D;" d="M260.033,248.739c-0.167,0.424-0.646,0.633-1.067,0.467l-5.243-2.057
			c-0.425-0.164-0.634-0.643-0.467-1.067l0,0c0.166-0.422,0.645-0.633,1.069-0.467l5.241,2.057
			C259.99,247.836,260.199,248.314,260.033,248.739L260.033,248.739z"/>
		<path style="fill:#58B7C7;" d="M249.935,247.109l0.055-0.059c0.335-0.354,0.316-0.912-0.038-1.245l-14.696-13.896
			c-0.354-0.333-0.912-0.316-1.245,0.037l-0.054,0.059L249.935,247.109z"/>
		<path style="fill:#2D2D2D;" d="M230.731,234.589c-0.189,0.263-0.558,0.321-0.82,0.129l-0.07-0.049
			c-0.263-0.192-0.321-0.561-0.132-0.82l0,0c0.192-0.263,0.559-0.322,0.821-0.132l0.072,0.052
			C230.865,233.958,230.924,234.326,230.731,234.589L230.731,234.589z"/>
		<path style="fill:#58B7C7;" d="M252.732,251.141c-0.286,0.394-0.837,0.479-1.23,0.194l-21.303-15.463
			c-0.394-0.286-0.48-0.835-0.194-1.232l0.551-0.76c0.288-0.394,0.837-0.48,1.231-0.194l21.302,15.461
			c0.395,0.286,0.48,0.837,0.195,1.23L252.732,251.141z"/>
		<path style="fill:#3B556D;" d="M256.527,253.311c-1.049,1.445-3.07,1.767-4.515,0.718c-1.442-1.048-1.764-3.069-0.718-4.512
			c1.051-1.447,3.069-1.766,4.515-0.718C257.254,249.846,257.575,251.867,256.527,253.311z"/>
		<path style="fill:#3B556D;" d="M270.22,263.253c-0.8,1.102-2.343,1.348-3.445,0.546c-1.102-0.8-1.348-2.343-0.549-3.444
			c0.803-1.105,2.346-1.349,3.447-0.549C270.775,260.604,271.022,262.147,270.22,263.253z"/>
		<path style="fill:#3B556D;" d="M269.699,262.872c-0.706,0.972-5.014-0.951-9.624-4.298c-4.608-3.344-7.771-6.843-7.065-7.816
			c0.703-0.971,5.011,0.952,9.621,4.299C267.239,258.403,270.402,261.901,269.699,262.872z"/>
		<path style="fill:#6EDEEA;" d="M250.465,246.821c-0.365,0.502-1.069,0.614-1.573,0.248c-0.504-0.365-0.614-1.069-0.249-1.571
			c0.366-0.504,1.069-0.616,1.571-0.251C250.719,245.613,250.831,246.316,250.465,246.821z"/>
		<path style="fill:#2D2D2D;" d="M250.028,246.504c-0.189,0.261-0.558,0.319-0.82,0.129c-0.263-0.189-0.321-0.556-0.129-0.818
			c0.19-0.265,0.556-0.323,0.82-0.131C250.16,245.874,250.219,246.241,250.028,246.504z"/>
		<path style="fill:#3B556D;" d="M251.511,251.722c-0.263,0.361-0.767,0.441-1.13,0.181l0,0c-0.361-0.263-0.441-0.768-0.179-1.13
			l2.157-2.972c0.263-0.36,0.768-0.44,1.128-0.178l0,0c0.361,0.263,0.441,0.767,0.181,1.128L251.511,251.722z"/>
	</g>
	<g>
		<path style="fill:#4C96A1;" d="M246.781,96.718c0.229,0.121,0.321,0.404,0.199,0.635l-12.919,24.682
			c-0.119,0.229-0.403,0.319-0.633,0.198l0,0c-0.23-0.12-0.319-0.405-0.199-0.635l12.918-24.681
			C246.268,96.688,246.551,96.599,246.781,96.718L246.781,96.718z"/>
		<path style="fill:#D9483F;" d="M233.583,111.398c0.239-0.583,0.903-0.864,1.487-0.627l34.938,14.192
			c0.584,0.237,0.865,0.902,0.626,1.485l-0.9,2.217c-0.237,0.584-0.9,0.864-1.484,0.628l-34.938-14.191
			c-0.584-0.238-0.865-0.902-0.629-1.485L233.583,111.398z"/>
		<path style="fill:#AFAFAF;" d="M237.236,113.809c0.35-0.342,0.908-0.339,1.25,0.01c0.343,0.347,0.341,0.906-0.007,1.249
			c-0.347,0.343-0.907,0.339-1.25-0.008C236.885,114.711,236.89,114.152,237.236,113.809z"/>
		<path style="fill:#EFEFEF;" d="M237.516,114.091c0.192-0.189,0.502-0.188,0.689,0.005c0.19,0.192,0.188,0.501-0.005,0.689
			c-0.192,0.188-0.499,0.186-0.689-0.005C237.321,114.588,237.323,114.28,237.516,114.091z"/>
		<path style="fill:#4C96A1;" d="M255.924,85.836c0.556,0.294,0.771,0.981,0.482,1.54l-9.021,17.247
			c-0.291,0.558-0.98,0.775-1.538,0.482l-2.12-1.109c-0.561-0.293-0.774-0.98-0.483-1.539l9.021-17.246
			c0.291-0.559,0.98-0.775,1.538-0.482L255.924,85.836z"/>
		<path style="fill:#58BECD;" d="M255.924,85.837c0.556,0.292,0.771,0.98,0.482,1.538l-9.021,17.247
			c-0.291,0.558-0.98,0.775-1.538,0.483l-1.605-0.838c-0.558-0.293-0.8-0.928-0.509-1.486l9.021-17.247
			c0.293-0.558,1.031-0.815,1.59-0.523L255.924,85.837z"/>
	</g>
	<g>
		<g>
			<path style="fill:#4C96A1;" d="M104.855,253.288c0.241,0.408,0.105,0.936-0.302,1.178l-0.296,0.173
				c-0.408,0.242-0.935,0.106-1.176-0.302l-6.675-11.294c-0.242-0.408-0.107-0.936,0.302-1.177l0.295-0.177
				c0.408-0.241,0.936-0.104,1.176,0.303L104.855,253.288z"/>
			<path style="fill:#4C96A1;" d="M106.756,249.37c0.241,0.408,0.106,0.936-0.302,1.177l-0.295,0.176
				c-0.409,0.242-0.936,0.105-1.177-0.302l-6.675-11.294c-0.241-0.41-0.105-0.936,0.303-1.177l0.296-0.177
				c0.407-0.241,0.935-0.105,1.176,0.303L106.756,249.37z"/>
			<path style="fill:#4C96A1;" d="M109.356,246.638c0.242,0.408,0.105,0.936-0.303,1.178l-0.295,0.173
				c-0.408,0.242-0.936,0.106-1.176-0.302l-6.675-11.296c-0.241-0.408-0.105-0.934,0.303-1.175l0.295-0.177
				c0.408-0.241,0.935-0.105,1.176,0.303L109.356,246.638z"/>
			<path style="fill:#4C96A1;" d="M113.705,246.86c0.241,0.411,0.106,0.936-0.303,1.178l-0.296,0.174
				c-0.409,0.241-0.936,0.107-1.177-0.303l-6.675-11.294c-0.241-0.41-0.105-0.936,0.303-1.177l0.296-0.174
				c0.409-0.241,0.935-0.107,1.177,0.3L113.705,246.86z"/>
			<path style="fill:#4C96A1;" d="M117.36,253.868c0.056,0.471-0.28,0.897-0.752,0.954l-0.341,0.04
				c-0.47,0.056-0.898-0.279-0.955-0.751l-1.549-13.028c-0.056-0.47,0.28-0.898,0.751-0.955l0.341-0.04
				c0.47-0.056,0.898,0.282,0.955,0.753L117.36,253.868z"/>
			<path style="fill:#4C96A1;" d="M123.606,263.616c0.24,0.408,0.105,0.936-0.303,1.177l-9.669,5.715
				c-0.408,0.241-0.936,0.105-1.176-0.303l-11.188-18.931c-0.242-0.408-0.105-0.934,0.302-1.175l9.67-5.715
				c0.409-0.242,0.936-0.108,1.177,0.302L123.606,263.616z"/>
		</g>
		<g>
			<path style="fill:#56B8C6;" d="M123.836,245.414c-0.11,0.462,0.174,0.924,0.636,1.034l0.334,0.079
				c0.462,0.11,0.925-0.173,1.035-0.635l3.05-12.76c0.11-0.462-0.173-0.926-0.634-1.034l-0.334-0.079
				c-0.462-0.11-0.925,0.173-1.036,0.635L123.836,245.414z"/>
			<path style="fill:#56B8C6;" d="M120.865,242.231c-0.11,0.46,0.175,0.924,0.636,1.034l0.334,0.08
				c0.462,0.11,0.925-0.174,1.035-0.636l3.051-12.762c0.11-0.459-0.175-0.924-0.636-1.034l-0.334-0.079
				c-0.462-0.11-0.925,0.173-1.035,0.635L120.865,242.231z"/>
			<path style="fill:#56B8C6;" d="M117.575,240.384c-0.11,0.462,0.175,0.926,0.636,1.036l0.334,0.08
				c0.462,0.11,0.925-0.174,1.036-0.638l3.051-12.76c0.11-0.462-0.175-0.924-0.636-1.034l-0.335-0.079
				c-0.46-0.11-0.924,0.173-1.034,0.635L117.575,240.384z"/>
			<path style="fill:#56B8C6;" d="M113.486,241.88c-0.111,0.462,0.173,0.924,0.636,1.036l0.334,0.08
				c0.461,0.108,0.924-0.176,1.034-0.638l3.051-12.76c0.11-0.462-0.175-0.924-0.635-1.034l-0.334-0.079
				c-0.461-0.113-0.925,0.173-1.035,0.635L113.486,241.88z"/>
			<path style="fill:#56B8C6;" d="M112.057,249.653c0.085,0.467,0.532,0.774,0.999,0.689l0.338-0.061
				c0.467-0.085,0.775-0.532,0.691-1.002l-2.358-12.904c-0.086-0.467-0.534-0.776-0.999-0.691l-0.339,0.063
				c-0.467,0.084-0.775,0.532-0.691,0.999L112.057,249.653z"/>
			<path style="fill:#56B8C6;" d="M108.96,260.809c-0.11,0.462,0.175,0.924,0.637,1.034l10.923,2.612
				c0.462,0.11,0.925-0.173,1.036-0.635l5.113-21.387c0.11-0.462-0.175-0.924-0.637-1.034l-10.924-2.612
				c-0.461-0.11-0.924,0.176-1.034,0.635L108.96,260.809z"/>
		</g>
	</g>
	<g>
		<path style="fill:#7C3B1C;" d="M44.16,264.887c0,0.907-0.437,1.644-0.976,1.644h-0.228c-0.538,0-0.976-0.736-0.976-1.644V246.49
			c0-0.907,0.437-1.642,0.976-1.642h0.228c0.539,0,0.976,0.734,0.976,1.642V264.887z"/>
		<path style="fill:#F6763D;" d="M52.992,247.367c0,0.539-0.438,0.976-0.977,0.976H33.758c-0.538,0-0.976-0.437-0.976-0.976v-18.868
			c0-0.539,0.438-0.976,0.976-0.976h18.257c0.539,0,0.977,0.437,0.977,0.976V247.367z"/>
		<path style="fill:#562907;" d="M37.272,268.799c0,0.701-0.568,1.271-1.269,1.271c-0.701,0-1.269-0.569-1.269-1.271
			c0-0.699,0.568-1.268,1.269-1.268C36.704,267.53,37.272,268.1,37.272,268.799z"/>
		<path style="fill:#7C3B1C;" d="M50.907,266.742c0,0.405-0.327,0.731-0.732,0.731H35.921c-0.403,0-0.731-0.326-0.731-0.731l0,0
			c0-0.406,0.328-0.731,0.731-0.731h14.254C50.58,266.011,50.907,266.336,50.907,266.742L50.907,266.742z"/>
		<path style="fill:#C44600;" d="M54.703,253.723c0,0.539-0.437,0.975-0.976,0.975H32.414c-0.538,0-0.976-0.436-0.976-0.975v-3.094
			c0-0.539,0.437-0.978,0.976-0.978h21.312c0.54,0,0.976,0.438,0.976,0.978V253.723z"/>
		<path style="fill:#F6763D;" d="M45.559,266.011c0,1.374-1.114,2.487-2.488,2.487c-1.376,0-2.489-1.113-2.489-2.487
			c0-1.375,1.114-2.488,2.489-2.488C44.445,263.522,45.559,264.636,45.559,266.011z"/>
		<path style="fill:#562907;" d="M51.456,268.799c0,0.701-0.568,1.271-1.27,1.271c-0.7,0-1.267-0.569-1.267-1.271
			c0-0.699,0.567-1.268,1.267-1.268C50.887,267.53,51.456,268.1,51.456,268.799z"/>
		<path style="fill:#C4C4C4;" d="M50.919,268.799c0,0.405-0.328,0.733-0.733,0.733c-0.403,0-0.73-0.328-0.73-0.733
			c0-0.403,0.327-0.732,0.73-0.732C50.591,268.066,50.919,268.396,50.919,268.799z"/>
		<path style="fill:#C4C4C4;" d="M36.735,268.799c0,0.405-0.327,0.733-0.732,0.733c-0.404,0-0.731-0.328-0.731-0.733
			c0-0.403,0.327-0.732,0.731-0.732C36.408,268.066,36.735,268.396,36.735,268.799z"/>
		<path style="fill:#7C3B1C;" d="M35.635,245.031c0,0.54-0.437,0.976-0.976,0.976h-2.246c-0.538,0-0.976-0.436-0.976-0.976v-0.368
			c0-0.539,0.437-0.975,0.976-0.975h2.246c0.539,0,0.976,0.435,0.976,0.975V245.031z"/>
		<path style="fill:#7C3B1C;" d="M54.703,245.02c0,0.54-0.437,0.976-0.976,0.976h-2.245c-0.538,0-0.976-0.436-0.976-0.976v-0.365
			c0-0.54,0.438-0.976,0.976-0.976h2.245c0.54,0,0.976,0.436,0.976,0.976V245.02z"/>
	</g>
</g>
</svg>
