<?xml version="1.0" encoding="utf-8"?>
<!-- Generator: Adobe Illustrator 27.5.0, SVG Export Plug-In . SVG Version: 6.00 Build 0)  -->
<svg version="1.1" id="Layer_1" xmlns="http://www.w3.org/2000/svg" xmlns:xlink="http://www.w3.org/1999/xlink" x="0px" y="0px"
	 viewBox="0 0 800 800" style="enable-background:new 0 0 800 800;" xml:space="preserve">
<rect y="19.56" style="fill:#C6ACB8;" width="800" height="760.88"/>
<ellipse style="fill:#FFFFFF;" cx="400" cy="400" rx="293.154" ry="290.464"/>
<g>
	<g style="opacity:0.8;">
		<path style="fill:#9B9A9A;" d="M550.607,309.557c0.248-17.313,0.496-34.626,0.745-51.938c16.983-0.911,33.963-1.822,50.945-2.734
			c0.249,18.472,0.497,36.945,0.745,55.417C585.563,310.053,568.087,309.805,550.607,309.557z"/>
		<path style="fill:#9B9A9A;" d="M593.849,309.557c0.042-17.313,0.087-34.626,0.13-51.938c2.978-0.911,5.956-1.822,8.933-2.734
			c0.045,18.472,0.087,36.945,0.132,55.417C599.977,310.053,596.914,309.805,593.849,309.557z"/>
		<path style="fill:#9B9A9A;" d="M556.944,309.557c0.07-17.313,0.14-34.626,0.211-51.938c4.787-0.911,9.576-1.822,14.365-2.734
			c0.069,18.472,0.14,36.945,0.211,55.417C566.801,310.053,561.873,309.805,556.944,309.557z"/>
		<path style="fill:#9B9A9A;" d="M627.894,355.282c-32.721-0.331-65.44-0.663-98.162-0.994c-1.16-5.494-2.949-18.04,3.23-31.064
			c2.352-4.958,6.541-13.785,15.408-17.395c8.866-3.61,12.474,2.095,28.081,2.237c17.517,0.159,21.071-6.934,31.063-3.231
			c10.521,3.899,15.408,15.035,17.645,20.129C630.983,338.232,628.956,350.489,627.894,355.282z"/>
		<path style="fill:#9B9A9A;" d="M530.975,343.602c-2.19,0.502-17.261,4.169-28.328,16.898
			c-11.689,13.441-10.858,27.725-12.426,68.091c-1.637,42.147-2.327,21.009-3.977,72.067c-2.211,68.366,0.08,73.613,2.982,78.032
			c18.748,28.538,66.357,27.517,97.912,26.839c32.358-0.694,73.102-1.569,89.465-27.336c6.005-9.46,4.155-15.073,0-80.02
			c-1.684-26.291-2.525-43.284-5.468-72.066c-4.331-42.355-7.893-58.257-20.875-70.577c-2.753-2.612-11.066-10.315-23.857-13.419
			c-19.34-4.693-25.433,6.827-50.199,6.958C553.369,349.19,549.074,339.449,530.975,343.602z"/>
		<path style="fill:#9B9A9A;" d="M587.138,605.53c68.446,3.537,85.62-20.926,89.465-27.336c5.909-9.857,4.055-16.642,0-80.02
			c-1.684-26.291-2.525-43.284-5.468-72.066c-4.219-41.263-7.741-57.682-20.875-70.577c-8.01-7.864-16.976-11.848-23.299-13.979
			c-1.856-0.435-4.119-0.812-6.708-0.932c-2.169-0.1-4.116,0.002-5.779,0.187c4.771,6.317,11.566,16.172,17.893,29.137
			c7.398,15.159,17.313,40.834,15.905,128.728c-1.08,67.406-6.998,80.499-16.897,89.96
			C617.551,601.84,599.202,604.878,587.138,605.53z"/>
		<path style="fill:#9B9A9A;" d="M508.361,232.519l4.225,15.656l35.785,8.698l26.341,12.177c0.726-1.757,2.406-5.116,5.966-7.704
			c5.185-3.769,10.978-3.445,12.922-3.23c11.196,1.235,16.621,12.305,19.633,10.686c1.041-0.561,1.959-2.729,0-11.183
			c-0.503-3.215-1.676-7.599-4.723-11.68c-7.739-10.368-22.057-11.4-38.518-12.177C551.771,232.902,531.13,232.367,508.361,232.519z
			"/>
		<path style="fill:#9B9A9A;" d="M508.361,232.519l4.225,15.816l35.785,8.787l26.341,12.301c-0.151-6.361,2.265-9.396,3.232-10.438
			c6.11-6.586,20.062-4.421,27.584,1.864c4.674,3.905,6.214,8.855,7.705,8.323c1.699-0.607,0.602-7.405,0-11.297
			c-0.503-3.247-1.676-7.676-4.723-11.799c-7.739-10.474-22.057-11.517-38.518-12.301
			C551.771,232.906,531.13,232.366,508.361,232.519z"/>
		<path style="fill:#9B9A9A;" d="M552.596,369.696c-2.059-4.342-16.168-3.692-24.231,0.745
			c-15.067,8.294-15.325,33.289-16.027,59.269c-2.859,105.701-10.704,139.85,7.828,149.105c1.017,0.509,7.46,3.726,12.674,1.118
			c8.88-4.441,7.58-22.484,6.708-52.187c-0.499-17.018-0.359-34.049-0.744-51.069c-1.527-67.725,0.332-86.714,9.69-98.036
			C549.981,376.843,553.925,372.497,552.596,369.696z"/>
		<path style="fill:#9B9A9A;" d="M571.233,307.817c-2.962,3.211-7.8,9.286-10.81,18.265c-2.941,8.774-2.814,16.367-2.423,20.689
			c-0.977-0.232-2.548-0.613-4.475-1.118c-6.313-1.657-8.043-2.446-11.182-2.796c-1.6-0.179-4.023-0.293-7.082,0.187
			c1.317-6.752,4.312-17.071,11.741-27.398c3.219-4.475,6.611-8.034,9.692-10.81C561.542,305.829,566.388,306.822,571.233,307.817z"
			/>
		<path style="fill:#9B9A9A;" d="M593.972,305.207c2.64,0.566,7.23,1.961,11.185,5.778c4.055,3.916,5.376,8.387,7.081,14.165
			c1.095,3.709,2.311,9.18,2.423,16.029c1.852-0.324,4.503-0.58,7.642-0.186c2.898,0.363,5.243,1.159,6.897,1.864
			c-0.473-8.225-2.607-14.522-4.288-18.452c-2.354-5.506-5.282-12.356-12.487-16.961c-3.541-2.263-6.974-3.252-9.319-3.727
			c-0.977,0.005-2.038,0.059-3.167,0.186C597.63,304.163,595.624,304.664,593.972,305.207z"/>
		<path style="fill:#9B9A9A;" d="M590.617,235.749c-16.898,1.144-35.792,1.326-56.287-0.248c-9.03-0.694-17.655-1.675-25.846-2.858
			c18.759-1.485,39.851-1.665,62.749,0.621C577.926,233.933,584.391,234.773,590.617,235.749z"/>
		<path style="fill:#9B9A9A;" d="M508.113,232.519c6.166,5.567,8.927,11.27,7.207,14.041c-0.358,0.576-1.086,1.309-2.734,1.74
			C511.095,243.039,509.602,237.779,508.113,232.519z"/>
		<path style="fill:#9B9A9A;" d="M602.918,530.729h-52.186c-12.146,0-21.993-9.846-21.993-21.992v-74.553
			c0-12.146,9.847-21.993,21.993-21.993h52.186c12.146,0,21.993,9.847,21.993,21.993v74.553
			C624.911,520.883,615.065,530.729,602.918,530.729z"/>
		<path style="fill:#9B9A9A;" d="M602.918,530.729h-52.186c15.327-0.31,50.482-2.852,60.014-23.11
			c2.079-4.418,0.304-4.075,2.236-41.005c0.775-14.812,1.41-21.514-0.745-31.312c-2.244-10.204-6.26-18.058-9.319-23.111
			c1.465,0,9.257,0.147,15.552,6.441c3.98,3.98,6.441,9.478,6.441,15.552v74.553C624.911,520.883,615.065,530.729,602.918,530.729z"
			/>
		<g>
			<path style="fill:#9B9A9A;" d="M553.359,438.691h1.574v10.747h5.151v1.307h-6.726V438.691z"/>
			<path style="fill:#9B9A9A;" d="M563.521,439.658c0,0.535-0.374,0.965-1,0.965c-0.573,0-0.947-0.43-0.947-0.965
				c0-0.537,0.392-0.984,0.981-0.984C563.13,438.674,563.521,439.103,563.521,439.658z M561.769,450.745v-8.656h1.575v8.656H561.769
				z"/>
			<path style="fill:#9B9A9A;" d="M571.858,449.421h-0.035c-0.484,0.841-1.432,1.521-2.826,1.521c-2.021,0-3.667-1.734-3.667-4.364
				c0-3.254,2.093-4.667,3.917-4.667c1.342,0,2.235,0.661,2.665,1.483h0.035l0.055-1.305h1.482c-0.034,0.716-0.07,1.484-0.07,2.378
				v9.818h-1.556V449.421z M571.858,445.594c0-0.213-0.019-0.446-0.072-0.643c-0.249-0.966-1.073-1.789-2.252-1.789
				c-1.628,0-2.612,1.377-2.612,3.309c0,1.734,0.824,3.218,2.559,3.218c1.019,0,1.895-0.625,2.254-1.697
				c0.07-0.232,0.124-0.537,0.124-0.769V445.594z"/>
			<path style="fill:#9B9A9A;" d="M583.273,448.367c0,0.911,0.016,1.698,0.071,2.378h-1.395l-0.09-1.413h-0.036
				c-0.393,0.697-1.321,1.609-2.861,1.609c-1.357,0-2.985-0.77-2.985-3.792v-5.061h1.574v4.775c0,1.646,0.518,2.772,1.931,2.772
				c1.055,0,1.789-0.734,2.073-1.449c0.09-0.215,0.145-0.501,0.145-0.805v-5.294h1.574V448.367z"/>
			<path style="fill:#9B9A9A;" d="M587.641,439.658c0,0.535-0.375,0.965-1,0.965c-0.574,0-0.948-0.43-0.948-0.965
				c0-0.537,0.393-0.984,0.983-0.984C587.248,438.674,587.641,439.103,587.641,439.658z M585.89,450.745v-8.656h1.572v8.656H585.89z
				"/>
			<path style="fill:#9B9A9A;" d="M597.532,438.047v10.463c0,0.768,0.036,1.646,0.073,2.235h-1.395l-0.071-1.504h-0.055
				c-0.465,0.968-1.502,1.7-2.914,1.7c-2.092,0-3.72-1.771-3.72-4.398c-0.018-2.879,1.788-4.633,3.88-4.633
				c1.341,0,2.217,0.626,2.612,1.307h0.034v-5.17H597.532z M595.977,445.611c0-0.195-0.017-0.464-0.071-0.66
				c-0.232-0.984-1.09-1.808-2.271-1.808c-1.627,0-2.593,1.432-2.593,3.327c0,1.752,0.876,3.2,2.559,3.2
				c1.055,0,2.019-0.715,2.306-1.876c0.055-0.216,0.071-0.43,0.071-0.68V445.611z"/>
			<path style="fill:#9B9A9A;" d="M556.902,470.625c0.484,0.285,1.305,0.608,2.092,0.608c1.127,0,1.663-0.556,1.663-1.288
				c0-0.752-0.447-1.145-1.59-1.573c-1.573-0.572-2.308-1.414-2.308-2.451c0-1.395,1.145-2.538,2.987-2.538
				c0.876,0,1.646,0.232,2.108,0.536l-0.374,1.146c-0.339-0.216-0.966-0.521-1.771-0.521c-0.931,0-1.43,0.538-1.43,1.182
				c0,0.714,0.499,1.036,1.626,1.482c1.485,0.556,2.272,1.307,2.272,2.595c0,1.537-1.198,2.61-3.219,2.61
				c-0.948,0-1.824-0.251-2.433-0.608L556.902,470.625z"/>
			<path style="fill:#9B9A9A;" d="M572.035,467.817c0,3.201-2.234,4.596-4.309,4.596c-2.324,0-4.149-1.717-4.149-4.453
				c0-2.878,1.915-4.577,4.291-4.577C570.355,463.383,572.035,465.188,572.035,467.817z M565.186,467.906
				c0,1.896,1.073,3.327,2.611,3.327c1.502,0,2.629-1.414,2.629-3.362c0-1.466-0.733-3.308-2.593-3.308
				C565.991,464.564,565.186,466.28,565.186,467.906z"/>
			<path style="fill:#9B9A9A;" d="M580.105,470.142c0,0.752,0.036,1.485,0.126,2.074h-1.413l-0.126-1.091h-0.053
				c-0.482,0.68-1.413,1.288-2.646,1.288c-1.753,0-2.647-1.233-2.647-2.485c0-2.093,1.86-3.237,5.203-3.22v-0.178
				c0-0.697-0.197-2.004-1.966-1.986c-0.823,0-1.664,0.232-2.271,0.644l-0.358-1.055c0.716-0.446,1.771-0.75,2.861-0.75
				c2.648,0,3.29,1.805,3.29,3.522V470.142z M578.586,467.8c-1.717-0.036-3.666,0.269-3.666,1.948c0,1.038,0.68,1.504,1.466,1.504
				c1.146,0,1.877-0.716,2.13-1.449c0.053-0.18,0.07-0.358,0.07-0.502V467.8z"/>
			<path style="fill:#9B9A9A;" d="M582.65,466.387c0-1.108-0.036-2.002-0.07-2.826h1.395l0.09,1.484h0.034
				c0.626-1.055,1.663-1.662,3.076-1.662c2.109,0,3.683,1.77,3.683,4.381c0,3.111-1.913,4.649-3.95,4.649
				c-1.145,0-2.146-0.501-2.665-1.358h-0.036v4.703h-1.556V466.387z M584.206,468.693c0,0.232,0.018,0.447,0.071,0.645
				c0.286,1.09,1.234,1.842,2.36,1.842c1.664,0,2.63-1.36,2.63-3.345c0-1.717-0.913-3.2-2.576-3.2c-1.072,0-2.093,0.75-2.378,1.93
				c-0.054,0.197-0.107,0.431-0.107,0.627V468.693z"/>
		</g>
		<path style="opacity:0.4;fill:#9B9A9A;" d="M402.348,257.105v218.179c0,7.135,14.973,12.919,33.445,12.919
			c18.471,0,33.443-5.784,33.443-12.919V257.105c-8.104,3.372-19.887,6.94-34.222,6.808
			C421.43,263.787,410.221,260.382,402.348,257.105z"/>
		<path style="opacity:0.6;fill:#9B9A9A;" d="M407.359,188.599v40.099c0,8.742,5.259,15.829,11.743,15.829
			c6.484,0,11.743-7.087,11.743-15.829v-40.099H407.359z"/>
		<path style="opacity:0.6;fill:#9B9A9A;" d="M413.236,280.672v75.273c0.344,0.496,2.619,3.672,6.223,3.518
			c3.291-0.141,5.32-2.962,5.703-3.518c0-25.326,0-50.651,0-75.978c-0.52-0.915-2.343-3.886-5.185-4.221
			c-3.448-0.406-7.071,3.227-6.829,4.674C413.159,280.497,413.185,280.582,413.236,280.672z"/>
		<path style="opacity:0.6;fill:#9B9A9A;" d="M412.885,256.332c0.116,4.81,0.234,9.62,0.352,14.43
			c0.344,0.108,2.619,0.803,6.223,0.77c3.291-0.031,5.32-0.648,5.703-0.77c-0.118-4.379-0.234-8.757-0.353-13.136
			c-1.477,0.525-3.827,1.094-6.679,0.647C415.908,257.924,414.12,257.074,412.885,256.332z"/>
		<path style="fill:#9B9A9A;" d="M381.835,232.273v267.328c0,8.742,20.43,15.829,45.631,15.829c25.199,0,45.629-7.087,45.629-15.829
			V232.273H381.835z"/>
		<path style="fill:#9B9A9A;" d="M390.649,232.273v265.481c0,8.682,8.59,15.719,19.187,15.719c10.596,0,19.185-7.037,19.185-15.719
			V232.273H390.649z"/>
		<path style="opacity:0.5;fill:#9B9A9A;" d="M384.946,243.529v248.067c0,8.112,19.036,14.688,42.52,14.688
			c23.482,0,42.519-6.575,42.519-14.688V243.529c-8.957,4.92-23.982,11.385-43.037,11.266
			C408.43,254.68,393.805,248.396,384.946,243.529z"/>
		<path style="opacity:0.4;fill:#9B9A9A;" d="M394.28,251.971v218.18c0,7.134,14.972,12.918,33.445,12.918
			c18.471,0,33.443-5.784,33.443-12.918v-218.18c-8.104,3.372-19.886,6.94-34.221,6.807
			C413.362,258.652,402.152,255.247,394.28,251.971z"/>
		<path style="fill:#9B9A9A;" d="M473.095,232.273c0,8.742-20.43,15.828-45.629,15.828c-25.201,0-45.631-7.087-45.631-15.828
			c0-8.742,20.43-15.829,45.631-15.829C452.665,216.444,473.095,223.531,473.095,232.273z"/>
		<path style="fill:#9B9A9A;" d="M381.835,184.435v40.099c0,8.742,20.43,15.829,45.631,15.829c25.199,0,45.629-7.087,45.629-15.829
			v-40.099H381.835z"/>
		<path style="opacity:0.6;fill:#9B9A9A;" d="M399.292,183.464v40.099c0,8.742,5.258,15.829,11.742,15.829
			c6.485,0,11.743-7.087,11.743-15.829v-40.099H399.292z"/>
		<path style="fill:#9B9A9A;" d="M453.717,184.435c0.496,17.615,0.993,35.231,1.489,52.847c2.488-0.366,6.618-1.286,10.953-3.883
			c3.451-2.067,5.77-4.441,7.189-6.148c-0.085-14.272-0.169-28.544-0.253-42.815H453.717z"/>
		<path style="fill:#9B9A9A;" d="M473.095,184.435c0,8.743-20.43,15.829-45.629,15.829c-25.201,0-45.631-7.087-45.631-15.829
			c0-8.742,20.43-15.828,45.631-15.828C452.665,168.607,473.095,175.693,473.095,184.435z"/>
		<path style="fill:#9B9A9A;" d="M467.618,180.939c0,6.652-18.003,12.045-40.208,12.045c-22.206,0-40.208-5.393-40.208-12.045
			c0-6.653,18.001-12.046,40.208-12.046C449.615,168.893,467.618,174.286,467.618,180.939z"/>
		<path style="opacity:0.6;fill:#9B9A9A;" d="M405.167,275.538v75.274c0.345,0.496,2.62,3.672,6.224,3.517
			c3.292-0.141,5.32-2.962,5.703-3.517c0-25.327,0-50.652,0-75.978c-0.52-0.915-2.343-3.886-5.185-4.221
			c-3.448-0.406-7.07,3.227-6.83,4.674C405.092,275.362,405.118,275.448,405.167,275.538z"/>
		<path style="opacity:0.6;fill:#9B9A9A;" d="M404.815,251.197c0.117,4.81,0.235,9.62,0.352,14.43
			c0.345,0.108,2.62,0.804,6.224,0.77c3.292-0.031,5.32-0.649,5.703-0.77c-0.118-4.379-0.234-8.757-0.353-13.136
			c-1.476,0.525-3.827,1.094-6.678,0.647C407.84,252.79,406.052,251.94,404.815,251.197z"/>
		<g>
			<g>
				<path style="fill:#9B9A9A;" d="M626.919,568.877c12.015-10.27,28.753-6.867,32.559-6.094
					c18.769,3.815,18.808,15.5,39.696,22.974c18.82,6.735,31.717,1.925,33.437,7.257c2.073,6.429-16.398,18.073-25.573,22.941
					c-7.608,4.035-16.577,8.794-28.059,9.872c-28.564,2.682-62.179-18.133-62.082-38.185
					C616.945,577.834,625.043,570.479,626.919,568.877z"/>
				<path style="fill:#9B9A9A;" d="M638.338,565.291c11.204-7.242,24.409-2.27,25.775-1.731c4.122,1.627,7.223,4.016,12.004,7.696
					c5.4,4.159,6.639,6.177,11.362,9.331c4.764,3.183,8.898,4.731,11.946,5.854c18.276,6.724,30.733,2.734,32.278,7.062
					c1.696,4.753-11.927,13.504-13.839,14.731c-3.372,2.166-13.912,8.774-28.059,9.874c-29.898,2.322-63.649-20.915-62.08-38.187
					C628.477,571.665,637.185,566.037,638.338,565.291z"/>
				<path style="fill:#9B9A9A;" d="M640.274,572.633c7.459-6.002,20.532-2.389,21.895-1.994c4.104,1.186,7.562,3,12.891,5.797
					c6.021,3.159,7.738,4.725,12.852,7.107c5.158,2.402,9.248,3.528,12.257,4.341c18.046,4.876,27.627,1.418,30.345,4.804
					c2.984,3.719-6.102,10.974-7.379,11.991c-2.249,1.796-9.33,7.28-21.299,8.493c-25.297,2.563-62.052-15.002-66.163-28.705
					C633.709,577.915,639.507,573.25,640.274,572.633z"/>
				<path style="fill:#9B9A9A;" d="M660.419,582.637c-0.211-1.341-0.804-5.123,1.306-7.009c6.052-5.407,22.633,15.281,50.107,16.652
					c7.573,0.377,17.193-0.652,17.566,1.295c0.189,0.976-2.046,2.184-4.729,3.607c-1.604,0.85-8.534,4.527-15.51,5.56
					C694.662,604.887,662.852,598.146,660.419,582.637z"/>
				<g>
					<path style="fill:#9B9A9A;" d="M609.359,588.709c10.795-4.319,22.283-7.407,33.998-7.042
						c13.157,0.409,22.87,6.869,34.548,11.856c16.821,7.184,36.092,6.472,52.646-1.043c1.56-0.708-0.993-1.833-2.026-1.363
						c-10.026,4.552-21.073,6.453-32.044,5.308c-11.976-1.252-21.396-7.055-32.132-11.844c-18.203-8.117-38.51-4.662-56.411,2.502
						C606.154,587.796,608.141,589.196,609.359,588.709L609.359,588.709z"/>
				</g>
				<g>
					<path style="fill:#9B9A9A;" d="M667.948,588.359c7.735,3.827,14.736,7.857,20.543,14.363
						c4.529,5.078,8.716,9.784,15.627,11.271c1.391,0.301,2.76-1.041,0.834-1.456c-8.507-1.832-12.571-10.066-18.664-15.367
						c-4.799-4.175-10.567-7.024-16.227-9.824C669.207,586.924,666.482,587.635,667.948,588.359L667.948,588.359z"/>
				</g>
				<g>
					<path style="fill:#9B9A9A;" d="M639.421,581.26c6.807,2.263,10.704,7.487,12.12,14.364c1.016,4.92,1.671,9.568,4.452,13.869
						c5.073,7.851,13.919,12.314,22.711,14.611c0.727,0.189,3.306-0.236,1.509-0.706c-11.07-2.891-21.784-9.982-24.62-21.674
						c-1.077-4.433-1.21-9.08-3.646-13.077c-2.405-3.942-6.114-6.5-10.429-7.935C640.949,580.525,638.123,580.828,639.421,581.26
						L639.421,581.26z"/>
				</g>
			</g>
			<g>
				<path style="fill:#9B9A9A;" d="M583.409,598.961c6.11-14.576,22.589-19.069,26.337-20.091
					c18.477-5.038,23.769,5.379,45.785,2.655c19.839-2.453,29.192-12.552,33.128-8.565c4.744,4.809-6.513,23.519-12.517,31.994
					c-4.98,7.029-10.848,15.314-20.617,21.441c-24.302,15.248-63.687,11.783-72.623-6.169
					C578.531,611.447,582.456,601.235,583.409,598.961z"/>
				<path style="fill:#9B9A9A;" d="M591.994,590.62c6.748-11.509,20.778-13.009,22.242-13.143c4.411-0.401,8.256,0.336,14.183,1.473
					c6.692,1.284,8.705,2.529,14.344,3.221c5.688,0.698,10.074,0.222,13.302-0.148c19.348-2.219,28.678-11.385,32.004-8.218
					c3.654,3.481-4.574,17.427-5.729,19.384c-2.036,3.451-8.477,14.095-20.615,21.441c-25.657,15.527-66.255,9.961-72.623-6.17
					C586.056,600.75,591.299,591.805,591.994,590.62z"/>
				<path style="fill:#9B9A9A;" d="M597.025,596.305c3.963-8.716,17.264-11.371,18.656-11.632c4.199-0.787,8.104-0.722,14.123-0.623
					c6.796,0.113,9.037,0.739,14.675,0.565c5.687-0.176,9.845-1.011,12.898-1.64c18.311-3.765,25.31-11.164,29.261-9.362
					c4.339,1.979-0.512,12.545-1.192,14.028c-1.202,2.616-5.059,10.699-15.201,17.168c-21.438,13.672-62.167,14.522-72.004,4.134
					C593.539,603.977,596.618,597.203,597.025,596.305z"/>
				<path style="fill:#9B9A9A;" d="M619.519,596.177c-0.792-1.104-3.023-4.215-1.987-6.847c2.972-7.553,27.088,3.463,52.239-7.674
					c6.936-3.071,15.063-8.318,16.273-6.749c0.607,0.788-0.847,2.872-2.602,5.351c-1.049,1.48-5.584,7.882-11.349,11.943
					C660.111,600.64,628.67,608.931,619.519,596.177z"/>
				<g>
					<path style="fill:#9B9A9A;" d="M576.651,624.572c7.696-8.714,16.566-16.642,27.194-21.587
						c11.934-5.554,23.515-4.154,36.186-4.955c18.255-1.152,35.145-10.46,46.549-24.618c1.072-1.335-1.713-1.19-2.425-0.308
						c-6.906,8.577-15.915,15.246-26.229,19.159c-11.259,4.27-22.282,3.326-34.024,3.881c-19.907,0.94-36.488,13.162-49.254,27.615
						C573.379,625.198,575.783,625.556,576.651,624.572L576.651,624.572z"/>
				</g>
				<g>
					<path style="fill:#9B9A9A;" d="M628.817,597.9c8.631-0.063,16.697,0.385,24.808,3.583c6.331,2.497,12.186,4.816,19.028,3.036
						c1.377-0.358,1.996-2.172,0.089-1.676c-8.421,2.19-15.756-3.334-23.581-5.327c-6.163-1.569-12.599-1.519-18.911-1.473
						C629.295,596.051,627.183,597.911,628.817,597.9L628.817,597.9z"/>
				</g>
				<g>
					<path style="fill:#9B9A9A;" d="M600.146,604.394c7.1-1.041,12.928,1.871,17.288,7.376c3.119,3.938,5.796,7.792,10.215,10.383
						c8.065,4.728,17.971,4.735,26.857,2.829c0.735-0.157,2.846-1.698,1.029-1.308c-11.186,2.398-23.946,0.885-31.739-8.279
						c-2.955-3.476-5.166-7.565-9.141-10.037c-3.922-2.439-8.383-3.055-12.882-2.395C601.18,603.05,598.793,604.592,600.146,604.394
						L600.146,604.394z"/>
				</g>
			</g>
		</g>
		<g>
			<path style="fill:#9B9A9A;" d="M415.373,480.808H145.708v56.333h0.3c-0.005,0.088-0.036,0.174-0.036,0.26
				c0,13.37,60.013,24.21,134.042,24.21s134.043-10.84,134.043-24.21c0-0.086-0.032-0.172-0.037-0.26h0.301L415.373,480.808z"/>
			<path style="fill:#9B9A9A;" d="M190.564,487.85c-10.083-2.261-20.168-4.521-30.252-6.781
				c-0.305,22.342-0.609,44.685-0.913,67.025c4.273,1.53,9.067,3.018,14.345,4.304c5.536,1.349,10.705,2.259,15.386,2.869
				C189.608,532.794,190.086,510.321,190.564,487.85z"/>
			<path style="fill:#9B9A9A;" d="M415.373,480.808c-13.735,2.869-27.47,5.738-41.206,8.607c-0.261,21.733-0.521,43.467-0.782,65.2
				c7.517-0.67,20.284-2.427,30.253-7.564c3.389-1.746,10.822-5.576,10.419-9.65c-0.012-0.11-0.026-0.201-0.037-0.26h0.301
				L415.373,480.808z"/>
			<path style="fill:#9B9A9A;" d="M144.925,480.808c5.129,1.13,10.258,2.261,15.387,3.391c-0.13,21.385-0.261,42.772-0.391,64.156
				c-3.034-1.247-5.512-2.47-7.368-3.456c-2.564-1.359-3.781-2.182-4.89-3.519c-1.061-1.28-1.636-2.565-1.956-3.455
				C145.447,518.885,145.186,499.846,144.925,480.808z"/>
			<path style="fill:#9B9A9A;" d="M136.58,430.995v40.686h0.098c2.663,15.936,66.047,28.686,143.863,28.686
				c77.815,0,141.202-12.751,143.863-28.686h0.099v-39.642L136.58,430.995z"/>
			<path style="fill:#9B9A9A;" d="M382.382,438.168c0.13,17.864,0.261,35.729,0.391,53.594c6.319-1.449,11.624-2.884,15.647-4.043
				c12.817-3.692,16.926-5.832,20.473-8.607c2.667-2.085,4.557-4.169,5.737-5.606c-0.042-13.822-0.087-27.645-0.129-41.467
				C410.461,434.082,396.421,436.125,382.382,438.168z"/>
			<path style="fill:#9B9A9A;" d="M165.919,448.99c0.043,13.214,0.087,26.428,0.13,39.642c5.398,1.521,11.323,2.957,17.735,4.173
				c6.397,1.214,12.424,2.047,17.995,2.608c0.217-13.128,0.435-26.254,0.652-39.381c-5.872-0.768-12.058-1.751-18.516-2.999
				C177.57,451.807,171.564,450.438,165.919,448.99z"/>
			<path style="fill:#9B9A9A;" d="M424.502,430.995c0,16.42-64.454,29.732-143.962,29.732c-79.507,0-143.96-13.312-143.96-29.732
				c0-16.42,64.453-29.73,143.96-29.73C360.048,401.265,424.502,414.575,424.502,430.995z"/>
			<ellipse style="fill:#9B9A9A;" cx="281.845" cy="429.691" rx="141.353" ry="27.645"/>
			<ellipse style="fill:#9B9A9A;" cx="289.799" cy="428.257" rx="131.443" ry="23.668"/>
			<path style="fill:#9B9A9A;" d="M353.825,543.66c-20.713,3.311-45.321,5.785-73.024,5.738
				c-27.046-0.047-51.115-2.486-71.458-5.738c0-10.344,0-20.69,0-31.035c20.233,3.235,44.12,5.662,70.936,5.738
				c27.911,0.079,52.696-2.404,73.546-5.738C353.825,522.971,353.825,533.316,353.825,543.66z"/>
			<path style="fill:#9B9A9A;" d="M353.955,543.53c-29.601,4.772-55.04,5.893-74.719,5.737c-21.046-0.166-41.477-1.841-41.466-2.086
				c0.007-0.156,8.275,0.077,14.735,0.261c0,0,70.155,1.986,83.195-7.303c4.955-3.529,4.955-7.042,4.955-7.042l0,0
				c0.742-3.33-0.45-6.326-1.565-9.127c-0.808-2.031-2.327-5.133-5.215-8.346c6.693-1.044,13.387-2.087,20.081-3.13
				C353.955,522.84,353.955,533.185,353.955,543.53z"/>
			<g>
				<path style="fill:#9B9A9A;" d="M271.518,537.443h-9.003v-12.057h8.729v1.431h-7.133v3.667h6.674v1.44h-6.674v4.089h7.408
					V537.443z"/>
				<path style="fill:#9B9A9A;" d="M277.103,537.655c-0.611,0-1.169-0.103-1.674-0.308c-0.504-0.205-0.935-0.501-1.293-0.89
					c-0.358-0.388-0.636-0.864-0.834-1.43c-0.198-0.565-0.298-1.215-0.298-1.948c0-0.721,0.098-1.365,0.293-1.93
					c0.196-0.566,0.472-1.045,0.83-1.44c0.357-0.394,0.79-0.694,1.297-0.898c0.508-0.204,1.067-0.308,1.679-0.308
					c0.471,0,0.906,0.063,1.306,0.188c0.401,0.125,0.755,0.306,1.064,0.542c0.309,0.234,0.561,0.529,0.756,0.884
					c0.196,0.354,0.327,0.762,0.394,1.22h-1.595c-0.024-0.526-0.22-0.927-0.586-1.201c-0.367-0.275-0.813-0.413-1.338-0.413
					c-0.374,0-0.711,0.07-1.014,0.212c-0.302,0.14-0.564,0.353-0.784,0.636c-0.22,0.285-0.391,0.635-0.513,1.05
					c-0.122,0.417-0.184,0.902-0.184,1.459c0,0.556,0.061,1.044,0.184,1.462c0.122,0.419,0.293,0.77,0.513,1.05
					c0.22,0.281,0.481,0.492,0.784,0.633c0.303,0.141,0.64,0.211,1.014,0.211c0.25,0,0.488-0.034,0.715-0.1
					c0.226-0.067,0.426-0.167,0.6-0.298c0.174-0.132,0.315-0.298,0.422-0.5c0.106-0.202,0.17-0.435,0.188-0.697h1.595
					c-0.067,0.465-0.2,0.871-0.398,1.22c-0.199,0.349-0.453,0.643-0.762,0.88c-0.309,0.238-0.662,0.417-1.059,0.537
					C278.007,537.596,277.573,537.655,277.103,537.655z"/>
				<path style="fill:#9B9A9A;" d="M285.528,528.504c0.624,0,1.189,0.104,1.696,0.313c0.508,0.207,0.941,0.51,1.297,0.902
					c0.357,0.394,0.633,0.875,0.825,1.44c0.193,0.565,0.289,1.206,0.289,1.921c0,0.721-0.098,1.365-0.293,1.93
					c-0.196,0.566-0.473,1.045-0.83,1.439c-0.357,0.395-0.79,0.693-1.297,0.898c-0.508,0.205-1.07,0.308-1.688,0.308
					c-0.611,0-1.169-0.103-1.673-0.308c-0.504-0.205-0.936-0.501-1.293-0.89c-0.358-0.388-0.636-0.864-0.835-1.43
					c-0.198-0.565-0.297-1.215-0.297-1.948c0-0.721,0.098-1.365,0.293-1.93c0.196-0.566,0.472-1.045,0.83-1.44
					c0.358-0.394,0.791-0.694,1.297-0.898C284.357,528.607,284.917,528.504,285.528,528.504z M285.528,536.435
					c0.367,0,0.702-0.07,1.004-0.211c0.303-0.141,0.565-0.352,0.789-0.633c0.224-0.28,0.395-0.631,0.514-1.05
					c0.12-0.418,0.179-0.906,0.179-1.462c0-0.557-0.059-1.042-0.179-1.459c-0.119-0.415-0.29-0.765-0.514-1.05
					c-0.223-0.283-0.486-0.496-0.789-0.636c-0.302-0.142-0.637-0.212-1.004-0.212c-0.372,0-0.71,0.07-1.013,0.212
					c-0.302,0.14-0.563,0.353-0.784,0.636c-0.22,0.285-0.391,0.635-0.513,1.05c-0.123,0.417-0.184,0.902-0.184,1.459
					c0,0.556,0.061,1.044,0.184,1.462c0.122,0.419,0.293,0.77,0.513,1.05c0.22,0.281,0.481,0.492,0.784,0.633
					C284.818,536.365,285.155,536.435,285.528,536.435z"/>
			</g>
			<path style="fill:#9B9A9A;" d="M297.79,540.235c2.026,1.596,3.04,2.394,4.379,2.477c2.871,0.179,5.091-2.746,5.628-3.455
				c2.633-3.469,1.025-5.756,3.617-9.03c2.052-2.591,4.572-3.069,4.313-3.869c-0.165-0.507-1.265-0.587-8.015-0.565
				c-4.847,0.015-5.268,0.06-5.892,0.185c-2.03,0.406-6.092,1.219-7.711,4.565c-0.093,0.19-1.262,2.704-0.23,5.434
				C294.513,537.654,295.652,538.551,297.79,540.235z"/>
			<g>
				<path style="fill:#9B9A9A;" d="M294.738,545.334c0.947-5.982,2.248-12.413,8.952-14.262c3.928-1.084,7.224-2.009,10.634-4.357
					c1.008-0.693-0.552-0.922-1.123-0.529c-3.292,2.268-6.608,3.065-10.332,4.115c-1.501,0.423-2.845,0.995-4.088,1.959
					c-4.115,3.188-5.087,8.457-5.854,13.304C292.815,546.259,294.641,545.947,294.738,545.334L294.738,545.334z"/>
			</g>
			<g>
				<path style="fill:#9B9A9A;" d="M298.149,534.197c2.832,2.142,6.751,3.679,9.706,0.852c0.799-0.765-0.966-0.962-1.497-0.454
					c-2.058,1.97-5.019-0.043-6.796-1.386C298.982,532.771,297.358,533.601,298.149,534.197L298.149,534.197z"/>
			</g>
		</g>
		<g>
			<path style="fill:#9B9A9A;" d="M241.741,387.44h0.148c-0.05-0.022-0.099-0.043-0.148-0.065V387.44z"/>
			<path style="fill:#9B9A9A;" d="M241.889,387.44c0.014,0.006,0.025,0.012,0.039,0.017c0.001-0.005,0.001-0.011,0.003-0.017
				H241.889z"/>
			<path style="fill:#9B9A9A;" d="M212.748,373.337v55.282h0.049c1.026,12.145,38.221,21.906,83.985,21.906
				c45.766,0,82.96-9.762,83.986-21.906h0.049v-55.795L212.748,373.337z"/>
			<path style="fill:#9B9A9A;" d="M353.433,388.912c0.085,18.569,0.171,37.14,0.256,55.709c2.006-0.449,4.959-1.179,8.472-2.311
				c4.829-1.557,7.769-2.504,11.039-4.622c1.893-1.224,4.696-3.358,7.445-6.931c0.058-19.312,0.114-38.622,0.171-57.934
				c-3.486,3.737-9.081,8.744-17.115,12.494C359.976,387.057,356.473,388.177,353.433,388.912z"/>
			<path style="fill:#9B9A9A;" d="M218.127,390.257c0,10.704,0,21.408,0,32.113c1.328,0.804,3.362,1.993,5.91,3.294
				c4.393,2.242,17.813,8.649,46.462,10.985c14.598,1.19,25.758,0.721,36.668,0.261c10.548-0.444,19.414-1.246,25.917-1.955
				c0-11.085,0-22.169,0-33.252c-16.709,1.612-30.869,1.986-41.565,1.956c0,0-38.481-0.111-61.408-8.292
				c-1.296-0.462-2.57-0.954-2.57-0.954C225.61,393.662,222.222,392.285,218.127,390.257z"/>
			<path style="fill:#9B9A9A;" d="M315.479,402.681c4.887,9.07,4.73,14.81,2.935,18.582c-9.599,20.155-76.664,6.434-100.287,1.107
				c1.328,0.804,3.362,1.993,5.91,3.294c4.393,2.242,17.813,8.649,46.462,10.985c14.598,1.19,25.758,0.721,36.668,0.261
				c10.548-0.444,19.414-1.246,25.917-1.955c0-11.085,0-22.169,0-33.252C327.216,402.028,321.348,402.354,315.479,402.681z"/>
			<ellipse style="fill:#9B9A9A;" cx="296.782" cy="373.337" rx="84.034" ry="22.42"/>
			<path style="fill:#9B9A9A;" d="M380.817,373.337c-0.033,6.5-10.64,13.043-26.357,16.601c-5.134-3.594-10.269-7.188-15.403-10.782
				c-35.407-16.517-43.379-24.313-42.274-28.24c2.086-7.406,37.562-4.915,65.379,7.445
				C370.179,361.924,380.85,366.799,380.817,373.337z"/>
			<path style="fill:#9B9A9A;" d="M219.594,350.232c0.798,7.189,1.598,14.377,2.396,21.565
				c17.895,5.697,45.178,12.087,78.729,11.296c30.115-0.71,54.686-6.957,71.54-12.665c0.114-6.618,0.228-13.236,0.342-19.854
				C321.599,350.46,270.596,350.346,219.594,350.232z"/>
			<path style="fill:#9B9A9A;" d="M338.714,362.897c0.028,5.334,0.058,10.668,0.086,16.002c4.147-0.414,8.168-1.188,12.064-2.31
				l0.002,0c4.334-1.26,11.631-3.376,21.308-6.161c0.143-6.618,0.286-13.236,0.428-19.854
				C361.306,354.682,350.01,358.79,338.714,362.897z"/>
			<ellipse style="fill:#9B9A9A;" cx="296.269" cy="350.917" rx="76.675" ry="14.377"/>
			<path style="fill:#9B9A9A;" d="M372.174,353.227c0.093,0.151-1.241,1.186-2.183,1.798c-2.065,1.342-3.953,2.075-4.924,2.411
				c-0.203,0.07-0.361,0.122-0.467,0.156c-2.364,0.763-6.919,1.997-11.039,3.081c-5.208,0.82-7.14,1.181-7.872,1.354
				c-0.171,0.04-1.019,0.238-2.174,0.449c-0.209,0.039-0.417,0.072-0.737,0.123c-3.922,0.618-8.658,1.02-17.971,1.797
				c-7.94,0.663-11.911,0.995-15.531,1.155c-7.45,0.331-13.147,0.221-17.072,0.128c0,0-49.149-1.16-65.85-8.728
				c-0.895-0.405-4.325-1.96-4.237-2.182c0.081-0.201,2.984,0.781,3.338,0.898c3.468,1.149,26.802,7.086,66.877,7.702
				c0,0,42.581,0.654,71.753-7.06c1.227-0.324,2.183-0.642,2.183-0.642C369.899,354.46,372.058,353.042,372.174,353.227z"/>
			<path style="fill:#9B9A9A;" d="M248.382,442.516c-5.051-0.584-11.359-1.813-18.274-4.41c-4.215-1.583-7.869-3.381-10.953-5.135
				c0.228-0.913,0.456-1.825,0.685-2.739c3.654,1.875,8.001,3.803,13.007,5.478c6.01,2.011,11.514,3.172,16.174,3.851
				C248.807,440.545,248.594,441.53,248.382,442.516z"/>
		</g>
		<g>
			<path style="fill:#9B9A9A;" d="M180.383,536.604c-12.014-10.27-28.753-6.867-32.559-6.094
				c-18.768,3.814-18.808,15.499-39.695,22.974c-18.821,6.735-31.719,1.924-33.438,7.257c-2.073,6.429,16.397,18.072,25.574,22.941
				c7.609,4.036,16.577,8.794,28.058,9.873c28.564,2.682,62.178-18.134,62.082-38.187
				C190.357,545.56,182.259,538.206,180.383,536.604z"/>
			<path style="fill:#9B9A9A;" d="M168.964,533.017c-11.205-7.242-24.41-2.27-25.776-1.729c-4.121,1.627-7.223,4.016-12.003,7.696
				c-5.4,4.158-6.639,6.176-11.363,9.331c-4.764,3.182-8.897,4.731-11.945,5.852c-18.277,6.725-30.733,2.735-32.279,7.062
				c-1.698,4.754,11.926,13.504,13.838,14.732c3.373,2.166,13.913,8.775,28.059,9.874c29.899,2.322,63.65-20.915,62.082-38.188
				C178.826,539.392,170.117,533.763,168.964,533.017z"/>
			<path style="fill:#9B9A9A;" d="M167.029,540.358c-7.46-6.001-20.534-2.389-21.896-1.994c-4.103,1.186-7.561,3.001-12.891,5.798
				c-6.02,3.159-7.739,4.725-12.852,7.107c-5.157,2.401-9.247,3.527-12.256,4.341c-18.047,4.876-27.627,1.417-30.344,4.803
				c-2.985,3.72,6.102,10.974,7.377,11.992c2.249,1.796,9.332,7.279,21.3,8.492c25.296,2.564,62.052-15.001,66.163-28.705
				C173.593,545.642,167.796,540.977,167.029,540.358z"/>
			<path style="fill:#9B9A9A;" d="M146.883,550.362c0.21-1.34,0.803-5.122-1.306-7.008c-6.052-5.407-22.633,15.281-50.106,16.651
				c-7.575,0.378-17.194-0.651-17.568,1.296c-0.188,0.975,2.047,2.183,4.73,3.607c1.603,0.85,8.533,4.526,15.509,5.56
				C112.64,572.613,144.45,565.871,146.883,550.362z"/>
			<g>
				<path style="fill:#9B9A9A;" d="M197.942,556.435c-10.794-4.32-22.282-7.407-33.998-7.043c-13.157,0.41-22.87,6.87-34.546,11.856
					c-16.823,7.184-36.094,6.472-52.648-1.043c-1.559-0.708,0.993-1.833,2.026-1.364c10.027,4.552,21.073,6.454,32.045,5.308
					c11.975-1.251,21.395-7.054,32.132-11.843c18.201-8.117,38.508-4.662,56.412,2.502
					C201.148,555.523,199.161,556.923,197.942,556.435L197.942,556.435z"/>
			</g>
			<g>
				<path style="fill:#9B9A9A;" d="M139.354,556.086c-7.735,3.827-14.737,7.858-20.542,14.363
					c-4.531,5.077-8.717,9.783-15.627,11.271c-1.392,0.3-2.761-1.041-0.834-1.456c8.506-1.832,12.571-10.066,18.664-15.367
					c4.798-4.175,10.567-7.025,16.226-9.824C138.096,554.65,140.82,555.361,139.354,556.086L139.354,556.086z"/>
			</g>
			<g>
				<path style="fill:#9B9A9A;" d="M167.882,548.985c-6.808,2.264-10.704,7.488-12.121,14.365c-1.013,4.92-1.67,9.567-4.451,13.869
					c-5.074,7.85-13.919,12.314-22.712,14.61c-0.726,0.189-3.306-0.236-1.507-0.705c11.068-2.891,21.784-9.982,24.621-21.674
					c1.076-4.434,1.209-9.08,3.646-13.077c2.404-3.943,6.113-6.5,10.428-7.935C166.352,548.252,169.179,548.554,167.882,548.985
					L167.882,548.985z"/>
			</g>
		</g>
		<polygon style="fill:#9B9A9A;" points="445.877,569.565 464.489,557.158 483.126,569.229 483.151,593.705 464.537,606.113 
			445.9,594.043 		"/>
		<path style="fill:#9B9A9A;" d="M473.721,589.97c8.148-7.48,9.474-18.145,9.719-20.54c0.008,8.16,0.017,16.318,0.023,24.479
			l-18.612,12.407l-18.637-12.069C455.646,598.466,466.179,596.894,473.721,589.97z"/>
		<polygon style="fill:#9B9A9A;" points="468.232,528.144 486.846,515.736 505.483,527.806 505.508,552.283 486.895,564.691 
			468.258,552.622 		"/>
		<path style="fill:#9B9A9A;" d="M496.076,548.548c8.147-7.479,9.473-18.145,9.718-20.539c0.009,8.159,0.017,16.318,0.025,24.478
			l-18.613,12.407l-18.638-12.07C478.002,557.044,488.534,555.472,496.076,548.548z"/>
		<path style="fill:#9B9A9A;" d="M437.876,555.738v45.046c0,5.291,16.738,9.579,37.385,9.579c20.648,0,37.386-4.288,37.386-9.579
			v-45.046c-10.444,1.604-22.306,2.74-35.346,2.848C462.608,558.708,449.355,557.5,437.876,555.738z"/>
		<path style="fill:#9B9A9A;" d="M463.932,558.068c-0.263,17.302-0.527,34.604-0.792,51.906c3.931,0.211,7.974,0.345,12.121,0.389
			c1.989,0.022,3.952,0.021,5.892,0c0.227-17.345,0.453-34.69,0.679-52.036c-3.073,0.236-6.409,0.348-9.969,0.259
			C469.064,558.518,466.416,558.332,463.932,558.068z"/>
		<path style="fill:#9B9A9A;" d="M497.919,557.292c0,17.173,0,34.346,0,51.518c1.814-0.493,3.352-0.94,4.532-1.294
			c4.458-1.334,5.6-1.916,6.345-2.329c1.448-0.809,2.726-1.784,3.851-2.849c0-15.533,0-31.066,0-46.6
			c-1.836,0.288-3.724,0.549-5.663,0.777C503.845,556.883,500.82,557.134,497.919,557.292z"/>
		<path style="fill:#9B9A9A;" d="M426.433,390.699c3.182,2.222,5.82,2.779,7.705,2.848c1.999,0.073,3.314-0.397,7.703-0.518
			c0,0,1.769-0.048,3.625,0c5.74,0.15,11.151,2.215,13.142,2.848c5.094,1.619,6.932-0.063,17.9-1.295
			c11.044-1.24,11.861,0.164,25.829-0.517c5.326-0.26,13.034-0.845,22.433-2.33c-0.496,2.2-1.201,5.615-1.813,9.837
			c-1.262,8.691-1.329,15.335-1.361,17.346c-0.086,5.525-0.295,1.563-3.171,44.268c-2.108,31.306-3.162,46.958-3.398,57.991
			c-0.099,4.582-0.218,7.197-0.454,12.426c-0.639,14.12-0.979,21.222-2.038,23.3c-1.233,2.418-4.896,7.496-37.159,7.249
			c-31.301-0.241-35.634-5.079-37.387-8.284c-1.251-2.29-1.178-3.729-1.813-17.862c-0.398-8.894-1.115-17.767-1.359-26.666
			c-0.377-13.707-0.852-31.023-1.812-47.636c-0.132-2.258-0.573-9.337-1.301-18.595c-0.727-9.218-1.372-15.89-2.324-25.674
			C428.647,411.928,427.667,402.177,426.433,390.699z"/>
		<path style="fill:#9B9A9A;" d="M489.876,395.618c4.11-0.543,8.265-1.062,12.461-1.554c7.596-0.89,15.073-1.664,22.433-2.33
			c-0.496,2.2-1.201,5.615-1.813,9.837c-1.262,8.691-1.329,15.335-1.361,17.346c-0.086,5.525-0.295,1.563-3.171,44.268
			c-1.621,24.064-1.739,38.169-3.398,57.991c-1.207,14.407-1.07,11.093-1.11,11.091c-0.059-0.004-0.2,2.272-0.249,3.147
			c-0.618,10.847,0.735,19.95-3.173,24.335c-1.333,1.495-3.984,1.946-9.29,2.849c-5.83,0.99-10.705,1.109-14.048,1.035
			C488.063,507.629,488.969,451.624,489.876,395.618z"/>
		<path style="fill:#9B9A9A;" d="M464.406,591.523c0.982,0.58,1.995-0.153,4.188-0.77c5.338-1.502,10.557-0.312,12.295,0.085
			c3.78,0.862,5.104,2.117,6.325,1.284c1.81-1.234,0.768-5.266,0.624-5.822c-0.958-3.704-3.802-5.802-4.722-6.42
			c-2.953-1.986-5.951-2.108-7.127-2.141c-1.081-0.03-3.896-0.072-6.86,1.541c-0.783,0.426-4.257,2.316-5.436,6.164
			C463.102,587.375,462.844,590.601,464.406,591.523z"/>
		<path style="fill:#9B9A9A;" d="M464.272,591.271c0.189,0.386,0.733,0.459,1.189,0.453c1.907-0.741,4.381-1.453,7.308-1.684
			c5.572-0.438,10.055,1.089,12.688,2.266c0.684,0.159,1.533,0.244,1.869-0.259c0.803-1.2-1.52-5.45-4.532-7.767
			c-3.977-3.059-8.433-2.182-8.949-2.07C467.949,583.476,463.539,589.783,464.272,591.271z"/>
		<path style="fill:#9B9A9A;" d="M424.848,380.085c0.604,3.97,1.208,7.939,1.813,11.909c13.641,3.416,31.287,6.344,51.886,6.04
			c17.975-0.265,33.546-2.921,45.996-6.04c0.151-3.625,0.303-7.249,0.453-10.873c-19.995,1.259-41.345,1.724-63.896,1.036
			C448.596,381.774,436.502,381.061,424.848,380.085z"/>
		<rect x="475.525" y="383.192" style="opacity:0.2;fill:#9B9A9A;" width="1.813" height="13.461"/>
		<polygon style="opacity:0.2;fill:#9B9A9A;" points="522.227,391.451 520.42,391.306 520.965,382.439 522.774,382.585 		"/>
		<rect x="517.593" y="382.328" style="opacity:0.2;fill:#9B9A9A;" width="1.813" height="9.493"/>
		<rect x="514.799" y="382.501" style="opacity:0.2;fill:#9B9A9A;" width="1.813" height="10.183"/>
		<rect x="511.93" y="382.674" style="opacity:0.2;fill:#9B9A9A;" width="1.813" height="10.441"/>
		<rect x="509.06" y="382.674" style="opacity:0.2;fill:#9B9A9A;" width="1.813" height="11.304"/>
		<rect x="506.114" y="382.847" style="opacity:0.2;fill:#9B9A9A;" width="1.813" height="11.822"/>
		<rect x="503.319" y="383.019" style="opacity:0.2;fill:#9B9A9A;" width="1.813" height="12.081"/>
		<rect x="500.563" y="383.019" style="opacity:0.2;fill:#9B9A9A;" width="1.814" height="12.771"/>
		<rect x="497.769" y="383.062" style="opacity:0.2;fill:#9B9A9A;" width="1.813" height="13.462"/>
		<rect x="494.974" y="383.148" style="opacity:0.2;fill:#9B9A9A;" width="1.813" height="13.462"/>
		<rect x="492.103" y="383.235" style="opacity:0.2;fill:#9B9A9A;" width="1.813" height="13.462"/>
		<rect x="489.423" y="383.364" style="opacity:0.2;fill:#9B9A9A;" width="1.813" height="13.462"/>
		<rect x="486.553" y="383.321" style="opacity:0.2;fill:#9B9A9A;" width="1.813" height="13.461"/>
		<rect x="483.644" y="383.278" style="opacity:0.2;fill:#9B9A9A;" width="1.813" height="13.462"/>
		<rect x="480.851" y="383.278" style="opacity:0.2;fill:#9B9A9A;" width="1.813" height="13.462"/>
		<rect x="478.056" y="383.235" style="opacity:0.2;fill:#9B9A9A;" width="1.813" height="13.462"/>
		
			<rect x="472.505" y="383.192" transform="matrix(-1 -1.224647e-16 1.224647e-16 -1 946.8223 779.8452)" style="opacity:0.2;fill:#9B9A9A;" width="1.813" height="13.461"/>
		<polygon style="opacity:0.2;fill:#9B9A9A;" points="427.615,391.451 429.423,391.306 428.876,382.439 427.068,382.585 		"/>
		
			<rect x="430.435" y="382.328" transform="matrix(-1 -1.224647e-16 1.224647e-16 -1 862.6835 774.1489)" style="opacity:0.2;fill:#9B9A9A;" width="1.813" height="9.493"/>
		
			<rect x="433.23" y="382.501" transform="matrix(-1 -1.224647e-16 1.224647e-16 -1 868.2735 775.1856)" style="opacity:0.2;fill:#9B9A9A;" width="1.813" height="10.183"/>
		
			<rect x="436.101" y="382.674" transform="matrix(-1 -1.224647e-16 1.224647e-16 -1 874.0137 775.789)" style="opacity:0.2;fill:#9B9A9A;" width="1.813" height="10.441"/>
		
			<rect x="438.971" y="382.674" transform="matrix(-1 -1.224647e-16 1.224647e-16 -1 879.7539 776.6518)" style="opacity:0.2;fill:#9B9A9A;" width="1.813" height="11.304"/>
		
			<rect x="441.916" y="382.847" transform="matrix(-1 -1.224647e-16 1.224647e-16 -1 885.6445 777.5156)" style="opacity:0.2;fill:#9B9A9A;" width="1.812" height="11.822"/>
		
			<rect x="444.711" y="383.019" transform="matrix(-1 -1.224647e-16 1.224647e-16 -1 891.2343 778.1186)" style="opacity:0.2;fill:#9B9A9A;" width="1.813" height="12.081"/>
		
			<rect x="447.467" y="383.019" transform="matrix(-1 -1.224647e-16 1.224647e-16 -1 896.7461 778.8095)" style="opacity:0.2;fill:#9B9A9A;" width="1.813" height="12.771"/>
		
			<rect x="450.262" y="383.062" transform="matrix(-1 -1.224647e-16 1.224647e-16 -1 902.3359 779.5859)" style="opacity:0.2;fill:#9B9A9A;" width="1.813" height="13.462"/>
		
			<rect x="453.057" y="383.148" transform="matrix(-1 -1.224647e-16 1.224647e-16 -1 907.9257 779.7592)" style="opacity:0.2;fill:#9B9A9A;" width="1.813" height="13.462"/>
		
			<rect x="455.927" y="383.235" transform="matrix(-1 -1.224647e-16 1.224647e-16 -1 913.6661 779.9317)" style="opacity:0.2;fill:#9B9A9A;" width="1.813" height="13.462"/>
		
			<rect x="458.607" y="383.364" transform="matrix(-1 -1.224647e-16 1.224647e-16 -1 919.0273 780.1905)" style="opacity:0.2;fill:#9B9A9A;" width="1.813" height="13.462"/>
		
			<rect x="461.477" y="383.321" transform="matrix(-1 -1.224647e-16 1.224647e-16 -1 924.7675 780.104)" style="opacity:0.2;fill:#9B9A9A;" width="1.813" height="13.461"/>
		
			<rect x="464.385" y="383.278" transform="matrix(-1 -1.224647e-16 1.224647e-16 -1 930.5821 780.018)" style="opacity:0.2;fill:#9B9A9A;" width="1.813" height="13.462"/>
		
			<rect x="467.18" y="383.278" transform="matrix(-1 -1.224647e-16 1.224647e-16 -1 936.1719 780.018)" style="opacity:0.2;fill:#9B9A9A;" width="1.813" height="13.462"/>
		
			<rect x="469.975" y="383.235" transform="matrix(-1 -1.224647e-16 1.224647e-16 -1 941.7617 779.9317)" style="opacity:0.2;fill:#9B9A9A;" width="1.813" height="13.462"/>
		<path style="fill:#9B9A9A;" d="M434.288,452.056c6.139,17.766,7.141,32.111,8.308,50.74c2.934,46.834,3.321,55.859,0.453,56.782
			c-1.189,0.385-3.006-0.606-5.891-5.004c-1.293-15.29-1.927-27.81-2.266-36.418c-0.763-19.326-0.458-29.448-1.662-49.878
			c-0.599-10.159-1.311-18.447-1.813-23.818C432.145,446.226,433.177,448.838,434.288,452.056z"/>
		<path style="fill:#9B9A9A;" d="M515.855,457.923c-4.822,16.914-5.606,29.366-6.948,46.427
			c-3.303,42.029-5.524,55.247-1.813,56.695c1.031,0.402,2.829,0.019,6.119-4.142c1.023-15.925,1.733-28.893,2.19-37.711
			c1.024-19.811,1.363-30.16,2.567-48.67c0.688-10.58,1.361-19.19,1.813-24.681C518.752,448.657,517.315,452.808,515.855,457.923z"
			/>
		<path style="fill:#9B9A9A;" d="M457.021,397.43c0.706,1.067,8.041,11.747,20.619,11.392c12.162-0.344,18.96-10.718,19.711-11.909
			c-6.306,0.727-13.203,1.217-20.618,1.295C469.674,398.28,463.08,397.972,457.021,397.43z"/>
		<path style="fill:#9B9A9A;" d="M439.349,556.386c0.968-3.125,19.782,3.998,40.104,5.954c6.479,0.624,15.858,0.987,27.416-0.518
			c-10.622,1.903-19.427,2.451-25.603,2.59c-16.725,0.375-40.99-1.655-41.917-7.508
			C439.315,556.697,439.295,556.558,439.349,556.386z"/>
		<path style="fill:#9B9A9A;" d="M489.898,512.634h-28.595c-6.745,0-12.214-5.467-12.214-12.212v-40.297
			c0-6.745,5.469-12.212,12.214-12.212h28.595c6.745,0,12.213,5.467,12.213,12.212v40.297
			C502.111,507.167,496.644,512.634,489.898,512.634z"/>
		<path style="fill:#9B9A9A;" d="M490.685,512.634c-3.895,0-7.79,0-11.685,0c2.772-0.455,6.904-1.641,10.423-5.178
			c5.077-5.104,5.802-13.414,7.249-30.03c1.024-11.737,0.355-16.667-1.358-21.229c-1.408-3.745-3.241-6.496-4.628-8.284
			c0.762,0,4.81,0.087,8.078,3.823c2.067,2.361,3.348,5.625,3.348,9.229v38.615C502.111,506.79,496.996,512.634,490.685,512.634z"/>
	</g>
	<g>
		<path style="fill:#B0CEA7;" d="M543.305,304.927c0.248-17.313,0.497-34.625,0.746-51.938c16.981-0.912,33.962-1.822,50.944-2.734
			c0.249,18.473,0.497,36.945,0.745,55.418C578.261,305.424,560.784,305.175,543.305,304.927z"/>
		<path style="fill:#779170;" d="M586.546,304.927c0.042-17.313,0.087-34.625,0.13-51.938c2.979-0.912,5.956-1.822,8.935-2.734
			c0.043,18.473,0.087,36.945,0.13,55.418C592.675,305.424,589.611,305.175,586.546,304.927z"/>
		<path style="fill:#D1EDC8;" d="M549.642,304.927c0.07-17.313,0.14-34.625,0.211-51.938c4.789-0.912,9.576-1.822,14.365-2.734
			c0.069,18.473,0.142,36.945,0.211,55.418C559.5,305.424,554.57,305.175,549.642,304.927z"/>
		<path style="fill:#97B78F;" d="M620.592,350.653c-32.721-0.332-65.44-0.663-98.16-0.995c-1.162-5.493-2.949-18.039,3.229-31.063
			c2.353-4.959,6.541-13.785,15.408-17.396c8.866-3.61,12.474,2.095,28.081,2.237c17.518,0.159,21.072-6.934,31.065-3.231
			c10.519,3.899,15.406,15.035,17.643,20.129C623.681,333.603,621.655,345.86,620.592,350.653z"/>
		<path style="fill:#E1E8EF;" d="M523.673,338.973c-2.19,0.503-17.262,4.169-28.329,16.898
			c-11.688,13.442-10.858,27.725-12.426,68.092c-1.637,42.148-2.324,21.009-3.976,72.066c-2.212,68.367,0.079,73.613,2.98,78.033
			c18.749,28.538,66.357,27.517,97.912,26.838c32.36-0.694,73.101-1.569,89.465-27.336c6.005-9.458,4.155-15.072,0-80.019
			c-1.684-26.292-2.525-43.284-5.468-72.068c-4.329-42.355-7.891-58.256-20.875-70.576c-2.753-2.612-11.064-10.315-23.856-13.419
			c-19.34-4.693-25.433,6.827-50.199,6.958C546.066,344.562,541.771,334.82,523.673,338.973z"/>
		<path style="fill:#C7CBD1;" d="M579.835,600.9c68.446,3.538,85.621-20.926,89.465-27.336c5.91-9.856,4.055-16.64,0-80.019
			c-1.684-26.292-2.525-43.284-5.468-72.068c-4.219-41.263-7.74-57.681-20.875-70.576c-8.01-7.863-16.976-11.848-23.297-13.978
			c-1.858-0.435-4.121-0.813-6.71-0.932c-2.169-0.1-4.116,0.001-5.779,0.186c4.771,6.317,11.566,16.172,17.893,29.137
			c7.398,15.159,17.313,40.834,15.905,128.727c-1.079,67.406-6.998,80.501-16.898,89.961
			C610.248,597.211,591.899,600.248,579.835,600.9z"/>
		<path style="fill:#A5A8AD;" d="M501.06,227.89l4.224,15.656l35.785,8.698l26.342,12.176c0.725-1.756,2.405-5.116,5.965-7.703
			c5.185-3.769,10.977-3.445,12.923-3.231c11.195,1.236,16.621,12.306,19.632,10.686c1.042-0.56,1.959-2.729,0-11.183
			c-0.502-3.215-1.676-7.599-4.723-11.68c-7.739-10.368-22.057-11.401-38.517-12.177C544.468,228.273,523.828,227.738,501.06,227.89
			z"/>
		<path style="fill:#EDEDED;" d="M501.06,227.89l4.224,15.816l35.785,8.786l26.342,12.302c-0.152-6.361,2.265-9.396,3.23-10.438
			c6.11-6.585,20.063-4.421,27.584,1.864c4.676,3.905,6.214,8.855,7.705,8.323c1.699-0.607,0.602-7.405,0-11.297
			c-0.502-3.247-1.676-7.676-4.723-11.799c-7.739-10.474-22.057-11.517-38.517-12.301
			C544.468,228.277,523.828,227.737,501.06,227.89z"/>
		<path style="fill:#FFFFFF;" d="M545.293,365.066c-2.059-4.342-16.168-3.692-24.231,0.745
			c-15.067,8.294-15.325,33.289-16.027,59.27c-2.859,105.701-10.704,139.85,7.828,149.105c1.017,0.508,7.461,3.726,12.674,1.118
			c8.881-4.442,7.58-22.483,6.709-52.188c-0.5-17.018-0.36-34.048-0.745-51.068c-1.527-67.725,0.332-86.715,9.691-98.037
			C542.68,372.214,546.622,367.868,545.293,365.066z"/>
		<path style="fill:#D1EDC8;" d="M563.932,303.188c-2.962,3.211-7.801,9.286-10.81,18.265c-2.941,8.775-2.815,16.367-2.423,20.689
			c-0.977-0.231-2.547-0.612-4.474-1.118c-6.314-1.657-8.044-2.446-11.183-2.796c-1.6-0.178-4.023-0.294-7.082,0.186
			c1.318-6.751,4.311-17.07,11.742-27.397c3.221-4.476,6.61-8.035,9.692-10.811C554.239,301.2,559.085,302.193,563.932,303.188z"/>
		<path style="fill:#779170;" d="M586.671,300.578c2.638,0.566,7.229,1.961,11.183,5.778c4.055,3.917,5.376,8.387,7.081,14.166
			c1.097,3.709,2.312,9.18,2.423,16.028c1.852-0.324,4.503-0.58,7.643-0.186c2.897,0.363,5.242,1.158,6.896,1.864
			c-0.473-8.225-2.607-14.523-4.287-18.452c-2.354-5.506-5.283-12.357-12.487-16.961c-3.542-2.264-6.974-3.253-9.32-3.728
			c-0.977,0.005-2.038,0.059-3.167,0.186C590.327,299.534,588.322,300.035,586.671,300.578z"/>
		<path style="fill:#A5A8AD;" d="M583.315,231.12c-16.898,1.144-35.791,1.327-56.286-0.249c-9.03-0.694-17.655-1.674-25.846-2.858
			c18.758-1.485,39.851-1.665,62.749,0.622C570.623,229.303,577.088,230.144,583.315,231.12z"/>
		<path style="fill:#A5A8AD;" d="M500.81,227.89c6.168,5.567,8.927,11.269,7.207,14.041c-0.358,0.576-1.086,1.309-2.734,1.74
			C503.792,238.41,502.301,233.15,500.81,227.89z"/>
		<path style="fill:#B0CEA7;" d="M595.615,526.101H543.43c-12.146,0-21.993-9.848-21.993-21.994v-74.553
			c0-12.146,9.848-21.992,21.993-21.992h52.185c12.148,0,21.994,9.847,21.994,21.992v74.553
			C617.609,516.253,607.764,526.101,595.615,526.101z"/>
		<path style="fill:#97B78F;" d="M595.615,526.101H543.43c15.327-0.311,50.482-2.853,60.014-23.112
			c2.079-4.417,0.304-4.074,2.238-41.004c0.775-14.813,1.408-21.515-0.747-31.313c-2.244-10.203-6.259-18.058-9.319-23.11
			c1.467,0,9.258,0.147,15.552,6.441c3.981,3.98,6.442,9.479,6.442,15.551v74.553C617.609,516.253,607.764,526.101,595.615,526.101z
			"/>
		<g>
			<path style="fill:#687C61;" d="M546.057,434.061h1.574v10.748h5.151v1.306h-6.726V434.061z"/>
			<path style="fill:#687C61;" d="M556.219,435.028c0,0.536-0.374,0.966-1,0.966c-0.572,0-0.947-0.43-0.947-0.966
				c0-0.537,0.392-0.984,0.982-0.984C555.827,434.044,556.219,434.475,556.219,435.028z M554.468,446.115v-8.655h1.573v8.655
				H554.468z"/>
			<path style="fill:#687C61;" d="M564.556,444.792h-0.035c-0.484,0.841-1.431,1.521-2.826,1.521c-2.019,0-3.665-1.734-3.665-4.365
				c0-3.253,2.091-4.666,3.915-4.666c1.342,0,2.236,0.661,2.665,1.484h0.035l0.055-1.306h1.484
				c-0.036,0.716-0.072,1.484-0.072,2.378v9.819h-1.556V444.792z M564.556,440.965c0-0.214-0.019-0.446-0.072-0.644
				c-0.249-0.965-1.071-1.788-2.252-1.788c-1.628,0-2.612,1.377-2.612,3.309c0,1.734,0.824,3.218,2.559,3.218
				c1.02,0,1.896-0.625,2.254-1.697c0.07-0.233,0.124-0.538,0.124-0.768V440.965z"/>
			<path style="fill:#687C61;" d="M575.971,443.738c0,0.91,0.018,1.697,0.071,2.377h-1.396l-0.09-1.412h-0.035
				c-0.393,0.697-1.322,1.609-2.861,1.609c-1.358,0-2.986-0.769-2.986-3.791v-5.062h1.574v4.775c0,1.645,0.519,2.771,1.932,2.771
				c1.054,0,1.788-0.733,2.075-1.448c0.089-0.216,0.142-0.501,0.142-0.806v-5.293h1.574V443.738z"/>
			<path style="fill:#687C61;" d="M580.338,435.028c0,0.536-0.375,0.966-1,0.966c-0.571,0-0.948-0.43-0.948-0.966
				c0-0.537,0.393-0.984,0.984-0.984C579.945,434.044,580.338,434.475,580.338,435.028z M578.587,446.115v-8.655h1.574v8.655
				H578.587z"/>
			<path style="fill:#687C61;" d="M590.231,433.418v10.462c0,0.768,0.035,1.645,0.071,2.235h-1.396l-0.07-1.503h-0.056
				c-0.464,0.968-1.501,1.7-2.914,1.7c-2.092,0-3.72-1.771-3.72-4.398c-0.018-2.879,1.788-4.633,3.88-4.633
				c1.342,0,2.217,0.627,2.612,1.307h0.034v-5.17H590.231z M588.674,440.982c0-0.195-0.017-0.464-0.071-0.661
				c-0.231-0.983-1.09-1.807-2.271-1.807c-1.627,0-2.593,1.432-2.593,3.327c0,1.751,0.877,3.2,2.559,3.2
				c1.055,0,2.021-0.715,2.306-1.877c0.055-0.215,0.071-0.43,0.071-0.68V440.982z"/>
			<path style="fill:#687C61;" d="M549.602,465.995c0.482,0.286,1.305,0.608,2.09,0.608c1.129,0,1.664-0.554,1.664-1.288
				c0-0.751-0.447-1.145-1.591-1.572c-1.573-0.572-2.308-1.414-2.308-2.45c0-1.396,1.145-2.539,2.987-2.539
				c0.876,0,1.646,0.232,2.11,0.536l-0.376,1.145c-0.339-0.215-0.966-0.521-1.771-0.521c-0.93,0-1.43,0.538-1.43,1.182
				c0,0.715,0.5,1.037,1.627,1.483c1.484,0.555,2.271,1.307,2.271,2.595c0,1.537-1.197,2.609-3.219,2.609
				c-0.947,0-1.823-0.25-2.433-0.606L549.602,465.995z"/>
			<path style="fill:#687C61;" d="M564.732,463.189c0,3.2-2.234,4.595-4.309,4.595c-2.324,0-4.148-1.716-4.148-4.452
				c0-2.879,1.914-4.577,4.29-4.577C563.054,458.754,564.732,460.559,564.732,463.189z M557.884,463.277
				c0,1.896,1.074,3.326,2.611,3.326c1.502,0,2.629-1.413,2.629-3.361c0-1.466-0.733-3.309-2.593-3.309
				C558.688,459.934,557.884,461.65,557.884,463.277z"/>
			<path style="fill:#687C61;" d="M572.803,465.513c0,0.751,0.037,1.485,0.126,2.074h-1.413l-0.124-1.091h-0.055
				c-0.482,0.681-1.413,1.287-2.646,1.287c-1.753,0-2.648-1.232-2.648-2.485c0-2.092,1.86-3.236,5.203-3.219v-0.178
				c0-0.697-0.196-2.004-1.966-1.987c-0.823,0-1.664,0.233-2.272,0.645l-0.358-1.055c0.716-0.447,1.772-0.75,2.861-0.75
				c2.648,0,3.29,1.805,3.29,3.521V465.513z M571.283,463.171c-1.716-0.037-3.666,0.269-3.666,1.948c0,1.038,0.68,1.503,1.467,1.503
				c1.145,0,1.877-0.716,2.129-1.448c0.053-0.18,0.07-0.358,0.07-0.502V463.171z"/>
			<path style="fill:#687C61;" d="M575.348,461.757c0-1.107-0.036-2.002-0.07-2.825h1.395l0.09,1.484h0.034
				c0.626-1.055,1.663-1.662,3.076-1.662c2.111,0,3.683,1.77,3.683,4.38c0,3.112-1.912,4.649-3.95,4.649
				c-1.146,0-2.146-0.5-2.664-1.358h-0.037v4.703h-1.556V461.757z M576.903,464.065c0,0.232,0.019,0.447,0.071,0.643
				c0.287,1.091,1.234,1.843,2.36,1.843c1.664,0,2.63-1.36,2.63-3.345c0-1.718-0.913-3.201-2.576-3.201
				c-1.072,0-2.091,0.752-2.378,1.932c-0.054,0.196-0.107,0.429-0.107,0.626V464.065z"/>
		</g>
		<path style="opacity:0.4;fill:#9D9FA0;" d="M395.045,252.476v218.18c0,7.135,14.975,12.919,33.445,12.919
			s33.443-5.784,33.443-12.919v-218.18c-8.103,3.373-19.884,6.94-34.222,6.808C414.127,259.157,402.918,255.752,395.045,252.476z"/>
		<path style="opacity:0.6;fill:#9D9FA0;" d="M400.058,183.97v40.099c0,8.742,5.257,15.828,11.742,15.828
			c6.484,0,11.743-7.087,11.743-15.828V183.97H400.058z"/>
		<path style="opacity:0.6;fill:#9D9FA0;" d="M405.935,276.043v75.273c0.344,0.496,2.618,3.672,6.222,3.518
			c3.292-0.142,5.32-2.962,5.703-3.518c0-25.325,0-50.651,0-75.977c-0.52-0.915-2.343-3.887-5.185-4.221
			c-3.448-0.406-7.07,3.227-6.829,4.674C405.858,275.868,405.883,275.953,405.935,276.043z"/>
		<path style="opacity:0.6;fill:#9D9FA0;" d="M405.582,251.702c0.116,4.811,0.234,9.621,0.353,14.431
			c0.344,0.108,2.618,0.803,6.222,0.77c3.292-0.031,5.32-0.648,5.703-0.77c-0.116-4.378-0.234-8.757-0.353-13.136
			c-1.477,0.525-3.827,1.094-6.679,0.647C408.605,253.295,406.817,252.445,405.582,251.702z"/>
		<path style="fill:#EAEAEA;" d="M374.533,227.644v267.328c0,8.742,20.429,15.828,45.63,15.828c25.199,0,45.629-7.086,45.629-15.828
			V227.644H374.533z"/>
		<path style="fill:#FFFFFF;" d="M383.348,227.644v265.481c0,8.682,8.589,15.719,19.186,15.719c10.596,0,19.186-7.037,19.186-15.719
			V227.644H383.348z"/>
		<path style="opacity:0.5;fill:#98C8D3;" d="M377.644,238.899v248.067c0,8.111,19.036,14.688,42.52,14.688
			c23.481,0,42.518-6.576,42.518-14.688V238.899c-8.957,4.921-23.982,11.385-43.037,11.267
			C401.128,250.05,386.502,243.767,377.644,238.899z"/>
		<path style="opacity:0.4;fill:#98C8D3;" d="M386.977,247.342v218.18c0,7.134,14.974,12.918,33.445,12.918
			s33.443-5.784,33.443-12.918v-218.18c-8.104,3.372-19.884,6.94-34.221,6.808C406.06,254.023,394.851,250.618,386.977,247.342z"/>
		<path style="fill:#BCB7B5;" d="M465.792,227.644c0,8.742-20.43,15.829-45.629,15.829c-25.202,0-45.63-7.087-45.63-15.829
			s20.429-15.829,45.63-15.829C445.362,211.815,465.792,218.902,465.792,227.644z"/>
		<path style="fill:#DBDAD9;" d="M374.533,179.806v40.099c0,8.742,20.429,15.829,45.63,15.829c25.199,0,45.629-7.086,45.629-15.829
			v-40.099H374.533z"/>
		<path style="opacity:0.6;fill:#FFFFFF;" d="M391.99,178.835v40.099c0,8.743,5.257,15.829,11.743,15.829
			c6.484,0,11.742-7.086,11.742-15.829v-40.099H391.99z"/>
		<path style="fill:#BFBEBE;" d="M446.415,179.806c0.497,17.616,0.992,35.231,1.488,52.846c2.489-0.366,6.618-1.286,10.954-3.883
			c3.45-2.068,5.77-4.442,7.188-6.149c-0.084-14.271-0.169-28.543-0.253-42.814H446.415z"/>
		<path style="fill:#BCB7B5;" d="M465.792,179.806c0,8.742-20.43,15.829-45.629,15.829c-25.202,0-45.63-7.087-45.63-15.829
			c0-8.742,20.429-15.829,45.63-15.829C445.362,163.977,465.792,171.064,465.792,179.806z"/>
		<ellipse style="fill:#DBDAD9;" cx="420.108" cy="176.31" rx="40.208" ry="12.046"/>
		<path style="opacity:0.6;fill:#F7F7F7;" d="M397.866,270.909v75.274c0.344,0.496,2.62,3.672,6.223,3.518
			c3.291-0.141,5.32-2.962,5.702-3.518c0-25.326,0-50.652,0-75.977c-0.518-0.915-2.343-3.886-5.185-4.221
			c-3.448-0.406-7.07,3.228-6.829,4.674C397.79,270.734,397.815,270.819,397.866,270.909z"/>
		<path style="opacity:0.6;fill:#F7F7F7;" d="M397.513,246.568c0.118,4.81,0.235,9.62,0.353,14.43
			c0.344,0.108,2.62,0.804,6.223,0.77c3.291-0.031,5.32-0.648,5.702-0.77c-0.115-4.378-0.234-8.757-0.352-13.135
			c-1.476,0.525-3.827,1.094-6.678,0.647C400.537,248.161,398.75,247.311,397.513,246.568z"/>
		<g>
			<g>
				<path style="fill:#6C9B35;" d="M619.616,564.248c12.016-10.269,28.753-6.867,32.56-6.094
					c18.768,3.815,18.807,15.499,39.695,22.974c18.82,6.734,31.717,1.925,33.436,7.256c2.075,6.429-16.397,18.073-25.573,22.941
					c-7.608,4.036-16.577,8.795-28.059,9.873c-28.565,2.682-62.176-18.133-62.082-38.186
					C609.643,573.204,617.742,565.851,619.616,564.248z"/>
				<path style="fill:#83B543;" d="M631.035,560.662c11.204-7.243,24.409-2.27,25.777-1.731c4.12,1.627,7.222,4.016,12.002,7.697
					c5.4,4.157,6.64,6.176,11.362,9.33c4.765,3.183,8.897,4.731,11.946,5.854c18.276,6.724,30.733,2.734,32.278,7.06
					c1.696,4.754-11.927,13.504-13.839,14.733c-3.372,2.166-13.911,8.773-28.057,9.872c-29.9,2.323-63.651-20.915-62.082-38.187
					C621.174,567.035,629.883,561.407,631.035,560.662z"/>
				<path style="fill:#94C44E;" d="M632.972,568.003c7.459-6.002,20.535-2.388,21.896-1.994c4.104,1.187,7.562,3.001,12.891,5.798
					c6.02,3.159,7.738,4.725,12.852,7.107c5.158,2.402,9.248,3.528,12.257,4.341c18.046,4.876,27.627,1.417,30.346,4.803
					c2.983,3.72-6.103,10.975-7.378,11.992c-2.25,1.796-9.332,7.279-21.301,8.492c-25.297,2.565-62.052-15.001-66.162-28.704
					C626.406,573.285,632.204,568.621,632.972,568.003z"/>
				<path style="fill:#B6E269;" d="M653.117,578.009c-0.211-1.343-0.805-5.124,1.305-7.01c6.052-5.407,22.633,15.281,50.107,16.652
					c7.576,0.378,17.193-0.653,17.567,1.295c0.188,0.976-2.047,2.184-4.729,3.607c-1.604,0.85-8.534,4.526-15.509,5.559
					C687.361,600.258,655.551,593.516,653.117,578.009z"/>
				<g>
					<path style="fill:#667C29;" d="M602.057,584.08c10.795-4.32,22.284-7.408,34-7.043c13.155,0.409,22.868,6.87,34.546,11.857
						c16.821,7.185,36.092,6.472,52.647-1.043c1.56-0.708-0.992-1.833-2.024-1.363c-10.028,4.552-21.075,6.453-32.045,5.307
						c-11.976-1.251-21.396-7.055-32.133-11.843c-18.201-8.117-38.51-4.663-56.411,2.502
						C598.852,583.167,600.838,584.567,602.057,584.08L602.057,584.08z"/>
				</g>
				<g>
					<path style="fill:#667C29;" d="M660.646,583.731c7.735,3.826,14.739,7.857,20.544,14.362
						c4.529,5.077,8.715,9.784,15.627,11.271c1.391,0.3,2.759-1.041,0.833-1.456c-8.507-1.832-12.571-10.066-18.664-15.367
						c-4.799-4.175-10.567-7.024-16.227-9.824C661.904,582.295,659.18,583.005,660.646,583.731L660.646,583.731z"/>
				</g>
				<g>
					<path style="fill:#667C29;" d="M632.118,576.631c6.81,2.264,10.704,7.487,12.12,14.363c1.016,4.921,1.671,9.568,4.452,13.87
						c5.075,7.85,13.919,12.314,22.711,14.61c0.728,0.19,3.306-0.235,1.509-0.706c-11.068-2.89-21.784-9.982-24.62-21.673
						c-1.077-4.434-1.209-9.08-3.646-13.077c-2.405-3.943-6.114-6.5-10.429-7.935C633.646,575.896,630.821,576.199,632.118,576.631
						L632.118,576.631z"/>
				</g>
			</g>
			<g>
				<path style="fill:#6C9B35;" d="M576.107,594.332c6.109-14.576,22.588-19.069,26.336-20.092
					c18.477-5.037,23.77,5.379,45.785,2.656c19.84-2.453,29.192-12.553,33.128-8.565c4.744,4.809-6.513,23.519-12.517,31.994
					c-4.98,7.029-10.848,15.313-20.617,21.442c-24.302,15.246-63.686,11.782-72.622-6.17
					C571.229,606.818,575.153,596.606,576.107,594.332z"/>
				<path style="fill:#83B543;" d="M584.691,585.991c6.749-11.509,20.778-13.009,22.242-13.143c4.411-0.4,8.256,0.337,14.183,1.474
					c6.693,1.284,8.706,2.528,14.345,3.22c5.688,0.698,10.074,0.223,13.301-0.147c19.348-2.219,28.678-11.386,32.006-8.217
					c3.652,3.481-4.576,17.426-5.729,19.382c-2.038,3.452-8.479,14.096-20.617,21.442c-25.655,15.527-66.255,9.961-72.622-6.17
					C578.753,596.12,583.996,587.175,584.691,585.991z"/>
				<path style="fill:#94C44E;" d="M589.723,591.676c3.963-8.716,17.266-11.371,18.657-11.632c4.198-0.787,8.104-0.722,14.122-0.623
					c6.797,0.112,9.037,0.738,14.676,0.565c5.686-0.176,9.844-1.01,12.898-1.639c18.31-3.765,25.311-11.164,29.261-9.362
					c4.339,1.978-0.512,12.545-1.192,14.028c-1.2,2.615-5.059,10.699-15.201,17.168c-21.438,13.672-62.167,14.521-72.004,4.134
					C586.238,599.348,589.316,592.573,589.723,591.676z"/>
				<path style="fill:#B6E269;" d="M612.216,591.548c-0.791-1.104-3.022-4.215-1.987-6.847c2.973-7.552,27.088,3.463,52.239-7.675
					c6.935-3.07,15.063-8.318,16.273-6.748c0.607,0.788-0.845,2.872-2.601,5.35c-1.05,1.48-5.585,7.883-11.349,11.944
					C652.81,596.011,621.367,604.302,612.216,591.548z"/>
				<g>
					<path style="fill:#667C29;" d="M569.349,619.944c7.696-8.716,16.566-16.642,27.194-21.588
						c11.934-5.554,23.516-4.153,36.186-4.955c18.256-1.152,35.145-10.46,46.549-24.619c1.072-1.334-1.713-1.189-2.423-0.306
						c-6.908,8.576-15.917,15.244-26.23,19.157c-11.258,4.271-22.281,3.327-34.024,3.881c-19.907,0.94-36.488,13.162-49.254,27.616
						C566.076,620.569,568.48,620.927,569.349,619.944L569.349,619.944z"/>
				</g>
				<g>
					<path style="fill:#667C29;" d="M621.515,593.271c8.631-0.063,16.697,0.386,24.808,3.584c6.331,2.496,12.188,4.815,19.028,3.036
						c1.377-0.358,1.996-2.172,0.089-1.677c-8.421,2.191-15.755-3.333-23.581-5.326c-6.163-1.569-12.599-1.519-18.911-1.473
						C621.993,591.422,619.88,593.282,621.515,593.271L621.515,593.271z"/>
				</g>
				<g>
					<path style="fill:#667C29;" d="M592.843,599.765c7.1-1.042,12.929,1.872,17.288,7.375c3.119,3.939,5.797,7.793,10.217,10.384
						c8.064,4.727,17.971,4.734,26.855,2.829c0.735-0.157,2.847-1.698,1.029-1.309c-11.185,2.4-23.945,0.886-31.739-8.278
						c-2.955-3.476-5.165-7.564-9.141-10.038c-3.921-2.439-8.383-3.054-12.882-2.392
						C593.879,598.421,591.49,599.964,592.843,599.765L592.843,599.765z"/>
				</g>
			</g>
		</g>
		<g>
			<path style="fill:#EDEDED;" d="M408.071,476.179H138.405v56.333h0.299c-0.005,0.087-0.036,0.173-0.036,0.261
				c0,13.369,60.013,24.208,134.043,24.208c74.03,0,134.043-10.839,134.043-24.208c0-0.088-0.03-0.174-0.035-0.261h0.299
				L408.071,476.179z"/>
			<path style="fill:#FFFFFF;" d="M183.263,483.221c-10.084-2.261-20.169-4.521-30.252-6.781
				c-0.304,22.342-0.608,44.683-0.913,67.025c4.271,1.529,9.065,3.017,14.343,4.303c5.537,1.35,10.706,2.259,15.388,2.869
				C182.307,528.165,182.785,505.692,183.263,483.221z"/>
			<path style="fill:#CACBCC;" d="M408.071,476.179c-13.736,2.869-27.471,5.738-41.207,8.606
				c-0.261,21.733-0.521,43.466-0.782,65.199c7.517-0.669,20.284-2.426,30.253-7.563c3.39-1.746,10.826-5.577,10.419-9.649
				c-0.012-0.112-0.025-0.202-0.035-0.261h0.299L408.071,476.179z"/>
			<path style="fill:#CACBCC;" d="M137.623,476.179c5.129,1.131,10.258,2.261,15.388,3.391c-0.13,21.386-0.261,42.77-0.391,64.156
				c-3.034-1.248-5.512-2.471-7.368-3.456c-2.565-1.36-3.78-2.181-4.89-3.52c-1.061-1.279-1.636-2.564-1.956-3.455
				C138.144,514.255,137.883,495.217,137.623,476.179z"/>
			<path style="fill:#97B78F;" d="M129.277,426.367v40.684h0.098c2.663,15.936,66.047,28.688,143.864,28.688
				c77.816,0,141.201-12.751,143.863-28.688h0.098V427.41L129.277,426.367z"/>
			<path style="fill:#779170;" d="M375.08,433.538c0.13,17.865,0.261,35.73,0.391,53.595c6.32-1.449,11.624-2.884,15.648-4.043
				c12.816-3.692,16.925-5.832,20.472-8.606c2.667-2.084,4.558-4.169,5.737-5.607c-0.042-13.822-0.087-27.645-0.129-41.466
				C403.16,429.452,389.12,431.496,375.08,433.538z"/>
			<path style="fill:#B0CEA7;" d="M158.617,444.361c0.044,13.213,0.087,26.428,0.13,39.642c5.398,1.521,11.324,2.957,17.735,4.173
				c6.397,1.214,12.425,2.047,17.995,2.607c0.217-13.126,0.435-26.254,0.652-39.38c-5.871-0.77-12.058-1.751-18.516-2.999
				C170.267,447.177,164.262,445.809,158.617,444.361z"/>
			<path style="fill:#757575;" d="M417.199,426.367c0,16.419-64.454,29.73-143.961,29.73c-79.508,0-143.961-13.311-143.961-29.73
				c0-16.421,64.454-29.732,143.961-29.732C352.746,396.635,417.199,409.946,417.199,426.367z"/>
			<path style="fill:#B0CEA7;" d="M415.896,425.063c0,15.268-63.286,27.645-141.353,27.645c-78.068,0-141.354-12.377-141.354-27.645
				s63.286-27.646,141.354-27.646C352.609,397.417,415.896,409.795,415.896,425.063z"/>
			<ellipse style="fill:#D1EDC8;" cx="282.496" cy="423.628" rx="131.442" ry="23.667"/>
			<path style="fill:#B0CEA7;" d="M346.522,539.031c-20.713,3.311-45.321,5.784-73.023,5.738
				c-27.047-0.047-51.116-2.486-71.459-5.738c0-10.345,0-20.69,0-31.035c20.233,3.235,44.12,5.661,70.937,5.737
				c27.91,0.08,52.696-2.403,73.545-5.737C346.522,518.341,346.522,528.687,346.522,539.031z"/>
			<path style="fill:#97B78F;" d="M346.653,538.901c-29.602,4.772-55.04,5.892-74.718,5.736c-21.047-0.166-41.479-1.84-41.468-2.086
				c0.007-0.156,8.275,0.078,14.735,0.261c0,0,70.155,1.987,83.195-7.302c4.955-3.53,4.955-7.042,4.955-7.042l0,0
				c0.741-3.33-0.45-6.326-1.565-9.127c-0.809-2.032-2.328-5.133-5.216-8.346c6.694-1.044,13.387-2.087,20.082-3.13
				C346.653,518.212,346.653,528.556,346.653,538.901z"/>
			<g>
				<path style="fill:#687C61;" d="M264.216,532.815h-9.003v-12.058h8.729v1.431h-7.134v3.667h6.675v1.439h-6.675v4.09h7.408
					V532.815z"/>
				<path style="fill:#687C61;" d="M269.8,533.025c-0.611,0-1.169-0.102-1.674-0.307c-0.504-0.205-0.935-0.501-1.293-0.89
					s-0.635-0.864-0.835-1.43c-0.198-0.565-0.298-1.215-0.298-1.948c0-0.722,0.098-1.365,0.293-1.931
					c0.196-0.565,0.473-1.045,0.83-1.439c0.358-0.395,0.79-0.693,1.297-0.898c0.508-0.205,1.067-0.308,1.678-0.308
					c0.471,0,0.906,0.063,1.307,0.188c0.4,0.126,0.754,0.307,1.063,0.542c0.309,0.235,0.561,0.53,0.757,0.885
					c0.195,0.354,0.326,0.761,0.394,1.22h-1.596c-0.024-0.525-0.22-0.927-0.586-1.201c-0.367-0.275-0.813-0.413-1.338-0.413
					c-0.374,0-0.711,0.07-1.013,0.211c-0.303,0.141-0.564,0.353-0.784,0.638c-0.22,0.284-0.391,0.634-0.513,1.049
					c-0.122,0.417-0.184,0.902-0.184,1.459c0,0.556,0.061,1.044,0.184,1.462c0.122,0.418,0.293,0.768,0.513,1.05
					c0.22,0.281,0.481,0.491,0.784,0.633c0.302,0.141,0.64,0.211,1.013,0.211c0.25,0,0.489-0.034,0.715-0.102
					c0.227-0.067,0.427-0.166,0.601-0.297c0.174-0.133,0.315-0.299,0.422-0.5c0.106-0.201,0.169-0.435,0.187-0.697h1.596
					c-0.068,0.465-0.201,0.871-0.399,1.22c-0.199,0.349-0.453,0.642-0.762,0.879c-0.308,0.239-0.661,0.418-1.058,0.537
					C270.705,532.967,270.271,533.025,269.8,533.025z"/>
				<path style="fill:#687C61;" d="M278.226,523.875c0.623,0,1.189,0.104,1.696,0.313c0.507,0.208,0.939,0.509,1.297,0.902
					c0.357,0.395,0.632,0.875,0.825,1.44c0.192,0.565,0.289,1.205,0.289,1.921c0,0.721-0.098,1.364-0.293,1.93
					c-0.196,0.565-0.472,1.045-0.83,1.439c-0.358,0.394-0.79,0.693-1.297,0.898c-0.508,0.204-1.07,0.307-1.687,0.307
					c-0.611,0-1.169-0.102-1.674-0.307c-0.504-0.205-0.934-0.501-1.292-0.89s-0.635-0.864-0.835-1.43
					c-0.198-0.565-0.298-1.215-0.298-1.948c0-0.722,0.098-1.365,0.293-1.931c0.196-0.565,0.472-1.045,0.83-1.439
					c0.358-0.395,0.79-0.693,1.297-0.898C277.056,523.977,277.615,523.875,278.226,523.875z M278.226,531.807
					c0.366,0,0.701-0.07,1.004-0.211c0.303-0.142,0.565-0.352,0.788-0.633c0.223-0.281,0.394-0.632,0.514-1.05
					c0.12-0.418,0.178-0.906,0.178-1.462c0-0.557-0.059-1.042-0.178-1.459c-0.12-0.415-0.29-0.765-0.514-1.049
					c-0.223-0.284-0.485-0.497-0.788-0.638c-0.303-0.141-0.638-0.211-1.004-0.211c-0.374,0-0.711,0.07-1.013,0.211
					c-0.303,0.141-0.564,0.353-0.784,0.638c-0.22,0.284-0.391,0.634-0.513,1.049c-0.122,0.417-0.184,0.902-0.184,1.459
					c0,0.556,0.062,1.044,0.184,1.462c0.122,0.418,0.293,0.768,0.513,1.05c0.22,0.281,0.481,0.491,0.784,0.633
					C277.515,531.736,277.853,531.807,278.226,531.807z"/>
			</g>
			<path style="fill:#79A567;" d="M290.487,535.606c2.026,1.596,3.04,2.395,4.379,2.478c2.871,0.179,5.09-2.746,5.628-3.455
				c2.632-3.469,1.024-5.755,3.617-9.03c2.052-2.591,4.572-3.07,4.313-3.869c-0.164-0.507-1.265-0.587-8.014-0.565
				c-4.848,0.016-5.269,0.06-5.893,0.185c-2.03,0.406-6.091,1.219-7.711,4.563c-0.093,0.191-1.261,2.705-0.23,5.435
				C287.211,533.024,288.349,533.922,290.487,535.606z"/>
			<g>
				<path style="fill:#687C61;" d="M287.435,540.705c0.948-5.982,2.249-12.413,8.952-14.262c3.929-1.084,7.224-2.01,10.634-4.358
					c1.008-0.693-0.552-0.922-1.123-0.528c-3.292,2.267-6.608,3.065-10.333,4.115c-1.501,0.423-2.844,0.995-4.088,1.958
					c-4.115,3.188-5.086,8.458-5.855,13.305C285.514,541.63,287.339,541.318,287.435,540.705L287.435,540.705z"/>
			</g>
			<g>
				<path style="fill:#687C61;" d="M290.847,529.568c2.833,2.141,6.751,3.679,9.706,0.85c0.799-0.764-0.965-0.962-1.496-0.454
					c-2.059,1.97-5.02-0.042-6.797-1.386C291.68,528.142,290.056,528.972,290.847,529.568L290.847,529.568z"/>
			</g>
		</g>
		<g>
			<path style="fill:#684228;" d="M234.439,382.81h0.147c-0.05-0.021-0.099-0.043-0.147-0.064V382.81z"/>
			<path style="fill:#684228;" d="M234.586,382.81c0.014,0.006,0.026,0.011,0.039,0.017c0.001-0.006,0.001-0.011,0.002-0.017
				H234.586z"/>
			<path style="fill:#C6ACB8;" d="M205.446,368.708v55.281h0.048c1.027,12.145,38.221,21.908,83.986,21.908
				c45.766,0,82.959-9.764,83.985-21.908h0.049v-55.795L205.446,368.708z"/>
			<path style="fill:#A58C99;" d="M346.13,384.283c0.085,18.57,0.171,37.14,0.257,55.709c2.006-0.449,4.958-1.178,8.472-2.311
				c4.829-1.556,7.769-2.505,11.04-4.621c1.892-1.225,4.696-3.359,7.445-6.932c0.057-19.311,0.115-38.623,0.171-57.935
				c-3.485,3.737-9.081,8.745-17.114,12.495C352.674,382.428,349.17,383.547,346.13,384.283z"/>
			<path style="fill:#F4DCE9;" d="M210.825,385.628c0,10.704,0,21.408,0,32.112c1.327,0.806,3.362,1.993,5.909,3.294
				c4.393,2.243,17.813,8.65,46.462,10.986c14.599,1.19,25.757,0.72,36.667,0.261c10.549-0.443,19.415-1.246,25.917-1.956
				c0-11.084,0-22.168,0-33.252c-16.709,1.613-30.869,1.987-41.565,1.957c0,0-38.482-0.111-61.408-8.291
				c-1.297-0.463-2.57-0.954-2.57-0.954C218.308,389.033,214.919,387.656,210.825,385.628z"/>
			<path style="fill:#DBC6D2;" d="M308.178,398.052c4.886,9.07,4.73,14.81,2.934,18.582c-9.599,20.155-76.663,6.434-100.286,1.106
				c1.327,0.806,3.362,1.993,5.909,3.294c4.393,2.243,17.813,8.65,46.462,10.986c14.599,1.19,25.757,0.72,36.667,0.261
				c10.549-0.443,19.415-1.246,25.917-1.956c0-11.084,0-22.168,0-33.252C319.913,397.4,314.045,397.725,308.178,398.052z"/>
			<path style="fill:#FFFFFF;" d="M373.514,368.708c0,12.382-37.623,22.42-84.034,22.42c-46.41,0-84.034-10.038-84.034-22.42
				s37.624-22.421,84.034-22.421C335.891,346.288,373.514,356.326,373.514,368.708z"/>
			<path style="fill:#D8C5D1;" d="M373.514,368.708c-0.033,6.501-10.64,13.043-26.357,16.601
				c-5.134-3.594-10.269-7.188-15.404-10.782c-35.407-16.516-43.378-24.313-42.273-28.24c2.085-7.405,37.561-4.915,65.379,7.445
				C362.876,357.295,373.547,362.17,373.514,368.708z"/>
			<path style="fill:#C6ACB8;" d="M212.292,345.603c0.798,7.188,1.597,14.376,2.396,21.565
				c17.894,5.697,45.179,12.087,78.728,11.296c30.114-0.711,54.686-6.958,71.539-12.665c0.115-6.618,0.229-13.235,0.342-19.853
				C314.297,345.832,263.294,345.717,212.292,345.603z"/>
			<path style="fill:#A58C99;" d="M331.412,358.268c0.029,5.334,0.057,10.668,0.086,16.002c4.148-0.414,8.168-1.188,12.064-2.31
				l0.002,0c4.334-1.26,11.631-3.377,21.308-6.161c0.143-6.618,0.286-13.235,0.428-19.853
				C354.003,350.053,342.707,354.161,331.412,358.268z"/>
			<path style="fill:#EAD3DF;" d="M365.642,346.288c0,7.94-34.329,14.377-76.676,14.377c-42.346,0-76.674-6.437-76.674-14.377
				c0-7.939,34.329-14.376,76.674-14.376C331.313,331.911,365.642,338.348,365.642,346.288z"/>
			<path style="fill:#727070;" d="M364.871,348.599c0.093,0.149-1.241,1.186-2.182,1.797c-2.066,1.342-3.953,2.075-4.924,2.412
				c-0.203,0.069-0.361,0.121-0.467,0.155c-2.364,0.763-6.919,1.997-11.04,3.081c-5.207,0.82-7.139,1.181-7.871,1.354
				c-0.172,0.04-1.019,0.238-2.173,0.45c-0.21,0.039-0.418,0.072-0.737,0.123c-3.924,0.619-8.66,1.02-17.971,1.797
				c-7.941,0.663-11.912,0.995-15.532,1.155c-7.45,0.331-13.147,0.221-17.072,0.128c0,0-49.15-1.16-65.85-8.728
				c-0.894-0.406-4.324-1.96-4.235-2.182c0.079-0.201,2.982,0.781,3.337,0.899c3.467,1.149,26.801,7.085,66.876,7.701
				c0,0,42.581,0.654,71.755-7.06c1.225-0.325,2.181-0.642,2.181-0.642C362.598,349.831,364.756,348.412,364.871,348.599z"/>
			<path style="fill:#E8CDDC;" d="M241.08,437.886c-5.051-0.583-11.36-1.812-18.274-4.409c-4.215-1.584-7.87-3.381-10.954-5.135
				c0.228-0.913,0.456-1.826,0.684-2.738c3.654,1.874,8.001,3.802,13.007,5.477c6.01,2.01,11.514,3.172,16.174,3.851
				C241.505,435.916,241.292,436.901,241.08,437.886z"/>
		</g>
		<g>
			<path style="fill:#6C9B35;" d="M173.081,531.974c-12.014-10.268-28.752-6.867-32.559-6.093
				c-18.767,3.814-18.807,15.499-39.695,22.974c-18.82,6.734-31.718,1.924-33.438,7.256c-2.074,6.429,16.398,18.073,25.574,22.941
				c7.609,4.036,16.577,8.794,28.059,9.872c28.564,2.682,62.177-18.132,62.081-38.186
				C183.055,540.931,174.956,533.577,173.081,531.974z"/>
			<path style="fill:#83B543;" d="M161.662,528.388c-11.205-7.242-24.409-2.269-25.776-1.729c-4.121,1.627-7.222,4.015-12.003,7.697
				c-5.4,4.157-6.638,6.175-11.363,9.329c-4.765,3.183-8.896,4.732-11.945,5.855c-18.277,6.724-30.733,2.733-32.279,7.06
				c-1.697,4.754,11.927,13.504,13.839,14.733c3.372,2.166,13.912,8.773,28.058,9.872c29.899,2.322,63.651-20.915,62.081-38.186
				C171.523,534.762,162.815,529.134,161.662,528.388z"/>
			<path style="fill:#94C44E;" d="M159.726,535.729c-7.46-6.002-20.534-2.388-21.896-1.994c-4.103,1.185-7.561,3.001-12.892,5.797
				c-6.02,3.16-7.737,4.726-12.852,7.106c-5.158,2.402-9.247,3.528-12.256,4.341c-18.046,4.877-27.628,1.418-30.344,4.804
				c-2.985,3.72,6.101,10.974,7.377,11.992c2.249,1.796,9.331,7.279,21.3,8.492c25.297,2.564,62.054-15.001,66.163-28.705
				C166.292,541.012,160.494,536.348,159.726,535.729z"/>
			<path style="fill:#B6E269;" d="M139.581,545.734c0.21-1.342,0.804-5.123-1.305-7.009c-6.052-5.407-22.632,15.281-50.106,16.651
				c-7.576,0.378-17.193-0.652-17.569,1.295c-0.188,0.977,2.047,2.184,4.73,3.607c1.603,0.851,8.534,4.527,15.509,5.56
				C105.337,567.984,137.147,561.242,139.581,545.734z"/>
			<g>
				<path style="fill:#667C29;" d="M190.641,551.807c-10.795-4.32-22.283-7.408-33.999-7.043
					c-13.157,0.409-22.87,6.869-34.546,11.855c-16.823,7.185-36.093,6.473-52.648-1.043c-1.559-0.707,0.993-1.832,2.026-1.362
					c10.027,4.551,21.074,6.452,32.045,5.307c11.975-1.252,21.395-7.055,32.133-11.844c18.2-8.116,38.507-4.662,56.411,2.503
					C193.846,550.893,191.859,552.293,190.641,551.807L190.641,551.807z"/>
			</g>
			<g>
				<path style="fill:#667C29;" d="M132.051,551.458c-7.735,3.825-14.737,7.855-20.542,14.361
					c-4.531,5.078-8.716,9.784-15.627,11.273c-1.391,0.3-2.76-1.041-0.834-1.457c8.507-1.831,12.571-10.066,18.664-15.367
					c4.798-4.175,10.568-7.024,16.226-9.823C130.794,550.021,133.518,550.731,132.051,551.458L132.051,551.458z"/>
			</g>
			<g>
				<path style="fill:#667C29;" d="M160.579,544.356c-6.808,2.264-10.704,7.487-12.121,14.364c-1.014,4.921-1.67,9.568-4.452,13.869
					c-5.074,7.851-13.918,12.315-22.712,14.611c-0.726,0.189-3.306-0.236-1.507-0.706c11.068-2.89,21.784-9.982,24.621-21.673
					c1.076-4.434,1.21-9.08,3.646-13.077c2.404-3.943,6.113-6.501,10.429-7.935C159.05,543.622,161.876,543.925,160.579,544.356
					L160.579,544.356z"/>
			</g>
		</g>
		<polygon style="fill:#A5A4A4;" points="438.575,564.937 457.186,552.529 475.824,564.599 475.849,589.076 457.237,601.484 
			438.599,589.414 		"/>
		<path style="fill:#848383;" d="M466.418,585.341c8.148-7.48,9.474-18.145,9.719-20.54c0.008,8.159,0.017,16.318,0.025,24.478
			l-18.614,12.407l-18.637-12.069C448.344,593.837,458.876,592.264,466.418,585.341z"/>
		<polygon style="fill:#A5A4A4;" points="460.93,523.515 479.544,511.107 498.181,523.178 498.205,547.654 479.592,560.063 
			460.955,547.992 		"/>
		<path style="fill:#848383;" d="M488.773,543.919c8.148-7.479,9.473-18.144,9.718-20.54c0.009,8.159,0.017,16.318,0.025,24.477
			l-18.612,12.407l-18.638-12.068C470.701,552.414,481.231,550.843,488.773,543.919z"/>
		<path style="fill:#CECECE;" d="M430.573,551.11v45.046c0,5.29,16.738,9.578,37.386,9.578c20.646,0,37.385-4.288,37.385-9.578
			V551.11c-10.444,1.602-22.306,2.738-35.345,2.847C455.306,554.079,442.055,552.871,430.573,551.11z"/>
		<path style="fill:#E8E6E6;" d="M456.631,553.44c-0.265,17.302-0.529,34.604-0.794,51.906c3.931,0.211,7.975,0.345,12.122,0.389
			c1.988,0.021,3.953,0.02,5.891,0c0.228-17.346,0.453-34.691,0.679-52.036c-3.073,0.235-6.409,0.348-9.969,0.259
			C461.762,553.889,459.113,553.703,456.631,553.44z"/>
		<path style="fill:#A5A4A4;" d="M490.616,552.663c0,17.172,0,34.345,0,51.518c1.815-0.494,3.353-0.941,4.532-1.295
			c4.459-1.334,5.6-1.915,6.345-2.329c1.448-0.808,2.726-1.783,3.851-2.848c0-15.533,0-31.066,0-46.599
			c-1.833,0.287-3.724,0.548-5.663,0.776C496.543,552.254,493.518,552.506,490.616,552.663z"/>
		<path style="fill:#C6ACB8;" d="M419.132,386.07c3.18,2.222,5.82,2.778,7.703,2.848c1.999,0.073,3.313-0.398,7.703-0.518
			c0,0,1.768-0.048,3.625,0c5.74,0.15,11.151,2.215,13.143,2.848c5.093,1.619,6.931-0.062,17.899-1.294
			c11.045-1.241,11.861,0.163,25.829-0.518c5.326-0.259,13.035-0.846,22.433-2.33c-0.496,2.2-1.2,5.615-1.813,9.837
			c-1.261,8.692-1.328,15.334-1.36,17.346c-0.087,5.524-0.296,1.563-3.172,44.268c-2.108,31.305-3.162,46.958-3.398,57.991
			c-0.099,4.581-0.216,7.196-0.454,12.427c-0.637,14.118-0.979,21.22-2.038,23.299c-1.233,2.418-4.896,7.496-37.159,7.249
			c-31.3-0.24-35.634-5.08-37.387-8.285c-1.251-2.289-1.178-3.728-1.813-17.862c-0.398-8.892-1.115-17.767-1.358-26.666
			c-0.378-13.707-0.852-31.022-1.813-47.635c-0.132-2.258-0.572-9.337-1.301-18.596c-0.727-9.217-1.372-15.89-2.324-25.673
			C421.346,407.299,420.364,397.546,419.132,386.07z"/>
		<path style="fill:#DBC6D2;" d="M482.573,390.989c4.111-0.543,8.267-1.062,12.461-1.553c7.596-0.89,15.075-1.664,22.433-2.33
			c-0.496,2.2-1.2,5.615-1.813,9.837c-1.261,8.692-1.328,15.334-1.36,17.346c-0.087,5.524-0.296,1.563-3.172,44.268
			c-1.619,24.064-1.738,38.168-3.398,57.991c-1.206,14.407-1.069,11.092-1.11,11.09c-0.059-0.003-0.199,2.273-0.249,3.148
			c-0.618,10.847,0.735,19.949-3.173,24.335c-1.331,1.494-3.984,1.945-9.29,2.849c-5.83,0.989-10.703,1.109-14.048,1.035
			C480.761,503,481.666,446.994,482.573,390.989z"/>
		<path style="fill:#C6ACB8;" d="M457.103,586.894c0.982,0.579,1.996-0.155,4.189-0.77c5.338-1.501,10.557-0.312,12.295,0.085
			c3.781,0.862,5.105,2.118,6.325,1.284c1.813-1.234,0.77-5.267,0.624-5.821c-0.958-3.706-3.802-5.803-4.721-6.422
			c-2.952-1.985-5.952-2.107-7.128-2.141c-1.081-0.029-3.894-0.072-6.86,1.542c-0.783,0.426-4.257,2.316-5.436,6.164
			C455.8,582.745,455.541,585.971,457.103,586.894z"/>
		<path style="fill:#AF7B8A;" d="M456.97,586.642c0.19,0.387,0.733,0.458,1.189,0.452c1.908-0.74,4.382-1.452,7.308-1.683
			c5.573-0.438,10.055,1.088,12.689,2.266c0.684,0.159,1.532,0.245,1.868-0.259c0.803-1.201-1.518-5.451-4.531-7.767
			c-3.978-3.059-8.434-2.182-8.95-2.07C460.647,578.846,456.236,585.154,456.97,586.642z"/>
		<path style="fill:#C6ACB8;" d="M417.545,375.456c0.604,3.97,1.208,7.939,1.813,11.909c13.641,3.417,31.289,6.344,51.886,6.041
			c17.976-0.265,33.546-2.921,45.996-6.041c0.152-3.625,0.303-7.249,0.453-10.873c-19.995,1.259-41.345,1.724-63.895,1.035
			C441.293,377.145,429.201,376.432,417.545,375.456z"/>
		<rect x="468.223" y="378.563" style="opacity:0.2;fill:#FFFFFF;" width="1.813" height="13.461"/>
		<polygon style="opacity:0.2;fill:#FFFFFF;" points="514.925,386.822 513.117,386.677 513.664,377.81 515.472,377.956 		"/>
		<rect x="510.29" y="377.699" style="opacity:0.2;fill:#FFFFFF;" width="1.814" height="9.493"/>
		<rect x="507.497" y="377.872" style="opacity:0.2;fill:#FFFFFF;" width="1.813" height="10.183"/>
		<rect x="504.627" y="378.044" style="opacity:0.2;fill:#FFFFFF;" width="1.812" height="10.442"/>
		<rect x="501.757" y="378.044" style="opacity:0.2;fill:#FFFFFF;" width="1.813" height="11.305"/>
		<rect x="498.811" y="378.217" style="opacity:0.2;fill:#FFFFFF;" width="1.813" height="11.823"/>
		<rect x="496.017" y="378.39" style="opacity:0.2;fill:#FFFFFF;" width="1.813" height="12.082"/>
		<rect x="493.261" y="378.39" style="opacity:0.2;fill:#FFFFFF;" width="1.813" height="12.771"/>
		<rect x="490.466" y="378.433" style="opacity:0.2;fill:#FFFFFF;" width="1.813" height="13.461"/>
		<rect x="487.671" y="378.519" style="opacity:0.2;fill:#FFFFFF;" width="1.813" height="13.462"/>
		<rect x="484.801" y="378.605" style="opacity:0.2;fill:#FFFFFF;" width="1.813" height="13.462"/>
		<rect x="482.12" y="378.735" style="opacity:0.2;fill:#FFFFFF;" width="1.813" height="13.462"/>
		<rect x="479.25" y="378.692" style="opacity:0.2;fill:#FFFFFF;" width="1.812" height="13.461"/>
		<rect x="476.343" y="378.648" style="opacity:0.2;fill:#FFFFFF;" width="1.813" height="13.462"/>
		<rect x="473.548" y="378.648" style="opacity:0.2;fill:#FFFFFF;" width="1.813" height="13.462"/>
		<rect x="470.753" y="378.605" style="opacity:0.2;fill:#FFFFFF;" width="1.813" height="13.462"/>
		
			<rect x="465.202" y="378.563" transform="matrix(-1 -1.224647e-16 1.224647e-16 -1 932.2167 770.5864)" style="opacity:0.2;fill:#FFFFFF;" width="1.813" height="13.461"/>
		<polygon style="opacity:0.2;fill:#FFFFFF;" points="420.313,386.822 422.12,386.677 421.573,377.81 419.766,377.956 		"/>
		
			<rect x="423.133" y="377.699" transform="matrix(-1 -1.224647e-16 1.224647e-16 -1 848.0801 764.8916)" style="opacity:0.2;fill:#FFFFFF;" width="1.814" height="9.493"/>
		
			<rect x="425.928" y="377.872" transform="matrix(-1 -1.224647e-16 1.224647e-16 -1 853.6679 765.9273)" style="opacity:0.2;fill:#FFFFFF;" width="1.813" height="10.183"/>
		
			<rect x="428.798" y="378.044" transform="matrix(-1 -1.224647e-16 1.224647e-16 -1 859.4083 766.5302)" style="opacity:0.2;fill:#FFFFFF;" width="1.813" height="10.442"/>
		
			<rect x="431.668" y="378.044" transform="matrix(-1 -1.224647e-16 1.224647e-16 -1 865.1485 767.393)" style="opacity:0.2;fill:#FFFFFF;" width="1.812" height="11.305"/>
		
			<rect x="434.613" y="378.217" transform="matrix(-1 -1.224647e-16 1.224647e-16 -1 871.0391 768.2564)" style="opacity:0.2;fill:#FFFFFF;" width="1.813" height="11.823"/>
		
			<rect x="437.408" y="378.39" transform="matrix(-1 -1.224647e-16 1.224647e-16 -1 876.6289 768.8608)" style="opacity:0.2;fill:#FFFFFF;" width="1.813" height="12.082"/>
		
			<rect x="440.164" y="378.39" transform="matrix(-1 -1.224647e-16 1.224647e-16 -1 882.1407 769.5507)" style="opacity:0.2;fill:#FFFFFF;" width="1.813" height="12.771"/>
		
			<rect x="442.959" y="378.433" transform="matrix(-1 -1.224647e-16 1.224647e-16 -1 887.7305 770.3276)" style="opacity:0.2;fill:#FFFFFF;" width="1.812" height="13.461"/>
		
			<rect x="445.754" y="378.519" transform="matrix(-1 -1.224647e-16 1.224647e-16 -1 893.3203 770.5)" style="opacity:0.2;fill:#FFFFFF;" width="1.813" height="13.462"/>
		
			<rect x="448.624" y="378.605" transform="matrix(-1 -1.224647e-16 1.224647e-16 -1 899.0605 770.6729)" style="opacity:0.2;fill:#FFFFFF;" width="1.812" height="13.462"/>
		
			<rect x="451.306" y="378.735" transform="matrix(-1 -1.224647e-16 1.224647e-16 -1 904.4229 770.9322)" style="opacity:0.2;fill:#FFFFFF;" width="1.811" height="13.462"/>
		
			<rect x="454.176" y="378.692" transform="matrix(-1 -1.224647e-16 1.224647e-16 -1 910.1631 770.8452)" style="opacity:0.2;fill:#FFFFFF;" width="1.811" height="13.461"/>
		
			<rect x="457.082" y="378.648" transform="matrix(-1 -1.224647e-16 1.224647e-16 -1 915.9785 770.7588)" style="opacity:0.2;fill:#FFFFFF;" width="1.814" height="13.462"/>
		
			<rect x="459.877" y="378.648" transform="matrix(-1 -1.224647e-16 1.224647e-16 -1 921.5665 770.7588)" style="opacity:0.2;fill:#FFFFFF;" width="1.812" height="13.462"/>
		
			<rect x="462.672" y="378.605" transform="matrix(-1 -1.224647e-16 1.224647e-16 -1 927.1563 770.6729)" style="opacity:0.2;fill:#FFFFFF;" width="1.813" height="13.462"/>
		<path style="fill:#A58C99;" d="M426.985,447.426c6.139,17.767,7.142,32.111,8.308,50.741c2.935,46.834,3.321,55.858,0.453,56.782
			c-1.19,0.384-3.006-0.606-5.891-5.005c-1.293-15.29-1.927-27.809-2.266-36.417c-0.762-19.326-0.458-29.448-1.662-49.879
			c-0.599-10.159-1.311-18.446-1.813-23.816C424.842,441.596,425.874,444.208,426.985,447.426z"/>
		<path style="fill:#A58C99;" d="M508.553,453.294c-4.822,16.914-5.606,29.365-6.947,46.427
			c-3.302,42.029-5.525,55.246-1.814,56.695c1.032,0.403,2.83,0.019,6.119-4.142c1.023-15.925,1.734-28.895,2.19-37.711
			c1.024-19.811,1.363-30.161,2.567-48.67c0.688-10.581,1.361-19.19,1.813-24.681C511.45,444.027,510.014,448.179,508.553,453.294z"
			/>
		<path style="fill:#A58C99;" d="M449.719,392.801c0.706,1.067,8.043,11.746,20.619,11.391c12.164-0.344,18.96-10.717,19.713-11.908
			c-6.308,0.727-13.205,1.216-20.619,1.294C462.371,393.652,455.777,393.343,449.719,392.801z"/>
		<path style="fill:#848383;" d="M432.046,551.756c0.968-3.125,19.782,3.998,40.104,5.955c6.48,0.624,15.858,0.987,27.416-0.517
			c-10.622,1.902-19.426,2.45-25.604,2.589c-16.724,0.375-40.99-1.655-41.917-7.508
			C432.013,552.068,431.992,551.929,432.046,551.756z"/>
		<path style="fill:#E8E6E6;" d="M482.596,508.005h-28.595c-6.744,0-12.211-5.468-12.211-12.212v-40.298
			c0-6.744,5.467-12.211,12.211-12.211h28.595c6.746,0,12.213,5.467,12.213,12.211v40.298
			C494.809,502.537,489.342,508.005,482.596,508.005z"/>
		<path style="fill:#A5A4A4;" d="M483.383,508.005c-3.895,0-7.79,0-11.685,0c2.772-0.454,6.904-1.642,10.423-5.178
			c5.077-5.104,5.802-13.414,7.249-30.03c1.025-11.738,0.355-16.667-1.358-21.229c-1.408-3.744-3.241-6.497-4.628-8.284
			c0.763,0,4.81,0.087,8.079,3.823c2.068,2.361,3.347,5.625,3.347,9.23v38.614C494.809,502.16,489.694,508.005,483.383,508.005z"/>
	</g>
</g>
</svg>
